{
.appVersion = "1179";
copyright = "Copyright (c) 2010, Sebastian Kosch (sebastian@aldusleaf.org),\012with Reserved Font Name \"Crimson Text\".\012This Font Software is licensed under the SIL Open Font License, Version 1.1.\012This license is available with a FAQ at: http://scripts.sil.org/OFL";
customParameters = (
{
name = vendorID;
value = PfEd;
},
{
name = panose;
value = (
2,
0,
7,
3,
0,
0,
0,
0,
0,
0
);
},
{
name = unicodeRanges;
value = (
0,
1,
2,
3,
5,
6,
31,
33,
37,
38,
60
);
},
{
name = codePageRanges;
value = (
1252,
1250,
1254,
1257
);
},
{
name = glyphOrder;
value = (
.notdef,
.null,
CR,
space,
exclam,
quotedbl,
numbersign,
dollar,
percent,
ampersand,
quotesingle,
parenleft,
parenright,
asterisk,
plus,
comma,
hyphen,
period,
slash,
zero,
one,
two,
three,
four,
five,
six,
seven,
eight,
nine,
colon,
semicolon,
less,
equal,
greater,
question,
at,
A,
B,
C,
D,
E,
F,
G,
H,
I,
J,
K,
L,
M,
N,
O,
P,
Q,
R,
S,
T,
U,
V,
W,
X,
Y,
Z,
bracketleft,
backslash,
bracketright,
asciicircum,
underscore,
grave,
a,
b,
c,
d,
e,
f,
g,
h,
i,
j,
k,
l,
m,
n,
o,
p,
q,
r,
s,
t,
u,
v,
w,
x,
y,
z,
braceleft,
bar,
braceright,
asciitilde,
uni00A0,
exclamdown,
cent,
sterling,
currency,
yen,
brokenbar,
section,
dieresis,
copyright,
ordfeminine,
guillemotleft,
logicalnot,
registered,
macron,
degree,
plusminus,
uni00B2,
uni00B3,
acute,
uni00B5,
paragraph,
periodcentered,
cedilla,
uni00B9,
ordmasculine,
guillemotright,
onequarter,
onehalf,
threequarters,
questiondown,
Agrave,
Aacute,
Acircumflex,
Atilde,
Adieresis,
Aring,
AE,
Ccedilla,
Egrave,
Eacute,
Ecircumflex,
Edieresis,
Igrave,
Iacute,
Icircumflex,
Idieresis,
Eth,
Ntilde,
Ograve,
Oacute,
Ocircumflex,
Otilde,
Odieresis,
multiply,
Oslash,
Ugrave,
Uacute,
Ucircumflex,
Udieresis,
Yacute,
Thorn,
germandbls,
agrave,
aacute,
acircumflex,
atilde,
adieresis,
aring,
ae,
ccedilla,
egrave,
eacute,
ecircumflex,
edieresis,
igrave,
iacute,
icircumflex,
idieresis,
eth,
ntilde,
ograve,
oacute,
ocircumflex,
otilde,
odieresis,
divide,
oslash,
ugrave,

glyphs = (
{
glyphname = .notdef;
layers = (
{
layerId = "DDCC2651-E394-46D5-8079-7BA98592C969";
paths = (
{
closed = 1;
nodes = (
"306 0 LINE",
"306 682 LINE",
"34 682 LINE",
"34 0 LINE"
);
},
{
closed = 1;
nodes = (
"68 648 LINE",
"272 648 LINE",
"272 34 LINE",
"68 34 LINE"
);
}
);
userData = {
assembly = "PUSHB[ ]\011/* 2 values pushed */
1 0 
MDAP[1]\011/* MoveDirectAbsPt */
ALIGNRP[ ]\011/* AlignRelativePt */
PUSHB[ ]\011/* 3 values pushed */
7 4 6 
MIRP[01101]\011/* MoveIndirectRelPt */
SHP[0]\011/* ShiftPointByLastPoint */
PUSHB[ ]\011/* 2 values pushed */
6 5 
MDRP[11100]\011/* MoveDirectRelPt */
ALIGNRP[ ]\011/* AlignRelativePt */
PUSHB[ ]\011/* 3 values pushed */
3 2 6 
MIRP[01101]\011/* MoveIndirectRelPt */
SHP[0]\011/* ShiftPointByLastPoint */
SVTCA[0]\011/* SetFreedomAndProjectionVectorToAxis */
PUSHB[ ]\011/* 2 values pushed */
3 0 
MDAP[1]\011/* MoveDirectAbsPt */
ALIGNRP[ ]\011/* AlignRelativePt */
PUSHB[ ]\011/* 3 values pushed */
5 4 6 
MIRP[01101]\011/* MoveIndirectRelPt */
SHP[0]\011/* ShiftPointByLastPoint */
PUSHB[ ]\011/* 3 values pushed */
7 6 7 
MIRP[11100]\011/* MoveIndirectRelPt */
ALIGNRP[ ]\011/* AlignRelativePt */
PUSHB[ ]\011/* 3 values pushed */
1 2 6 
MIRP[01101]\011/* MoveIndirectRelPt */
SHP[0]\011/* ShiftPointByLastPoint */";
};
width = 374;
}
);
note = .notdef;
},
{
glyphname = exclam;
layers = (
{
layerId = "DDCC2651-E394-46D5-8079-7BA98592C969";
paths = (
{
closed = 1;
nodes = (
"67 642 OFFCURVE",
"33 605 OFFCURVE",
"33 577 QCURVE SMOOTH",
"33 555 OFFCURVE",
"44 447 OFFCURVE",
"62 267 OFFCURVE",
"68 191 QCURVE",
"70 181 OFFCURVE",
"77 168 OFFCURVE",
"81 169 QCURVE SMOOTH",
"95 172 OFFCURVE",
"108 186 OFFCURVE",
"109 201 QCURVE SMOOTH",
"115 275 OFFCURVE",
"133 455 OFFCURVE",
"145 565 OFFCURVE",
"145 576 QCURVE SMOOTH",
"145 604 OFFCURVE",
"115 642 OFFCURVE",
"92 642 QCURVE SMOOTH"
);
},
{
closed = 1;
nodes = (
"23 28 OFFCURVE",
"65 -12 OFFCURVE",
"91 -12 QCURVE SMOOTH",
"118 -12 OFFCURVE",
"155 29 OFFCURVE",
"155 83 OFFCURVE",
"117 120 OFFCURVE",
"89 120 QCURVE SMOOTH",
"62 120 OFFCURVE",
"23 83 OFFCURVE",
"23 56 QCURVE SMOOTH"
);
}
);
width = 178;
}
);
note = exclam;
unicode = 0021;
},
{
glyphname = quotedbl;
layers = (
{
layerId = "DDCC2651-E394-46D5-8079-7BA98592C969";
paths = (
{
closed = 1;
nodes = (
"65 698 OFFCURVE",
"28 650 OFFCURVE",
"28 635 QCURVE SMOOTH",
"28 616 OFFCURVE",
"57 494 OFFCURVE",
"62 447 QCURVE",
"64 434 OFFCURVE",
"96 434 OFFCURVE",
"98 449 QCURVE SMOOTH",
"101 479 OFFCURVE",
"129 603 OFFCURVE",
"129 633 QCURVE SMOOTH",
"129 673 OFFCURVE",
"114 698 OFFCURVE",
"99 698 QCURVE SMOOTH",
"83 698 LINE SMOOTH"
);
},
{
closed = 1;
nodes = (
"228 698 OFFCURVE",
"192 651 OFFCURVE",
"192 635 QCURVE SMOOTH",
"192 616 OFFCURVE",
"221 494 OFFCURVE",
"226 447 QCURVE",
"228 434 OFFCURVE",
"241 434 QCURVE SMOOTH",
"258 434 OFFCURVE",
"259 449 QCURVE SMOOTH",
"262 480 OFFCURVE",
"292 603 OFFCURVE",
"292 633 QCURVE SMOOTH",
"292 673 OFFCURVE",
"277 698 OFFCURVE",
"263 698 QCURVE SMOOTH",
"246 698 LINE SMOOTH"
);
}
);
width = 321;
}
);
note = quotedbl;
unicode = 0022;
},
{
glyphname = numbersign;
layers = (
{
layerId = "DDCC2651-E394-46D5-8079-7BA98592C969";
paths = (
{
closed = 1;
nodes = (
"329 173 LINE",
"431 173 LINE",
"432 173 LINE SMOOTH",
"433 173 OFFCURVE",
"436 176 OFFCURVE",
"437 179 QCURVE SMOOTH",
"446 208 OFFCURVE",
"446 227 QCURVE SMOOTH",
"446 231 OFFCURVE",
"442 235 OFFCURVE",
"440 234 OFFCURVE",
"439 234 QCURVE SMOOTH",
"337 234 LINE",
"350 314 LINE",
"431 314 LINE",
"437 321 LINE",
"446 350 OFFCURVE",
"446 369 QCURVE SMOOTH",
"446 373 OFFCURVE",
"442 377 OFFCURVE",
"440 376 OFFCURVE",
"439 376 QCURVE SMOOTH",
"359 376 LINE",
"383 530 LINE",
"384 532 LINE",
"384 534 OFFCURVE",
"379 539 OFFCURVE",
"373 539 QCURVE SMOOTH",
"321 539 OFFCURVE",
"321 530 QCURVE",
"297 376 LINE",
"209 376 LINE",
"232 530 LINE",
"232 532 LINE",
"233 534 OFFCURVE",
"228 539 OFFCURVE",
"222 539 QCURVE SMOOTH",
"170 539 OFFCURVE",
"170 530 QCURVE",
"146 376 LINE",
"41 376 LINE",
"40 376 LINE SMOOTH",
"38 376 OFFCURVE",
"35 374 OFFCURVE",
"34 371 QCURVE SMOOTH",
"26 344 OFFCURVE",
"26 325 QCURVE SMOOTH",
"26 315 OFFCURVE",
"32 314 QCURVE",
"137 314 LINE",
"125 234 LINE",
"41 234 LINE",
"40 234 LINE SMOOTH",
"38 234 OFFCURVE",
"35 232 OFFCURVE",
"34 229 QCURVE SMOOTH",
"26 202 OFFCURVE",
"26 183 QCURVE SMOOTH",
"26 173 OFFCURVE",
"32 173 QCURVE SMOOTH",
"116 173 LINE",
"93 24 LINE",
"94 22 LINE",
"94 20 OFFCURVE",
"101 15 OFFCURVE",
"107 15 QCURVE SMOOTH",
"125 15 LINE SMOOTH",
"140 15 OFFCURVE",
"155 20 OFFCURVE",
"156 22 OFFCURVE",
"156 24 QCURVE",
"178 173 LINE",
"266 173 LINE",
"244 24 LINE",
"244 22 LINE SMOOTH",
"244 20 OFFCURVE",
"251 15 OFFCURVE",
"257 15 QCURVE SMOOTH",
"275 15 LINE SMOOTH",
"296 15 OFFCURVE",
"302 20 QCURVE",
"305 24 OFFCURVE",
"305 24 QCURVE"
);
},
{
closed = 1;
nodes = (
"187 234 LINE",
"200 314 LINE",
"288 314 LINE",
"276 234 LINE"
);
}
);
width = 472;
}
);
note = numbersign;
unicode = 0023;
},
{
glyphname = dollar;
layers = (
{
layerId = "DDCC2651-E394-46D5-8079-7BA98592C969";
paths = (
{
closed = 1;
nodes = (
"148 -37 LINE",
"148 -46 OFFCURVE",
"186 -46 QCURVE",
"302 668 LINE",
"302 676 OFFCURVE",
"266 676 QCURVE"
);
},
{
closed = 1;
nodes = (
"154 644 OFFCURVE",
"33 544 OFFCURVE",
"33 470 QCURVE SMOOTH",
"33 441 OFFCURVE",
"54 390 OFFCURVE",
"80 356 OFFCURVE",
"133 315 OFFCURVE",
"168 294 OFFCURVE",
"202 275 QCURVE SMOOTH",
"211 270 OFFCURVE",
"215 268 QCURVE",
"242 252 OFFCURVE",
"268 234 OFFCURVE",
"307 201 OFFCURVE",
"324 165 OFFCURVE",
"324 143 QCURVE SMOOTH",
"324 95 OFFCURVE",
"264 38 OFFCURVE",
"222 38 QCURVE SMOOTH",
"185 38 OFFCURVE",
"126 68 OFFCURVE",
"92 115 OFFCURVE",
"73 154 OFFCURVE",
"68 174 QCURVE",
"60 180 OFFCURVE",
"42 180 QCURVE SMOOTH",
"24 180 OFFCURVE",
"25 170 QCURVE",
"30 82 OFFCURVE",
"50 16 QCURVE",
"51 15 OFFCURVE",
"97 6 OFFCURVE",
"120 2 OFFCURVE",
"163 -5 OFFCURVE",
"200 -8 OFFCURVE",
"218 -8 QCURVE SMOOTH",
"302 -8 OFFCURVE",
"432 93 OFFCURVE",
"432 170 QCURVE SMOOTH",
"432 186 OFFCURVE",
"426 214 OFFCURVE",
"418 237 OFFCURVE",
"400 262 OFFCURVE",
"388 278 OFFCURVE",
"362 301 OFFCURVE",
"347 313 OFFCURVE",
"314 334 OFFCURVE",
"299 343 OFFCURVE",
"261 366 OFFCURVE",
"254 370 QCURVE SMOOTH",
"195 406 OFFCURVE",
"134 467 OFFCURVE",
"134 506 QCURVE SMOOTH",
"134 549 OFFCURVE",
"183 596 OFFCURVE",
"228 596 QCURVE SMOOTH",
"257 596 OFFCURVE",
"308 563 OFFCURVE",
"337 519 OFFCURVE",
"354 481 OFFCURVE",
"355 471 QCURVE SMOOTH",
"356 463 OFFCURVE",
"377 462 QCURVE",
"393 462 OFFCURVE",
"396 471 QCURVE",
"396 532 OFFCURVE",
"379 620 QCURVE",
"374 620 OFFCURVE",
"319 634 OFFCURVE",
"258 644 OFFCURVE",
"230 644 QCURVE SMOOTH"
);
}
);
width = 457;
}
);
note = dollar;
unicode = 0024;
},
{
glyphname = percent;
layers = (
{
layerId = "DDCC2651-E394-46D5-8079-7BA98592C969";
paths = (
{
closed = 1;
nodes = (
"208 613 OFFCURVE",
"247 527 OFFCURVE",
"247 471 QCURVE SMOOTH",
"247 426 OFFCURVE",
"217 363 OFFCURVE",
"183 363 QCURVE SMOOTH",
"145 363 OFFCURVE",
"103 449 OFFCURVE",
"103 503 QCURVE SMOOTH",
"103 547 OFFCURVE",
"135 613 OFFCURVE",
"169 613 QCURVE SMOOTH"
);
},
{
closed = 1;
nodes = (
"242 331 OFFCURVE",
"329 423 OFFCURVE",
"329 486 QCURVE SMOOTH",
"329 551 OFFCURVE",
"241 643 OFFCURVE",
"111 643 OFFCURVE",
"23 551 OFFCURVE",
"23 421 OFFCURVE",
"112 331 OFFCURVE",
"176 331 QCURVE SMOOTH"
);
},
{
closed = 1;
nodes = (
"502 278 OFFCURVE",
"539 193 OFFCURVE",
"539 137 QCURVE SMOOTH",
"539 92 OFFCURVE",
"509 28 OFFCURVE",
"475 28 QCURVE SMOOTH",
"437 28 OFFCURVE",
"395 115 OFFCURVE",
"395 169 QCURVE SMOOTH",
"395 212 OFFCURVE",
"429 278 OFFCURVE",
"463 278 QCURVE SMOOTH"
);
},
{
closed = 1;
nodes = (
"535 -3 OFFCURVE",
"621 89 OFFCURVE",
"621 152 QCURVE SMOOTH",
"621 217 OFFCURVE",
"534 309 OFFCURVE",
"404 309 OFFCURVE",
"315 217 OFFCURVE",
"315 87 OFFCURVE",
"405 -3 OFFCURVE",
"469 -3 QCURVE SMOOTH"
);
},
{
closed = 1;
nodes = (
"574 641 OFFCURVE",
"550 641 QCURVE SMOOTH",
"542 641 OFFCURVE",
"531 628 QCURVE",
"49 4 LINE",
"52 -8 OFFCURVE",
"77 -8 QCURVE SMOOTH",
"103 -8 OFFCURVE",
"111 4 QCURVE",
"593 626 LINE"
);
}
);
width = 645;
}
);
note = percent;
unicode = 0025;
},
{
glyphname = ampersand;
layers = (
{
layerId = "DDCC2651-E394-46D5-8079-7BA98592C969";
paths = (
{
closed = 1;
nodes = (
"341 77 OFFCURVE",
"284 48 OFFCURVE",
"256 48 QCURVE SMOOTH",
"206 48 OFFCURVE",
"138 108 OFFCURVE",
"138 168 QCURVE SMOOTH",
"138 217 OFFCURVE",
"177 276 OFFCURVE",
"213 301 QCURVE",
"239 262 LINE SMOOTH",
"265 222 OFFCURVE",
"338 120 OFFCURVE",
"359 98 QCURVE"
);
},
{
closed = 1;
nodes = (
"319 612 OFFCURVE",
"356 559 OFFCURVE",
"356 527 QCURVE SMOOTH",
"356 479 OFFCURVE",
"315 424 OFFCURVE",
"270 396 QCURVE",
"220 486 OFFCURVE",
"220 534 QCURVE SMOOTH",
"220 566 OFFCURVE",
"256 612 OFFCURVE",
"288 612 QCURVE SMOOTH"
);
},
{
closed = 1;
nodes = (
"217 656 OFFCURVE",
"124 576 OFFCURVE",
"124 510 QCURVE SMOOTH",
"124 500 OFFCURVE",
"126 481 OFFCURVE",
"128 466 OFFCURVE",
"135 446 OFFCURVE",
"138 434 OFFCURVE",
"148 412 OFFCURVE",
"152 404 OFFCURVE",
"164 382 OFFCURVE",
"167 377 OFFCURVE",
"181 353 OFFCURVE",
"182 352 QCURVE",
"149 334 OFFCURVE",
"105 303 OFFCURVE",
"53 255 OFFCURVE",
"26 195 OFFCURVE",
"26 160 QCURVE SMOOTH",
"26 80 OFFCURVE",
"137 -4 OFFCURVE",
"222 -4 QCURVE SMOOTH",
"319 -4 OFFCURVE",
"394 62 QCURVE",
"408 46 LINE SMOOTH",
"422 30 OFFCURVE",
"480 -2 OFFCURVE",
"510 -2 QCURVE SMOOTH",
"536 -2 OFFCURVE",
"583 24 OFFCURVE",
"612 59 OFFCURVE",
"629 85 OFFCURVE",
"632 92 QCURVE",
"632 98 OFFCURVE",
"614 112 OFFCURVE",
"606 112 QCURVE",
"599 98 OFFCURVE",
"564 64 OFFCURVE",
"547 64 QCURVE SMOOTH",
"540 64 OFFCURVE",
"525 70 OFFCURVE",
"513 77 OFFCURVE",
"495 94 OFFCURVE",
"487 102 OFFCURVE",
"466 124 OFFCURVE",
"464 127 QCURVE",
"482 148 OFFCURVE",
"532 215 OFFCURVE",
"566 262 OFFCURVE",
"570 264 QCURVE",
"580 271 OFFCURVE",
"626 282 OFFCURVE",
"638 282 QCURVE",
"645 284 OFFCURVE",
"645 300 QCURVE SMOOTH",
"645 313 OFFCURVE",
"640 316 QCURVE",
"549 312 OFFCURVE",
"530 312 QCURVE SMOOTH",
"438 312 LINE",
"435 310 OFFCURVE",
"435 290 OFFCURVE",
"438 284 QCURVE",
"439 284 OFFCURVE",
"464 283 OFFCURVE",
"483 276 OFFCURVE",
"483 266 QCURVE SMOOTH",
"483 248 OFFCURVE",
"428 172 QCURVE",
"349 266 OFFCURVE",
"298 350 QCURVE",
"368 392 OFFCURVE",
"443 477 OFFCURVE",
"443 538 QCURVE SMOOTH",
"443 592 OFFCURVE",
"358 656 OFFCURVE",
"286 656 QCURVE SMOOTH"
);
}
);
width = 681;
}
);
note = ampersand;
unicode = 0026;
},
{
glyphname = quotesingle;
layers = (
{
layerId = "DDCC2651-E394-46D5-8079-7BA98592C969";
paths = (
{
closed = 1;
nodes = (
"87 698 OFFCURVE",
"51 651 OFFCURVE",
"51 635 QCURVE SMOOTH",
"51 616 OFFCURVE",
"80 494 OFFCURVE",
"85 447 QCURVE",
"87 434 OFFCURVE",
"100 434 QCURVE SMOOTH",
"116 434 OFFCURVE",
"118 449 QCURVE",
"121 480 OFFCURVE",
"152 603 OFFCURVE",
"152 633 QCURVE SMOOTH",
"152 673 OFFCURVE",
"137 698 OFFCURVE",
"122 698 QCURVE SMOOTH",
"105 698 LINE SMOOTH"
);
}
);
width = 201;
}
);
note = quotesingle;
unicode = 0027;
},
{
glyphname = parenleft;
layers = (
{
layerId = "DDCC2651-E394-46D5-8079-7BA98592C969";
paths = (
{
closed = 1;
nodes = (
"121 448 OFFCURVE",
"209 692 OFFCURVE",
"258 720 QCURVE",
"259 720 OFFCURVE",
"259 722 QCURVE SMOOTH",
"259 729 OFFCURVE",
"252 748 OFFCURVE",
"247 748 QCURVE SMOOTH",
"225 748 OFFCURVE",
"153 680 OFFCURVE",
"80 567 OFFCURVE",
"27 395 OFFCURVE",
"27 305 QCURVE SMOOTH",
"27 216 OFFCURVE",
"82 46 OFFCURVE",
"157 -63 OFFCURVE",
"228 -129 OFFCURVE",
"247 -129 QCURVE SMOOTH",
"252 -129 OFFCURVE",
"259 -112 OFFCURVE",
"259 -106 QCURVE SMOOTH",
"259 -101 OFFCURVE",
"257 -100 QCURVE SMOOTH",
"219 -81 OFFCURVE",
"121 158 OFFCURVE",
"121 305 QCURVE SMOOTH"
);
}
);
width = 281;
}
);
note = parenleft;
unicode = 0028;
},
{
glyphname = parenright;
layers = (
{
layerId = "DDCC2651-E394-46D5-8079-7BA98592C969";
paths = (
{
closed = 1;
nodes = (
"160 160 OFFCURVE",
"62 -81 OFFCURVE",
"24 -100 QCURVE SMOOTH",
"22 -101 OFFCURVE",
"22 -106 QCURVE SMOOTH",
"22 -112 OFFCURVE",
"30 -129 OFFCURVE",
"35 -129 QCURVE SMOOTH",
"56 -129 OFFCURVE",
"127 -61 OFFCURVE",
"201 50 OFFCURVE",
"255 218 OFFCURVE",
"255 305 QCURVE SMOOTH",
"255 394 OFFCURVE",
"203 565 OFFCURVE",
"130 678 OFFCURVE",
"58 748 OFFCURVE",
"35 748 QCURVE SMOOTH",
"30 748 OFFCURVE",
"22 728 OFFCURVE",
"22 722 QCURVE SMOOTH",
"22 720 OFFCURVE",
"24 720 QCURVE",
"72 692 OFFCURVE",
"160 448 OFFCURVE",
"160 305 QCURVE SMOOTH"
);
}
);
width = 282;
}
);
note = parenright;
unicode = 0029;
},
{
glyphname = asterisk;
layers = (
{
layerId = "DDCC2651-E394-46D5-8079-7BA98592C969";
paths = (
{
closed = 1;
nodes = (
"278 602 OFFCURVE",
"243 536 OFFCURVE",
"231 523 QCURVE",
"225 517 OFFCURVE",
"221 517 QCURVE SMOOTH",
"218 517 OFFCURVE",
"213 524 OFFCURVE",
"213 526 QCURVE",
"205 544 OFFCURVE",
"190 618 OFFCURVE",
"181 638 QCURVE SMOOTH",
"174 655 OFFCURVE",
"144 668 OFFCURVE",
"129 661 QCURVE SMOOTH",
"115 654 OFFCURVE",
"108 621 OFFCURVE",
"117 605 QCURVE",
"127 585 OFFCURVE",
"178 531 OFFCURVE",
"187 515 QCURVE",
"190 509 OFFCURVE",
"189 504 QCURVE SMOOTH",
"188 498 OFFCURVE",
"179 498 QCURVE",
"160 496 OFFCURVE",
"83 506 OFFCURVE",
"62 503 QCURVE",
"43 501 OFFCURVE",
"22 476 OFFCURVE",
"24 460 QCURVE SMOOTH",
"26 445 OFFCURVE",
"57 428 OFFCURVE",
"75 431 QCURVE SMOOTH",
"97 435 OFFCURVE",
"163 467 OFFCURVE",
"181 470 QCURVE",
"189 473 OFFCURVE",
"193 469 QCURVE SMOOTH",
"194 468 OFFCURVE",
"194 458 QCURVE",
"191 439 OFFCURVE",
"158 369 OFFCURVE",
"154 348 QCURVE SMOOTH",
"151 330 OFFCURVE",
"167 302 OFFCURVE",
"183 299 QCURVE SMOOTH",
"198 296 OFFCURVE",
"223 320 OFFCURVE",
"226 338 QCURVE SMOOTH",
"229 360 OFFCURVE",
"219 434 OFFCURVE",
"221 452 QCURVE",
"221 458 OFFCURVE",
"227 461 QCURVE",
"231 464 OFFCURVE",
"238 460 QCURVE SMOOTH",
"256 450 OFFCURVE",
"312 397 OFFCURVE",
"330 387 QCURVE SMOOTH",
"347 378 OFFCURVE",
"378 386 OFFCURVE",
"386 400 QCURVE",
"393 414 OFFCURVE",
"380 444 OFFCURVE",
"363 452 QCURVE SMOOTH",
"343 462 OFFCURVE",
"269 475 OFFCURVE",
"253 483 QCURVE",
"246 485 OFFCURVE",
"245 491 QCURVE",
"243 499 OFFCURVE",
"249 502 QCURVE",
"263 515 OFFCURVE",
"330 552 OFFCURVE",
"346 567 QCURVE SMOOTH",
"359 580 OFFCURVE",
"362 612 OFFCURVE",
"351 624 QCURVE",
"340 635 OFFCURVE",
"307 631 OFFCURVE",
"294 618 QCURVE SMOOTH"
);
}
);
width = 415;
}
);
note = asterisk;
unicode = 002A;
},
{
glyphname = plus;
layers = (
{
layerId = "DDCC2651-E394-46D5-8079-7BA98592C969";
paths = (
{
closed = 1;
nodes = (
"297 214 OFFCURVE",
"301 214 QCURVE SMOOTH",
"488 214 LINE",
"490 214 LINE SMOOTH",
"491 214 OFFCURVE",
"494 217 OFFCURVE",
"495 220 QCURVE",
"505 257 OFFCURVE",
"505 272 QCURVE SMOOTH",
"505 278 OFFCURVE",
"497 278 QCURVE SMOOTH",
"301 278 LINE SMOOTH",
"297 278 OFFCURVE",
"297 283 QCURVE SMOOTH",
"297 479 LINE",
"287 485 LINE",
"265 485 OFFCURVE",
"238 477 QCURVE SMOOTH",
"232 475 OFFCURVE",
"233 470 QCURVE",
"233 284 LINE SMOOTH",
"233 278 OFFCURVE",
"228 278 QCURVE SMOOTH",
"41 278 LINE",
"40 278 LINE SMOOTH",
"38 278 OFFCURVE",
"35 276 OFFCURVE",
"34 273 QCURVE SMOOTH",
"26 246 OFFCURVE",
"26 224 QCURVE SMOOTH",
"26 214 OFFCURVE",
"32 214 QCURVE SMOOTH",
"227 214 LINE SMOOTH",
"233 214 OFFCURVE",
"233 209 QCURVE SMOOTH",
"233 14 LINE SMOOTH",
"233 6 OFFCURVE",
"239 6 QCURVE SMOOTH",
"240 6 OFFCURVE",
"243 7 OFFCURVE",
"245 7 QCURVE",
"290 13 OFFCURVE",
"297 23 QCURVE",
"297 211 LINE SMOOTH"
);
}
);
width = 531;
}
);
note = plus;
unicode = 002B;
},
{
glyphname = comma;
layers = (
{
layerId = "DDCC2651-E394-46D5-8079-7BA98592C969";
paths = (
{
closed = 1;
nodes = (
"92 -50 OFFCURVE",
"58 -107 OFFCURVE",
"24 -137 OFFCURVE",
"24 -138 QCURVE SMOOTH",
"24 -145 OFFCURVE",
"42 -166 OFFCURVE",
"47 -166 QCURVE SMOOTH",
"48 -166 LINE",
"106 -121 OFFCURVE",
"160 -48 OFFCURVE",
"176 8 QCURVE SMOOTH",
"184 36 OFFCURVE",
"184 56 QCURVE SMOOTH",
"184 98 OFFCURVE",
"170 126 QCURVE",
"160 132 OFFCURVE",
"138 132 QCURVE SMOOTH",
"104 132 OFFCURVE",
"62 90 OFFCURVE",
"62 69 QCURVE SMOOTH",
"62 51 OFFCURVE",
"92 0 OFFCURVE",
"92 -16 QCURVE SMOOTH"
);
}
);
width = 213;
}
);
note = comma;
unicode = 002C;
},
{
glyphname = hyphen;
layers = (
{
layerId = "DDCC2651-E394-46D5-8079-7BA98592C969";
paths = (
{
closed = 1;
nodes = (
"31 202 OFFCURVE",
"35 196 OFFCURVE",
"37 196 OFFCURVE",
"38 196 QCURVE",
"279 207 LINE",
"282 211 LINE",
"286 215 OFFCURVE",
"292 245 OFFCURVE",
"292 267 QCURVE SMOOTH",
"292 276 OFFCURVE",
"286 276 QCURVE SMOOTH",
"285 276 LINE",
"44 264 LINE",
"43 264 LINE SMOOTH",
"31 264 OFFCURVE",
"31 207 QCURVE SMOOTH"
);
}
);
width = 324;
}
);
note = hyphen;
unicode = 002D;
},
{
glyphname = period;
layers = (
{
layerId = "DDCC2651-E394-46D5-8079-7BA98592C969";
paths = (
{
closed = 1;
nodes = (
"69 123 OFFCURVE",
"29 83 OFFCURVE",
"29 29 OFFCURVE",
"69 -12 OFFCURVE",
"97 -12 QCURVE SMOOTH",
"124 -12 OFFCURVE",
"163 29 OFFCURVE",
"163 83 OFFCURVE",
"124 123 OFFCURVE",
"97 123 QCURVE SMOOTH"
);
}
);
width = 191;
}
);
note = period;
unicode = 002E;
},
{
glyphname = slash;
layers = (
{
layerId = "DDCC2651-E394-46D5-8079-7BA98592C969";
paths = (
{
closed = 1;
nodes = (
"383 761 OFFCURVE",
"366 761 QCURVE SMOOTH",
"327 761 OFFCURVE",
"317 739 QCURVE",
"21 -28 LINE",
"22 -30 LINE SMOOTH",
"23 -32 OFFCURVE",
"32 -35 OFFCURVE",
"39 -35 QCURVE SMOOTH",
"62 -35 OFFCURVE",
"97 -19 OFFCURVE",
"99 -12 QCURVE",
"395 755 LINE"
);
}
);
width = 416;
}
);
note = slash;
unicode = 002F;
},
{
glyphname = zero;
layers = (
{
layerId = "DDCC2651-E394-46D5-8079-7BA98592C969";
paths = (
{
closed = 1;
nodes = (
"143 435 OFFCURVE",
"205 590 OFFCURVE",
"254 590 QCURVE SMOOTH",
"302 590 OFFCURVE",
"361 439 OFFCURVE",
"361 321 QCURVE SMOOTH",
"361 199 OFFCURVE",
"304 41 OFFCURVE",
"254 41 QCURVE SMOOTH",
"207 41 OFFCURVE",
"143 199 OFFCURVE",
"143 316 QCURVE SMOOTH"
);
},
{
closed = 1;
nodes = (
"343 -3 OFFCURVE",
"476 185 OFFCURVE",
"476 445 OFFCURVE",
"343 633 OFFCURVE",
"253 633 QCURVE SMOOTH",
"162 633 OFFCURVE",
"27 445 OFFCURVE",
"27 185 OFFCURVE",
"162 -3 OFFCURVE",
"253 -3 QCURVE SMOOTH"
);
}
);
width = 503;
}
);
note = zero;
unicode = 0030;
},
{
glyphname = one;
layers = (
{
layerId = "DDCC2651-E394-46D5-8079-7BA98592C969";
paths = (
{
closed = 1;
nodes = (
"79 484 OFFCURVE",
"98 495 OFFCURVE",
"111 502 OFFCURVE",
"127 511 OFFCURVE",
"140 516 OFFCURVE",
"143 516 QCURVE SMOOTH",
"149 516 OFFCURVE",
"155 509 OFFCURVE",
"160 482 OFFCURVE",
"160 458 QCURVE SMOOTH",
"160 110 LINE SMOOTH",
"160 76 OFFCURVE",
"154 52 QCURVE SMOOTH",
"152 45 OFFCURVE",
"100 30 OFFCURVE",
"89 30 QCURVE SMOOTH",
"85 30 OFFCURVE",
"85 0 OFFCURVE",
"89 -4 QCURVE",
"93 -3 OFFCURVE",
"189 3 OFFCURVE",
"237 3 OFFCURVE",
"337 -3 OFFCURVE",
"339 -4 QCURVE",
"340 0 OFFCURVE",
"340 10 QCURVE SMOOTH",
"340 30 OFFCURVE",
"337 30 QCURVE SMOOTH",
"327 30 OFFCURVE",
"277 44 OFFCURVE",
"275 52 QCURVE SMOOTH",
"267 82 OFFCURVE",
"267 132 QCURVE SMOOTH",
"267 530 LINE SMOOTH",
"267 592 OFFCURVE",
"276 624 QCURVE",
"272 642 OFFCURVE",
"264 642 QCURVE SMOOTH",
"262 642 LINE SMOOTH",
"261 642 OFFCURVE",
"207 610 OFFCURVE",
"111 549 OFFCURVE",
"62 516 QCURVE",
"60 514 OFFCURVE",
"60 507 QCURVE SMOOTH",
"60 502 OFFCURVE",
"70 485 OFFCURVE",
"76 482 QCURVE"
);
}
);
width = 400;
}
);
note = one;
unicode = 0031;
},
{
glyphname = two;
layers = (
{
layerId = "DDCC2651-E394-46D5-8079-7BA98592C969";
paths = (
{
closed = 1;
nodes = (
"195 642 OFFCURVE",
"123 610 OFFCURVE",
"78 563 OFFCURVE",
"52 524 OFFCURVE",
"46 509 QCURVE",
"46 502 OFFCURVE",
"63 488 OFFCURVE",
"70 488 QCURVE",
"70 489 OFFCURVE",
"79 502 OFFCURVE",
"85 511 OFFCURVE",
"99 527 OFFCURVE",
"112 538 OFFCURVE",
"131 551 OFFCURVE",
"151 560 OFFCURVE",
"177 566 OFFCURVE",
"190 566 QCURVE SMOOTH",
"231 566 OFFCURVE",
"282 504 OFFCURVE",
"282 455 QCURVE SMOOTH",
"282 378 OFFCURVE",
"131 140 OFFCURVE",
"28 32 QCURVE",
"29 6 OFFCURVE",
"40 0 QCURVE",
"387 0 LINE SMOOTH",
"401 0 OFFCURVE",
"403 15 QCURVE",
"408 41 OFFCURVE",
"436 174 QCURVE",
"429 179 OFFCURVE",
"416 179 QCURVE SMOOTH",
"403 179 OFFCURVE",
"400 170 QCURVE",
"392 141 OFFCURVE",
"380 112 OFFCURVE",
"349 87 OFFCURVE",
"326 87 QCURVE SMOOTH",
"144 87 LINE SMOOTH",
"140 87 OFFCURVE",
"138 93 OFFCURVE",
"141 95 QCURVE",
"174 126 OFFCURVE",
"201 152 OFFCURVE",
"267 219 OFFCURVE",
"301 260 OFFCURVE",
"351 328 OFFCURVE",
"375 380 OFFCURVE",
"395 445 OFFCURVE",
"395 474 QCURVE SMOOTH",
"395 545 OFFCURVE",
"307 642 OFFCURVE",
"236 642 QCURVE SMOOTH"
);
}
);
width = 465;
}
);
note = two;
unicode = 0032;
},
{
glyphname = three;
layers = (
{
layerId = "DDCC2651-E394-46D5-8079-7BA98592C969";
paths = (
{
closed = 1;
nodes = (
"141 642 OFFCURVE",
"80 558 QCURVE",
"80 550 OFFCURVE",
"93 531 OFFCURVE",
"98 531 QCURVE",
"98 531 OFFCURVE",
"109 542 OFFCURVE",
"118 551 OFFCURVE",
"136 563 OFFCURVE",
"154 571 OFFCURVE",
"180 578 OFFCURVE",
"194 578 QCURVE SMOOTH",
"222 578 OFFCURVE",
"268 532 OFFCURVE",
"268 494 QCURVE SMOOTH",
"268 437 OFFCURVE",
"194 365 OFFCURVE",
"131 354 QCURVE",
"128 350 OFFCURVE",
"128 342 QCURVE SMOOTH",
"128 323 OFFCURVE",
"136 314 QCURVE",
"170 320 OFFCURVE",
"196 320 QCURVE SMOOTH",
"245 320 OFFCURVE",
"312 242 OFFCURVE",
"312 184 QCURVE SMOOTH",
"312 113 OFFCURVE",
"250 42 OFFCURVE",
"206 42 QCURVE SMOOTH",
"161 42 OFFCURVE",
"132 70 QCURVE SMOOTH",
"130 72 OFFCURVE",
"110 93 OFFCURVE",
"101 101 OFFCURVE",
"83 110 OFFCURVE",
"75 110 QCURVE SMOOTH",
"55 110 OFFCURVE",
"36 79 OFFCURVE",
"36 56 QCURVE SMOOTH",
"36 38 OFFCURVE",
"44 28 QCURVE",
"92 -4 OFFCURVE",
"167 -4 QCURVE SMOOTH",
"233 -4 OFFCURVE",
"347 45 OFFCURVE",
"422 145 OFFCURVE",
"422 210 QCURVE SMOOTH",
"422 246 OFFCURVE",
"391 309 OFFCURVE",
"345 350 OFFCURVE",
"299 375 OFFCURVE",
"280 378 QCURVE",
"364 438 OFFCURVE",
"364 520 QCURVE SMOOTH",
"364 577 OFFCURVE",
"287 642 OFFCURVE",
"244 642 QCURVE SMOOTH"
);
}
);
width = 455;
}
);
note = three;
unicode = 0033;
},
{
glyphname = four;
layers = (
{
layerId = "DDCC2651-E394-46D5-8079-7BA98592C969";
paths = (
{
closed = 1;
nodes = (
"355 644 OFFCURVE",
"344 632 QCURVE",
"324 607 OFFCURVE",
"55 254 OFFCURVE",
"21 214 QCURVE",
"21 187 OFFCURVE",
"32 174 QCURVE",
"283 174 LINE",
"283 5 LINE SMOOTH",
"283 -6 OFFCURVE",
"331 -6 QCURVE SMOOTH",
"371 -6 OFFCURVE",
"385 2 QCURVE",
"385 174 LINE",
"444 174 OFFCURVE",
"444 174 QCURVE",
"452 179 OFFCURVE",
"452 184 QCURVE SMOOTH",
"452 238 OFFCURVE",
"436 238 QCURVE SMOOTH",
"385 238 LINE",
"385 634 LINE SMOOTH",
"385 644 OFFCURVE",
"369 644 QCURVE SMOOTH"
);
},
{
closed = 1;
nodes = (
"110 238 LINE SMOOTH",
"103 238 OFFCURVE",
"103 247 QCURVE SMOOTH",
"103 249 OFFCURVE",
"104 250 QCURVE",
"277 478 LINE",
"279 480 LINE",
"283 480 OFFCURVE",
"283 472 QCURVE SMOOTH",
"283 238 LINE"
);
}
);
width = 473;
}
);
note = four;
unicode = 0034;
},
{
glyphname = five;
layers = (
{
layerId = "DDCC2651-E394-46D5-8079-7BA98592C969";
paths = (
{
closed = 1;
nodes = (
"115 610 OFFCURVE",
"72 363 OFFCURVE",
"66 327 QCURVE",
"73 318 OFFCURVE",
"84 313 QCURVE",
"127 326 OFFCURVE",
"178 326 QCURVE SMOOTH",
"239 326 OFFCURVE",
"306 243 OFFCURVE",
"306 182 QCURVE SMOOTH",
"306 120 OFFCURVE",
"249 42 OFFCURVE",
"204 42 QCURVE SMOOTH",
"157 42 OFFCURVE",
"128 70 QCURVE",
"126 73 OFFCURVE",
"106 93 OFFCURVE",
"97 102 OFFCURVE",
"79 110 OFFCURVE",
"71 110 QCURVE SMOOTH",
"51 110 OFFCURVE",
"32 79 OFFCURVE",
"32 57 QCURVE SMOOTH",
"32 39 OFFCURVE",
"40 28 QCURVE",
"88 -4 OFFCURVE",
"165 -4 QCURVE SMOOTH",
"272 -4 OFFCURVE",
"417 123 OFFCURVE",
"417 220 QCURVE SMOOTH",
"417 296 OFFCURVE",
"291 406 OFFCURVE",
"212 406 QCURVE SMOOTH",
"161 406 OFFCURVE",
"124 395 QCURVE",
"141 490 OFFCURVE",
"148 530 QCURVE",
"150 538 OFFCURVE",
"158 539 QCURVE",
"161 539 OFFCURVE",
"308 543 OFFCURVE",
"360 548 QCURVE",
"369 572 OFFCURVE",
"369 612 QCURVE SMOOTH",
"369 631 OFFCURVE",
"362 640 QCURVE",
"333 634 OFFCURVE",
"118 630 QCURVE"
);
}
);
width = 451;
}
);
note = five;
unicode = 0035;
},
{
glyphname = six;
layers = (
{
layerId = "DDCC2651-E394-46D5-8079-7BA98592C969";
paths = (
{
closed = 1;
nodes = (
"140 256 OFFCURVE",
"150 286 QCURVE SMOOTH",
"155 301 OFFCURVE",
"193 322 OFFCURVE",
"214 322 QCURVE SMOOTH",
"269 322 OFFCURVE",
"321 243 OFFCURVE",
"321 176 QCURVE SMOOTH",
"321 110 OFFCURVE",
"275 40 OFFCURVE",
"235 40 QCURVE SMOOTH",
"191 40 OFFCURVE",
"139 130 OFFCURVE",
"139 200 QCURVE SMOOTH"
);
},
{
closed = 1;
nodes = (
"309 -6 OFFCURVE",
"430 111 OFFCURVE",
"430 190 QCURVE SMOOTH",
"430 262 OFFCURVE",
"325 374 OFFCURVE",
"251 374 QCURVE SMOOTH",
"229 374 OFFCURVE",
"177 357 OFFCURVE",
"164 350 QCURVE",
"163 349 OFFCURVE",
"162 349 QCURVE",
"157 352 OFFCURVE",
"161 364 QCURVE",
"186 449 OFFCURVE",
"319 576 OFFCURVE",
"410 616 QCURVE",
"409 625 OFFCURVE",
"398 645 OFFCURVE",
"390 646 QCURVE",
"322 619 OFFCURVE",
"199 538 OFFCURVE",
"92 428 OFFCURVE",
"28 284 OFFCURVE",
"28 205 QCURVE SMOOTH",
"28 116 OFFCURVE",
"146 -6 OFFCURVE",
"229 -6 QCURVE SMOOTH"
);
}
);
width = 457;
}
);
note = six;
unicode = 0036;
},
{
glyphname = seven;
layers = (
{
layerId = "DDCC2651-E394-46D5-8079-7BA98592C969";
paths = (
{
closed = 1;
nodes = (
"365 544 LINE",
"105 22 LINE",
"105 12 OFFCURVE",
"128 -8 OFFCURVE",
"140 -8 QCURVE SMOOTH",
"146 -8 OFFCURVE",
"149 -6 QCURVE",
"418 562 LINE SMOOTH",
"446 618 OFFCURVE",
"446 630 QCURVE SMOOTH",
"446 638 OFFCURVE",
"439 638 QCURVE SMOOTH",
"438 638 OFFCURVE",
"387 636 OFFCURVE",
"372 636 QCURVE SMOOTH",
"80 636 LINE SMOOTH",
"65 636 OFFCURVE",
"62 624 QCURVE",
"59 603 OFFCURVE",
"25 459 QCURVE",
"31 455 OFFCURVE",
"63 457 OFFCURVE",
"64 462 QCURVE",
"70 480 OFFCURVE",
"74 490 OFFCURVE",
"88 521 OFFCURVE",
"99 532 OFFCURVE",
"120 544 OFFCURVE",
"132 544 QCURVE SMOOTH"
);
}
);
width = 462;
}
);
note = seven;
unicode = 0037;
},
{
glyphname = eight;
layers = (
{
layerId = "DDCC2651-E394-46D5-8079-7BA98592C969";
paths = (
{
closed = 1;
nodes = (
"191 36 OFFCURVE",
"138 107 OFFCURVE",
"138 158 QCURVE SMOOTH",
"138 253 OFFCURVE",
"192 286 QCURVE",
"193 286 OFFCURVE",
"196 286 QCURVE SMOOTH",
"200 286 OFFCURVE",
"206 282 QCURVE",
"207 282 OFFCURVE",
"210 280 QCURVE SMOOTH",
"320 206 OFFCURVE",
"320 136 QCURVE SMOOTH",
"320 92 OFFCURVE",
"271 36 OFFCURVE",
"230 36 QCURVE SMOOTH"
);
},
{
closed = 1;
nodes = (
"267 594 OFFCURVE",
"310 531 OFFCURVE",
"310 484 QCURVE SMOOTH",
"310 413 OFFCURVE",
"260 375 QCURVE",
"257 373 OFFCURVE",
"254 373 QCURVE SMOOTH",
"249 373 OFFCURVE",
"244 376 QCURVE",
"219 393 OFFCURVE",
"190 415 OFFCURVE",
"157 465 OFFCURVE",
"157 493 QCURVE SMOOTH",
"157 540 OFFCURVE",
"196 594 OFFCURVE",
"229 594 QCURVE SMOOTH"
);
},
{
closed = 1;
nodes = (
"162 638 OFFCURVE",
"55 547 OFFCURVE",
"55 483 QCURVE SMOOTH",
"55 453 OFFCURVE",
"74 401 OFFCURVE",
"108 361 OFFCURVE",
"136 337 OFFCURVE",
"154 324 QCURVE",
"157 322 OFFCURVE",
"157 318 OFFCURVE",
"155 316 QCURVE",
"135 305 OFFCURVE",
"120 295 OFFCURVE",
"75 260 OFFCURVE",
"53 231 OFFCURVE",
"32 182 OFFCURVE",
"32 156 QCURVE SMOOTH",
"32 78 OFFCURVE",
"142 -8 OFFCURVE",
"226 -8 QCURVE SMOOTH",
"306 -8 OFFCURVE",
"428 93 OFFCURVE",
"428 168 QCURVE SMOOTH",
"428 195 OFFCURVE",
"401 250 OFFCURVE",
"357 294 OFFCURVE",
"319 324 OFFCURVE",
"300 336 QCURVE",
"298 337 OFFCURVE",
"297 342 OFFCURVE",
"300 342 QCURVE",
"410 411 OFFCURVE",
"410 490 QCURVE SMOOTH",
"410 558 OFFCURVE",
"304 638 OFFCURVE",
"230 638 QCURVE SMOOTH"
);
}
);
width = 459;
}
);
note = eight;
unicode = 0038;
},
{
glyphname = nine;
layers = (
{
layerId = "DDCC2651-E394-46D5-8079-7BA98592C969";
paths = (
{
closed = 1;
nodes = (
"316 383 OFFCURVE",
"306 354 QCURVE SMOOTH",
"301 339 OFFCURVE",
"263 318 OFFCURVE",
"242 318 QCURVE SMOOTH",
"188 318 OFFCURVE",
"135 397 OFFCURVE",
"135 462 QCURVE SMOOTH",
"135 529 OFFCURVE",
"180 600 OFFCURVE",
"219 600 QCURVE SMOOTH",
"265 600 OFFCURVE",
"317 510 OFFCURVE",
"317 440 QCURVE SMOOTH"
);
},
{
closed = 1;
nodes = (
"147 646 OFFCURVE",
"27 528 OFFCURVE",
"27 449 QCURVE SMOOTH",
"27 375 OFFCURVE",
"133 267 OFFCURVE",
"209 267 QCURVE SMOOTH",
"230 267 OFFCURVE",
"281 282 OFFCURVE",
"291 290 QCURVE",
"292 291 OFFCURVE",
"293 291 QCURVE",
"298 288 OFFCURVE",
"294 276 QCURVE",
"269 191 OFFCURVE",
"137 59 OFFCURVE",
"57 26 QCURVE",
"57 19 OFFCURVE",
"69 -5 OFFCURVE",
"77 -6 QCURVE",
"139 18 OFFCURVE",
"258 99 OFFCURVE",
"363 209 OFFCURVE",
"427 356 OFFCURVE",
"427 435 QCURVE SMOOTH",
"427 524 OFFCURVE",
"310 646 OFFCURVE",
"227 646 QCURVE SMOOTH"
);
}
);
width = 454;
}
);
note = nine;
unicode = 0039;
},
{
glyphname = colon;
layers = (
{
layerId = "DDCC2651-E394-46D5-8079-7BA98592C969";
paths = (
{
closed = 1;
nodes = (
"69 431 OFFCURVE",
"29 392 OFFCURVE",
"29 338 OFFCURVE",
"69 296 OFFCURVE",
"97 296 QCURVE SMOOTH",
"124 296 OFFCURVE",
"163 338 OFFCURVE",
"163 392 OFFCURVE",
"124 431 OFFCURVE",
"97 431 QCURVE SMOOTH"
);
},
{
closed = 1;
nodes = (
"69 123 OFFCURVE",
"29 83 OFFCURVE",
"29 29 OFFCURVE",
"69 -12 OFFCURVE",
"97 -12 QCURVE SMOOTH",
"124 -12 OFFCURVE",
"163 29 OFFCURVE",
"163 83 OFFCURVE",
"124 123 OFFCURVE",
"97 123 QCURVE SMOOTH"
);
}
);
width = 190;
}
);
note = colon;
unicode = 003A;
},
{
glyphname = semicolon;
layers = (
{
layerId = "DDCC2651-E394-46D5-8079-7BA98592C969";
paths = (
{
closed = 1;
nodes = (
"90 -50 OFFCURVE",
"56 -107 OFFCURVE",
"22 -137 OFFCURVE",
"22 -138 QCURVE SMOOTH",
"22 -145 OFFCURVE",
"40 -166 OFFCURVE",
"45 -166 QCURVE SMOOTH",
"46 -166 LINE",
"104 -121 OFFCURVE",
"158 -48 OFFCURVE",
"174 8 QCURVE SMOOTH",
"182 36 OFFCURVE",
"182 56 QCURVE SMOOTH",
"182 98 OFFCURVE",
"168 126 QCURVE",
"158 132 OFFCURVE",
"136 132 QCURVE SMOOTH",
"102 132 OFFCURVE",
"60 90 OFFCURVE",
"60 69 QCURVE SMOOTH",
"60 51 OFFCURVE",
"90 0 OFFCURVE",
"90 -16 QCURVE SMOOTH"
);
},
{
closed = 1;
nodes = (
"94 431 OFFCURVE",
"54 392 OFFCURVE",
"54 338 OFFCURVE",
"94 296 OFFCURVE",
"122 296 QCURVE SMOOTH",
"149 296 OFFCURVE",
"188 338 OFFCURVE",
"188 392 OFFCURVE",
"149 431 OFFCURVE",
"122 431 QCURVE SMOOTH"
);
}
);
width = 215;
}
);
note = semicolon;
unicode = 003B;
},
{
glyphname = less;
layers = (
{
layerId = "DDCC2651-E394-46D5-8079-7BA98592C969";
paths = (
{
closed = 1;
nodes = (
"439 45 OFFCURVE",
"436 46 QCURVE",
"111 209 LINE",
"433 369 LINE",
"436 378 LINE",
"426 430 OFFCURVE",
"419 430 QCURVE SMOOTH",
"418 430 OFFCURVE",
"414 428 QCURVE SMOOTH",
"43 241 LINE SMOOTH",
"25 232 OFFCURVE",
"25 217 QCURVE SMOOTH",
"25 187 OFFCURVE",
"43 177 QCURVE",
"418 -13 LINE SMOOTH",
"422 -15 OFFCURVE",
"423 -15 QCURVE SMOOTH",
"427 -15 OFFCURVE",
"439 33 OFFCURVE",
"439 40 QCURVE SMOOTH"
);
}
);
width = 464;
}
);
note = less;
unicode = 003C;
},
{
glyphname = equal;
layers = (
{
layerId = "DDCC2651-E394-46D5-8079-7BA98592C969";
paths = (
{
closed = 1;
nodes = (
"499 177 OFFCURVE",
"491 177 QCURVE SMOOTH",
"47 177 LINE",
"46 177 LINE SMOOTH",
"44 177 OFFCURVE",
"41 175 OFFCURVE",
"40 172 QCURVE",
"31 141 OFFCURVE",
"31 123 QCURVE SMOOTH",
"31 113 OFFCURVE",
"38 113 QCURVE SMOOTH",
"483 113 LINE",
"484 113 LINE SMOOTH",
"485 113 OFFCURVE",
"488 116 OFFCURVE",
"489 119 QCURVE",
"499 156 OFFCURVE",
"499 172 QCURVE SMOOTH"
);
},
{
closed = 1;
nodes = (
"31 255 OFFCURVE",
"38 255 QCURVE SMOOTH",
"483 255 LINE",
"484 255 LINE SMOOTH",
"485 255 OFFCURVE",
"488 258 OFFCURVE",
"489 261 QCURVE",
"499 298 OFFCURVE",
"499 314 QCURVE SMOOTH",
"499 319 OFFCURVE",
"495 319 QCURVE SMOOTH",
"46 319 LINE SMOOTH",
"36 319 OFFCURVE",
"31 265 QCURVE"
);
}
);
width = 528;
}
);
note = equal;
unicode = 003D;
},
{
glyphname = greater;
layers = (
{
layerId = "DDCC2651-E394-46D5-8079-7BA98592C969";
paths = (
{
closed = 1;
nodes = (
"26 33 OFFCURVE",
"38 -15 OFFCURVE",
"42 -15 QCURVE SMOOTH",
"43 -15 OFFCURVE",
"47 -13 QCURVE SMOOTH",
"422 177 LINE",
"440 187 OFFCURVE",
"440 217 QCURVE SMOOTH",
"440 232 OFFCURVE",
"422 241 QCURVE SMOOTH",
"51 428 LINE SMOOTH",
"47 430 OFFCURVE",
"46 430 QCURVE SMOOTH",
"39 430 OFFCURVE",
"29 378 QCURVE",
"32 369 OFFCURVE",
"32 369 QCURVE",
"354 209 LINE",
"29 46 LINE",
"26 40 OFFCURVE",
"26 40 QCURVE"
);
}
);
width = 466;
}
);
note = greater;
unicode = 003E;
},
{
glyphname = question;
layers = (
{
layerId = "DDCC2651-E394-46D5-8079-7BA98592C969";
paths = (
{
closed = 1;
nodes = (
"57 644 OFFCURVE",
"31 632 QCURVE",
"25 612 OFFCURVE",
"25 594 QCURVE SMOOTH",
"25 571 OFFCURVE",
"61 541 OFFCURVE",
"85 541 QCURVE SMOOTH",
"100 541 OFFCURVE",
"150 551 OFFCURVE",
"165 551 QCURVE SMOOTH",
"194 551 OFFCURVE",
"236 511 OFFCURVE",
"236 482 QCURVE SMOOTH",
"236 461 OFFCURVE",
"209 425 OFFCURVE",
"178 405 OFFCURVE",
"132 381 OFFCURVE",
"125 376 QCURVE SMOOTH",
"91 353 OFFCURVE",
"68 312 OFFCURVE",
"68 262 QCURVE SMOOTH",
"68 176 OFFCURVE",
"82 176 QCURVE SMOOTH",
"101 176 OFFCURVE",
"108 187 QCURVE",
"110 192 OFFCURVE",
"110 234 OFFCURVE",
"113 242 QCURVE",
"114 247 OFFCURVE",
"120 255 OFFCURVE",
"131 264 OFFCURVE",
"141 271 OFFCURVE",
"158 281 OFFCURVE",
"168 286 OFFCURVE",
"189 296 OFFCURVE",
"193 298 QCURVE SMOOTH",
"249 326 OFFCURVE",
"303 396 OFFCURVE",
"303 460 QCURVE SMOOTH",
"303 542 OFFCURVE",
"166 644 OFFCURVE",
"76 644 QCURVE SMOOTH"
);
},
{
closed = 1;
nodes = (
"64 123 OFFCURVE",
"24 83 OFFCURVE",
"24 29 OFFCURVE",
"64 -12 OFFCURVE",
"92 -12 QCURVE SMOOTH",
"119 -12 OFFCURVE",
"158 29 OFFCURVE",
"158 83 OFFCURVE",
"119 123 OFFCURVE",
"92 123 QCURVE SMOOTH"
);
}
);
width = 326;
}
);
note = question;
unicode = 003F;
},
{
glyphname = at;
layers = (
{
layerId = "DDCC2651-E394-46D5-8079-7BA98592C969";
paths = (
{
closed = 1;
nodes = (
"698 189 OFFCURVE",
"689 135 OFFCURVE",
"667 71 OFFCURVE",
"617 30 OFFCURVE",
"582 30 QCURVE SMOOTH",
"538 30 OFFCURVE",
"539 106 QCURVE SMOOTH",
"539 114 OFFCURVE",
"541 134 QCURVE SMOOTH",
"564 348 LINE SMOOTH",
"566 369 OFFCURVE",
"571 401 QCURVE",
"476 410 LINE",
"349 410 OFFCURVE",
"196 248 OFFCURVE",
"196 141 QCURVE SMOOTH",
"196 85 OFFCURVE",
"257 -7 OFFCURVE",
"310 -7 QCURVE SMOOTH",
"351 -7 OFFCURVE",
"437 51 OFFCURVE",
"451 78 QCURVE",
"452 79 OFFCURVE",
"456 81 OFFCURVE",
"456 80 QCURVE SMOOTH",
"456 47 OFFCURVE",
"523 -13 OFFCURVE",
"572 -13 QCURVE SMOOTH",
"604 -13 OFFCURVE",
"664 11 OFFCURVE",
"720 63 OFFCURVE",
"754 164 OFFCURVE",
"754 233 QCURVE SMOOTH",
"754 293 OFFCURVE",
"709 414 OFFCURVE",
"628 514 OFFCURVE",
"504 577 OFFCURVE",
"432 577 QCURVE SMOOTH",
"259 577 OFFCURVE",
"27 365 OFFCURVE",
"27 185 QCURVE SMOOTH",
"27 124 OFFCURVE",
"80 -2 OFFCURVE",
"173 -105 OFFCURVE",
"311 -171 OFFCURVE",
"389 -171 QCURVE SMOOTH",
"449 -171 OFFCURVE",
"516 -138 OFFCURVE",
"516 -118 QCURVE SMOOTH",
"516 -117 OFFCURVE",
"514 -108 QCURVE",
"505 -112 LINE",
"496 -115 OFFCURVE",
"480 -121 OFFCURVE",
"454 -126 OFFCURVE",
"444 -126 QCURVE SMOOTH",
"265 -126 OFFCURVE",
"94 65 OFFCURVE",
"94 223 QCURVE SMOOTH",
"94 353 OFFCURVE",
"283 524 OFFCURVE",
"421 524 QCURVE SMOOTH",
"546 524 OFFCURVE",
"698 344 OFFCURVE",
"698 214 QCURVE SMOOTH"
);
},
{
closed = 1;
nodes = (
"472 328 OFFCURVE",
"470 322 QCURVE",
"456 176 LINE SMOOTH",
"454 152 OFFCURVE",
"374 53 OFFCURVE",
"338 53 QCURVE SMOOTH",
"290 53 OFFCURVE",
"290 143 QCURVE SMOOTH",
"290 242 OFFCURVE",
"376 359 OFFCURVE",
"430 359 QCURVE SMOOTH",
"448 359 OFFCURVE",
"468 351 OFFCURVE",
"472 342 OFFCURVE",
"472 334 QCURVE SMOOTH"
);
}
);
width = 781;
}
);
note = at;
unicode = 0040;
},
{
glyphname = A;
layers = (
{
layerId = "DDCC2651-E394-46D5-8079-7BA98592C969";
paths = (
{
closed = 1;
nodes = (
"386 665 OFFCURVE",
"379 665 QCURVE SMOOTH",
"370 665 OFFCURVE",
"362 658 QCURVE SMOOTH",
"348 646 OFFCURVE",
"325 586 QCURVE SMOOTH",
"139 136 LINE SMOOTH",
"120 88 OFFCURVE",
"101 58 QCURVE SMOOTH",
"94 47 OFFCURVE",
"41 30 OFFCURVE",
"29 30 QCURVE SMOOTH",
"27 30 OFFCURVE",
"27 12 QCURVE SMOOTH",
"27 1 OFFCURVE",
"31 -3 QCURVE",
"46 -2 OFFCURVE",
"117 3 OFFCURVE",
"169 3 OFFCURVE",
"253 -3 OFFCURVE",
"258 -3 QCURVE",
"260 3 OFFCURVE",
"260 29 OFFCURVE",
"257 30 QCURVE",
"249 30 OFFCURVE",
"204 40 OFFCURVE",
"195 46 QCURVE SMOOTH",
"184 53 OFFCURVE",
"184 79 OFFCURVE",
"203 131 QCURVE",
"241 224 LINE",
"241 228 OFFCURVE",
"247 228 QCURVE",
"307 231 OFFCURVE",
"415 231 OFFCURVE",
"447 229 QCURVE",
"450 229 OFFCURVE",
"454 225 QCURVE",
"489 132 LINE SMOOTH",
"508 83 OFFCURVE",
"508 63 QCURVE SMOOTH",
"508 56 OFFCURVE",
"505 50 QCURVE SMOOTH",
"501 42 OFFCURVE",
"459 30 OFFCURVE",
"447 30 QCURVE SMOOTH",
"443 30 OFFCURVE",
"443 1 OFFCURVE",
"447 -3 QCURVE",
"570 3 OFFCURVE",
"577 3 QCURVE SMOOTH",
"583 3 OFFCURVE",
"703 -3 QCURVE",
"705 0 OFFCURVE",
"705 12 QCURVE SMOOTH",
"705 30 OFFCURVE",
"701 30 QCURVE SMOOTH",
"689 30 OFFCURVE",
"637 48 OFFCURVE",
"631 63 QCURVE",
"616 96 OFFCURVE",
"601 136 QCURVE SMOOTH",
"391 660 LINE"
);
},
{
closed = 1;
nodes = (
"269 288 OFFCURVE",
"269 292 QCURVE",
"351 492 LINE",
"427 292 LINE",
"425 288 LINE",
"378 285 OFFCURVE",
"343 285 QCURVE SMOOTH",
"306 285 OFFCURVE",
"271 288 QCURVE"
);
}
);
width = 736;
}
);
note = A;
unicode = 0041;
},
{
glyphname = B;
layers = (
{
layerId = "DDCC2651-E394-46D5-8079-7BA98592C969";
paths = (
{
closed = 1;
nodes = (
"437 137 OFFCURVE",
"406 82 OFFCURVE",
"357 59 OFFCURVE",
"315 50 OFFCURVE",
"293 50 QCURVE SMOOTH",
"242 50 OFFCURVE",
"229 60 QCURVE",
"217 70 OFFCURVE",
"217 112 QCURVE SMOOTH",
"217 298 LINE SMOOTH",
"217 313 OFFCURVE",
"225 318 QCURVE",
"258 323 OFFCURVE",
"287 323 QCURVE SMOOTH",
"366 323 OFFCURVE",
"437 240 OFFCURVE",
"437 176 QCURVE SMOOTH"
);
},
{
closed = 1;
nodes = (
"104 73 OFFCURVE",
"97 52 QCURVE",
"93 43 OFFCURVE",
"43 30 OFFCURVE",
"30 30 QCURVE SMOOTH",
"27 30 OFFCURVE",
"27 13 QCURVE SMOOTH",
"27 0 OFFCURVE",
"30 -3 QCURVE",
"163 1 LINE",
"305 0 LINE SMOOTH",
"420 -1 OFFCURVE",
"559 101 OFFCURVE",
"559 187 QCURVE SMOOTH",
"559 255 OFFCURVE",
"468 348 OFFCURVE",
"431 354 QCURVE",
"427 357 OFFCURVE",
"435 360 QCURVE SMOOTH",
"448 365 OFFCURVE",
"485 390 OFFCURVE",
"527 452 OFFCURVE",
"527 488 QCURVE SMOOTH",
"527 534 OFFCURVE",
"484 604 OFFCURVE",
"416 641 OFFCURVE",
"344 659 OFFCURVE",
"308 659 QCURVE SMOOTH",
"283 659 OFFCURVE",
"213 658 OFFCURVE",
"162 658 QCURVE SMOOTH",
"95 658 OFFCURVE",
"29 661 QCURVE",
"25 657 OFFCURVE",
"25 643 QCURVE SMOOTH",
"25 628 OFFCURVE",
"29 628 QCURVE SMOOTH",
"44 628 OFFCURVE",
"94 614 OFFCURVE",
"97 603 QCURVE",
"104 581 OFFCURVE",
"104 521 QCURVE SMOOTH",
"104 143 LINE SMOOTH"
);
},
{
closed = 1;
nodes = (
"314 372 OFFCURVE",
"277 372 QCURVE SMOOTH",
"217 372 OFFCURVE",
"217 382 QCURVE SMOOTH",
"217 499 LINE",
"219 595 LINE SMOOTH",
"219 604 OFFCURVE",
"227 606 QCURVE",
"244 611 OFFCURVE",
"291 611 QCURVE SMOOTH",
"406 611 OFFCURVE",
"406 476 QCURVE SMOOTH",
"406 394 OFFCURVE",
"333 378 QCURVE"
);
}
);
width = 586;
}
);
note = B;
unicode = 0042;
},
{
glyphname = C;
layers = (
{
layerId = "DDCC2651-E394-46D5-8079-7BA98592C969";
paths = (
{
closed = 1;
nodes = (
"609 191 OFFCURVE",
"574 191 QCURVE SMOOTH",
"572 191 OFFCURVE",
"561 159 OFFCURVE",
"540 112 OFFCURVE",
"527 98 QCURVE SMOOTH",
"475 42 OFFCURVE",
"386 42 QCURVE SMOOTH",
"274 42 OFFCURVE",
"151 217 OFFCURVE",
"151 343 QCURVE SMOOTH",
"151 456 OFFCURVE",
"260 618 OFFCURVE",
"358 618 QCURVE SMOOTH",
"412 618 OFFCURVE",
"494 587 OFFCURVE",
"536 539 OFFCURVE",
"557 501 OFFCURVE",
"561 483 QCURVE",
"569 479 OFFCURVE",
"575 479 QCURVE SMOOTH",
"599 479 OFFCURVE",
"599 494 QCURVE SMOOTH",
"599 510 OFFCURVE",
"593 639 OFFCURVE",
"590 640 QCURVE",
"467 667 OFFCURVE",
"354 667 QCURVE SMOOTH",
"215 667 OFFCURVE",
"25 464 OFFCURVE",
"25 322 QCURVE SMOOTH",
"25 188 OFFCURVE",
"211 -6 OFFCURVE",
"343 -6 QCURVE SMOOTH",
"488 -6 OFFCURVE",
"575 36 QCURVE SMOOTH",
"583 40 OFFCURVE",
"613 169 OFFCURVE",
"613 182 QCURVE"
);
}
);
width = 639;
}
);
note = C;
unicode = 0043;
},
{
glyphname = D;
layers = (
{
layerId = "DDCC2651-E394-46D5-8079-7BA98592C969";
paths = (
{
closed = 1;
nodes = (
"95 658 OFFCURVE",
"29 661 QCURVE",
"25 657 OFFCURVE",
"25 643 QCURVE SMOOTH",
"25 628 OFFCURVE",
"29 628 QCURVE SMOOTH",
"44 628 OFFCURVE",
"94 614 OFFCURVE",
"97 603 QCURVE",
"104 581 OFFCURVE",
"104 521 QCURVE SMOOTH",
"104 143 LINE SMOOTH",
"104 73 OFFCURVE",
"97 52 QCURVE",
"93 43 OFFCURVE",
"43 30 OFFCURVE",
"30 30 QCURVE SMOOTH",
"27 30 OFFCURVE",
"27 13 QCURVE SMOOTH",
"27 0 OFFCURVE",
"30 -3 QCURVE",
"163 1 LINE SMOOTH",
"190 1 OFFCURVE",
"313 -3 OFFCURVE",
"334 -3 QCURVE SMOOTH",
"496 -3 OFFCURVE",
"681 192 OFFCURVE",
"681 336 QCURVE SMOOTH",
"681 466 OFFCURVE",
"498 658 OFFCURVE",
"335 658 QCURVE SMOOTH",
"162 658 OFFCURVE",
"162 658 QCURVE SMOOTH"
);
},
{
closed = 1;
nodes = (
"217 574 OFFCURVE",
"230 592 QCURVE SMOOTH",
"242 608 OFFCURVE",
"338 608 QCURVE SMOOTH",
"343 608 LINE SMOOTH",
"444 608 OFFCURVE",
"553 452 OFFCURVE",
"553 340 QCURVE SMOOTH",
"553 48 OFFCURVE",
"350 48 QCURVE SMOOTH",
"244 48 OFFCURVE",
"228 64 QCURVE",
"217 82 OFFCURVE",
"217 138 QCURVE SMOOTH",
"217 530 LINE SMOOTH"
);
}
);
width = 708;
}
);
note = D;
unicode = 0044;
},
{
glyphname = E;
layers = (
{
layerId = "DDCC2651-E394-46D5-8079-7BA98592C969";
paths = (
{
closed = 1;
nodes = (
"95 657 OFFCURVE",
"29 661 QCURVE",
"25 657 OFFCURVE",
"25 643 QCURVE SMOOTH",
"25 628 OFFCURVE",
"29 628 QCURVE SMOOTH",
"44 628 OFFCURVE",
"94 614 OFFCURVE",
"97 603 QCURVE",
"104 581 OFFCURVE",
"104 521 QCURVE SMOOTH",
"104 143 LINE SMOOTH",
"104 73 OFFCURVE",
"97 52 QCURVE",
"93 43 OFFCURVE",
"43 30 OFFCURVE",
"30 30 QCURVE SMOOTH",
"27 30 OFFCURVE",
"27 13 QCURVE SMOOTH",
"27 0 OFFCURVE",
"30 -3 QCURVE",
"163 1 LINE SMOOTH",
"214 3 OFFCURVE",
"465 -3 OFFCURVE",
"505 -3 QCURVE",
"507 12 OFFCURVE",
"521 60 OFFCURVE",
"533 93 OFFCURVE",
"556 157 OFFCURVE",
"559 166 QCURVE",
"553 172 OFFCURVE",
"531 172 QCURVE SMOOTH",
"518 172 OFFCURVE",
"517 166 QCURVE",
"506 132 OFFCURVE",
"466 78 OFFCURVE",
"450 70 QCURVE SMOOTH",
"409 49 OFFCURVE",
"331 49 QCURVE SMOOTH",
"294 49 LINE SMOOTH",
"231 49 OFFCURVE",
"226 62 QCURVE SMOOTH",
"217 88 OFFCURVE",
"217 143 QCURVE SMOOTH",
"217 298 LINE SMOOTH",
"217 306 OFFCURVE",
"289 306 QCURVE SMOOTH",
"368 306 OFFCURVE",
"381 298 QCURVE",
"388 293 OFFCURVE",
"391 291 OFFCURVE",
"402 265 OFFCURVE",
"409 238 QCURVE",
"412 230 OFFCURVE",
"425 230 QCURVE SMOOTH",
"440 230 OFFCURVE",
"444 234 QCURVE",
"444 423 LINE",
"439 428 OFFCURVE",
"425 428 QCURVE SMOOTH",
"410 428 OFFCURVE",
"409 421 QCURVE",
"406 411 OFFCURVE",
"403 396 QCURVE SMOOTH",
"397 366 OFFCURVE",
"375 356 OFFCURVE",
"317 356 QCURVE SMOOTH",
"314 356 OFFCURVE",
"313 356 QCURVE SMOOTH",
"261 356 LINE SMOOTH",
"217 356 OFFCURVE",
"217 362 QCURVE SMOOTH",
"217 519 LINE SMOOTH",
"217 572 OFFCURVE",
"223 600 QCURVE",
"225 613 OFFCURVE",
"299 613 QCURVE SMOOTH",
"351 613 LINE SMOOTH",
"446 613 OFFCURVE",
"479 524 QCURVE",
"482 517 OFFCURVE",
"493 517 QCURVE SMOOTH",
"509 517 OFFCURVE",
"514 522 QCURVE",
"513 527 OFFCURVE",
"489 634 OFFCURVE",
"485 664 QCURVE",
"428 664 OFFCURVE",
"206 657 OFFCURVE",
"162 657 QCURVE SMOOTH"
);
}
);
width = 584;
}
);
note = E;
unicode = 0045;
},
{
glyphname = F;
layers = (
{
layerId = "DDCC2651-E394-46D5-8079-7BA98592C969";
paths = (
{
closed = 1;
nodes = (
"189 3 OFFCURVE",
"309 -3 QCURVE",
"312 1 OFFCURVE",
"312 13 QCURVE SMOOTH",
"312 30 OFFCURVE",
"307 30 QCURVE SMOOTH",
"296 30 OFFCURVE",
"232 48 OFFCURVE",
"228 58 QCURVE SMOOTH",
"217 87 OFFCURVE",
"217 141 QCURVE SMOOTH",
"217 298 LINE SMOOTH",
"217 306 OFFCURVE",
"288 306 QCURVE SMOOTH",
"367 306 OFFCURVE",
"380 298 QCURVE",
"387 293 OFFCURVE",
"390 291 OFFCURVE",
"401 265 OFFCURVE",
"408 238 QCURVE",
"411 230 OFFCURVE",
"424 230 QCURVE SMOOTH",
"439 230 OFFCURVE",
"443 234 QCURVE",
"443 423 LINE",
"438 428 OFFCURVE",
"424 428 QCURVE SMOOTH",
"409 428 OFFCURVE",
"408 421 QCURVE",
"405 411 OFFCURVE",
"402 396 QCURVE SMOOTH",
"396 366 OFFCURVE",
"374 356 OFFCURVE",
"316 356 QCURVE SMOOTH",
"313 356 OFFCURVE",
"312 356 QCURVE SMOOTH",
"261 356 LINE SMOOTH",
"217 356 OFFCURVE",
"217 362 QCURVE SMOOTH",
"217 519 LINE SMOOTH",
"217 576 OFFCURVE",
"222 600 QCURVE",
"224 613 OFFCURVE",
"298 613 QCURVE SMOOTH",
"350 613 LINE SMOOTH",
"445 613 OFFCURVE",
"478 524 QCURVE",
"481 517 OFFCURVE",
"492 517 QCURVE SMOOTH",
"508 517 OFFCURVE",
"513 522 QCURVE",
"512 527 OFFCURVE",
"488 634 OFFCURVE",
"484 664 QCURVE",
"431 664 OFFCURVE",
"208 656 OFFCURVE",
"161 657 QCURVE SMOOTH",
"94 657 OFFCURVE",
"29 661 QCURVE",
"25 657 OFFCURVE",
"25 643 QCURVE SMOOTH",
"25 628 OFFCURVE",
"29 628 QCURVE SMOOTH",
"44 628 OFFCURVE",
"94 614 OFFCURVE",
"97 603 QCURVE",
"104 581 OFFCURVE",
"104 521 QCURVE SMOOTH",
"104 143 LINE SMOOTH",
"104 73 OFFCURVE",
"97 52 QCURVE",
"93 43 OFFCURVE",
"43 30 OFFCURVE",
"30 30 QCURVE SMOOTH",
"27 30 OFFCURVE",
"27 13 QCURVE SMOOTH",
"27 0 OFFCURVE",
"30 -3 QCURVE",
"50 -2 LINE",
"69 0 OFFCURVE",
"137 3 OFFCURVE",
"167 3 QCURVE SMOOTH"
);
}
);
width = 538;
}
);
note = F;
unicode = 0046;
},
{
glyphname = G;
layers = (
{
layerId = "DDCC2651-E394-46D5-8079-7BA98592C969";
paths = (
{
closed = 1;
nodes = (
"25 188 OFFCURVE",
"210 -8 OFFCURVE",
"342 -8 QCURVE SMOOTH",
"407 -8 OFFCURVE",
"514 12 OFFCURVE",
"552 26 OFFCURVE",
"592 44 QCURVE SMOOTH",
"614 54 OFFCURVE",
"614 68 QCURVE SMOOTH",
"614 70 OFFCURVE",
"604 96 OFFCURVE",
"604 114 QCURVE SMOOTH",
"604 116 OFFCURVE",
"603 158 OFFCURVE",
"603 179 QCURVE SMOOTH",
"603 244 OFFCURVE",
"616 252 QCURVE",
"625 256 OFFCURVE",
"666 268 OFFCURVE",
"672 268 QCURVE SMOOTH",
"676 268 OFFCURVE",
"676 285 QCURVE SMOOTH",
"676 293 OFFCURVE",
"673 302 QCURVE",
"553 296 OFFCURVE",
"552 296 QCURVE SMOOTH",
"522 296 OFFCURVE",
"423 302 OFFCURVE",
"412 302 QCURVE",
"408 298 OFFCURVE",
"408 269 OFFCURVE",
"412 269 QCURVE SMOOTH",
"429 269 OFFCURVE",
"480 257 OFFCURVE",
"484 244 QCURVE SMOOTH",
"491 223 OFFCURVE",
"491 163 QCURVE SMOOTH",
"491 156 LINE",
"492 84 LINE SMOOTH",
"492 68 OFFCURVE",
"482 61 QCURVE",
"449 42 OFFCURVE",
"386 42 QCURVE SMOOTH",
"312 42 OFFCURVE",
"201 135 OFFCURVE",
"150 268 OFFCURVE",
"150 340 QCURVE SMOOTH",
"150 462 OFFCURVE",
"260 618 OFFCURVE",
"358 618 QCURVE SMOOTH",
"403 618 OFFCURVE",
"474 595 OFFCURVE",
"515 565 OFFCURVE",
"544 522 OFFCURVE",
"555 494 OFFCURVE",
"558 480 QCURVE",
"566 474 OFFCURVE",
"580 474 QCURVE SMOOTH",
"600 474 OFFCURVE",
"600 498 OFFCURVE",
"589 629 OFFCURVE",
"586 630 QCURVE",
"442 667 OFFCURVE",
"354 667 QCURVE SMOOTH",
"217 667 OFFCURVE",
"25 463 OFFCURVE",
"25 322 QCURVE SMOOTH"
);
}
);
width = 702;
}
);
note = G;
unicode = 0047;
},
{
glyphname = H;
layers = (
{
layerId = "DDCC2651-E394-46D5-8079-7BA98592C969";
paths = (
{
closed = 1;
nodes = (
"664 30 OFFCURVE",
"613 45 OFFCURVE",
"611 52 QCURVE SMOOTH",
"602 87 OFFCURVE",
"602 142 QCURVE SMOOTH",
"602 518 LINE SMOOTH",
"602 575 OFFCURVE",
"610 606 QCURVE SMOOTH",
"612 613 OFFCURVE",
"666 629 OFFCURVE",
"675 629 QCURVE SMOOTH",
"679 629 OFFCURVE",
"679 646 QCURVE SMOOTH",
"679 653 OFFCURVE",
"676 662 QCURVE",
"556 656 OFFCURVE",
"548 656 QCURVE SMOOTH",
"521 656 OFFCURVE",
"420 662 OFFCURVE",
"415 662 QCURVE",
"413 660 OFFCURVE",
"413 644 QCURVE SMOOTH",
"413 629 OFFCURVE",
"417 629 QCURVE SMOOTH",
"429 629 OFFCURVE",
"477 614 OFFCURVE",
"481 606 QCURVE",
"489 582 OFFCURVE",
"489 522 QCURVE SMOOTH",
"489 373 LINE SMOOTH",
"489 371 OFFCURVE",
"487 369 QCURVE",
"397 367 OFFCURVE",
"355 367 QCURVE SMOOTH",
"317 367 OFFCURVE",
"219 369 QCURVE",
"217 372 LINE",
"217 518 LINE SMOOTH",
"217 575 OFFCURVE",
"225 606 QCURVE SMOOTH",
"227 613 OFFCURVE",
"281 629 OFFCURVE",
"290 629 QCURVE SMOOTH",
"294 629 OFFCURVE",
"294 646 QCURVE SMOOTH",
"294 653 OFFCURVE",
"291 662 QCURVE",
"171 656 OFFCURVE",
"163 656 QCURVE SMOOTH",
"136 656 OFFCURVE",
"35 662 OFFCURVE",
"30 662 QCURVE",
"28 660 OFFCURVE",
"28 644 QCURVE SMOOTH",
"28 629 OFFCURVE",
"32 629 QCURVE SMOOTH",
"44 629 OFFCURVE",
"92 614 OFFCURVE",
"96 606 QCURVE",
"104 582 OFFCURVE",
"104 522 QCURVE SMOOTH",
"104 136 LINE SMOOTH",
"104 83 OFFCURVE",
"96 52 QCURVE",
"93 44 OFFCURVE",
"42 30 OFFCURVE",
"30 30 QCURVE SMOOTH",
"26 30 OFFCURVE",
"26 11 QCURVE SMOOTH",
"26 1 OFFCURVE",
"30 -3 QCURVE",
"46 -2 OFFCURVE",
"99 1 OFFCURVE",
"143 3 OFFCURVE",
"163 3 QCURVE SMOOTH",
"170 3 OFFCURVE",
"290 -3 QCURVE",
"292 3 OFFCURVE",
"292 11 QCURVE SMOOTH",
"292 30 OFFCURVE",
"288 30 QCURVE SMOOTH",
"279 30 OFFCURVE",
"228 45 OFFCURVE",
"226 52 QCURVE SMOOTH",
"217 87 OFFCURVE",
"217 142 QCURVE SMOOTH",
"217 309 LINE SMOOTH",
"217 312 OFFCURVE",
"355 314 QCURVE SMOOTH",
"393 314 OFFCURVE",
"487 312 QCURVE",
"489 308 LINE",
"489 136 LINE SMOOTH",
"489 83 OFFCURVE",
"481 52 QCURVE",
"478 44 OFFCURVE",
"427 30 OFFCURVE",
"415 30 QCURVE SMOOTH",
"411 30 OFFCURVE",
"411 11 QCURVE SMOOTH",
"411 1 OFFCURVE",
"415 -3 QCURVE",
"431 -2 OFFCURVE",
"484 1 OFFCURVE",
"528 3 OFFCURVE",
"548 3 QCURVE SMOOTH",
"555 3 OFFCURVE",
"675 -3 QCURVE",
"677 3 OFFCURVE",
"677 11 QCURVE SMOOTH",
"677 30 OFFCURVE",
"673 30 QCURVE SMOOTH"
);
}
);
width = 708;
}
);
note = H;
unicode = 0048;
},
{
glyphname = I;
layers = (
{
layerId = "DDCC2651-E394-46D5-8079-7BA98592C969";
paths = (
{
closed = 1;
nodes = (
"104 136 LINE SMOOTH",
"104 83 OFFCURVE",
"96 52 QCURVE",
"93 44 OFFCURVE",
"42 30 OFFCURVE",
"30 30 QCURVE SMOOTH",
"26 30 OFFCURVE",
"26 11 QCURVE SMOOTH",
"26 1 OFFCURVE",
"30 -3 QCURVE",
"46 -2 OFFCURVE",
"99 1 OFFCURVE",
"143 3 OFFCURVE",
"163 3 QCURVE SMOOTH",
"170 3 OFFCURVE",
"290 -3 QCURVE",
"292 3 OFFCURVE",
"292 11 QCURVE SMOOTH",
"292 30 OFFCURVE",
"288 30 QCURVE SMOOTH",
"279 30 OFFCURVE",
"228 45 OFFCURVE",
"226 52 QCURVE SMOOTH",
"217 87 OFFCURVE",
"217 142 QCURVE SMOOTH",
"217 518 LINE SMOOTH",
"217 575 OFFCURVE",
"225 606 QCURVE SMOOTH",
"227 613 OFFCURVE",
"281 629 OFFCURVE",
"290 629 QCURVE SMOOTH",
"294 629 OFFCURVE",
"294 646 QCURVE SMOOTH",
"294 653 OFFCURVE",
"291 662 QCURVE",
"171 656 OFFCURVE",
"163 656 QCURVE SMOOTH",
"136 656 OFFCURVE",
"35 662 OFFCURVE",
"30 662 QCURVE",
"28 660 OFFCURVE",
"28 644 QCURVE SMOOTH",
"28 629 OFFCURVE",
"32 629 QCURVE SMOOTH",
"44 629 OFFCURVE",
"92 614 OFFCURVE",
"96 606 QCURVE",
"104 582 OFFCURVE",
"104 522 QCURVE SMOOTH"
);
}
);
width = 323;
}
);
note = I;
unicode = 0049;
},
{
glyphname = J;
layers = (
{
layerId = "DDCC2651-E394-46D5-8079-7BA98592C969";
paths = (
{
closed = 1;
nodes = (
"364 575 OFFCURVE",
"372 606 QCURVE SMOOTH",
"374 613 OFFCURVE",
"427 629 OFFCURVE",
"436 629 QCURVE SMOOTH",
"440 629 OFFCURVE",
"440 646 QCURVE SMOOTH",
"440 653 OFFCURVE",
"437 662 QCURVE",
"317 656 OFFCURVE",
"310 656 QCURVE SMOOTH",
"290 656 OFFCURVE",
"244 658 OFFCURVE",
"188 661 OFFCURVE",
"173 662 QCURVE",
"171 660 OFFCURVE",
"171 644 QCURVE SMOOTH",
"171 629 OFFCURVE",
"175 629 QCURVE SMOOTH",
"191 629 OFFCURVE",
"240 618 OFFCURVE",
"243 606 QCURVE SMOOTH",
"250 580 OFFCURVE",
"250 524 QCURVE SMOOTH",
"250 106 LINE SMOOTH",
"250 -21 OFFCURVE",
"207 -158 OFFCURVE",
"170 -158 QCURVE SMOOTH",
"156 -158 OFFCURVE",
"107 -106 OFFCURVE",
"86 -106 QCURVE SMOOTH",
"61 -106 OFFCURVE",
"23 -138 OFFCURVE",
"23 -161 QCURVE SMOOTH",
"23 -189 OFFCURVE",
"36 -206 QCURVE",
"40 -210 OFFCURVE",
"76 -222 OFFCURVE",
"91 -222 QCURVE SMOOTH",
"214 -222 OFFCURVE",
"364 -34 OFFCURVE",
"364 114 QCURVE SMOOTH",
"364 518 LINE SMOOTH"
);
}
);
width = 466;
}
);
note = J;
unicode = 004A;
},
{
glyphname = K;
layers = (
{
layerId = "DDCC2651-E394-46D5-8079-7BA98592C969";
paths = (
{
closed = 1;
nodes = (
"217 575 OFFCURVE",
"225 606 QCURVE SMOOTH",
"227 613 OFFCURVE",
"281 629 OFFCURVE",
"290 629 QCURVE SMOOTH",
"294 629 OFFCURVE",
"294 646 QCURVE SMOOTH",
"294 653 OFFCURVE",
"291 662 QCURVE",
"171 656 OFFCURVE",
"163 656 QCURVE SMOOTH",
"136 656 OFFCURVE",
"35 662 OFFCURVE",
"30 662 QCURVE",
"28 660 OFFCURVE",
"28 644 QCURVE SMOOTH",
"28 629 OFFCURVE",
"32 629 QCURVE SMOOTH",
"44 629 OFFCURVE",
"92 614 OFFCURVE",
"96 606 QCURVE",
"104 582 OFFCURVE",
"104 522 QCURVE SMOOTH",
"104 136 LINE SMOOTH",
"104 83 OFFCURVE",
"96 52 QCURVE",
"93 44 OFFCURVE",
"42 30 OFFCURVE",
"30 30 QCURVE SMOOTH",
"26 30 OFFCURVE",
"26 11 QCURVE SMOOTH",
"26 1 OFFCURVE",
"30 -3 QCURVE",
"46 -2 OFFCURVE",
"99 1 OFFCURVE",
"143 3 OFFCURVE",
"163 3 QCURVE SMOOTH",
"170 3 OFFCURVE",
"290 -3 QCURVE",
"292 3 OFFCURVE",
"292 11 QCURVE SMOOTH",
"292 30 OFFCURVE",
"288 30 QCURVE SMOOTH",
"279 30 OFFCURVE",
"228 45 OFFCURVE",
"226 52 QCURVE SMOOTH",
"217 87 OFFCURVE",
"217 140 QCURVE SMOOTH",
"217 288 LINE SMOOTH",
"217 300 OFFCURVE",
"233 300 QCURVE SMOOTH",
"251 300 OFFCURVE",
"255 296 QCURVE SMOOTH",
"303 246 OFFCURVE",
"401 131 OFFCURVE",
"457 57 OFFCURVE",
"457 52 QCURVE SMOOTH",
"457 44 OFFCURVE",
"423 30 OFFCURVE",
"412 30 QCURVE SMOOTH",
"408 30 OFFCURVE",
"408 1 OFFCURVE",
"412 -3 QCURVE",
"430 -2 OFFCURVE",
"519 3 OFFCURVE",
"551 3 QCURVE SMOOTH",
"568 3 OFFCURVE",
"688 -3 QCURVE",
"691 3 OFFCURVE",
"691 11 QCURVE SMOOTH",
"691 30 OFFCURVE",
"686 30 QCURVE SMOOTH",
"672 30 OFFCURVE",
"611 50 OFFCURVE",
"593 72 QCURVE SMOOTH",
"359 350 LINE SMOOTH",
"346 365 OFFCURVE",
"357 378 QCURVE SMOOTH",
"543 590 LINE SMOOTH",
"574 624 OFFCURVE",
"644 632 QCURVE",
"647 632 OFFCURVE",
"648 658 OFFCURVE",
"646 662 QCURVE",
"632 661 OFFCURVE",
"589 658 OFFCURVE",
"552 656 OFFCURVE",
"533 656 QCURVE SMOOTH",
"523 656 OFFCURVE",
"412 662 QCURVE",
"410 655 OFFCURVE",
"412 632 OFFCURVE",
"416 632 QCURVE SMOOTH",
"431 632 OFFCURVE",
"475 624 OFFCURVE",
"475 614 QCURVE SMOOTH",
"475 603 OFFCURVE",
"459 584 QCURVE SMOOTH",
"363 470 OFFCURVE",
"283 384 QCURVE SMOOTH",
"252 350 OFFCURVE",
"231 350 QCURVE SMOOTH",
"223 350 LINE",
"222 350 LINE",
"220 351 OFFCURVE",
"217 354 OFFCURVE",
"217 357 QCURVE SMOOTH",
"217 518 LINE SMOOTH"
);
}
);
width = 722;
}
);
note = K;
unicode = 004B;
},
{
glyphname = L;
layers = (
{
layerId = "DDCC2651-E394-46D5-8079-7BA98592C969";
paths = (
{
closed = 1;
nodes = (
"217 575 OFFCURVE",
"225 606 QCURVE SMOOTH",
"227 613 OFFCURVE",
"281 629 OFFCURVE",
"290 629 QCURVE SMOOTH",
"294 629 OFFCURVE",
"294 646 QCURVE SMOOTH",
"294 653 OFFCURVE",
"291 662 QCURVE",
"171 656 OFFCURVE",
"163 656 QCURVE SMOOTH",
"136 656 OFFCURVE",
"35 662 OFFCURVE",
"30 662 QCURVE",
"28 660 OFFCURVE",
"28 644 QCURVE SMOOTH",
"28 629 OFFCURVE",
"32 629 QCURVE SMOOTH",
"44 629 OFFCURVE",
"92 614 OFFCURVE",
"96 606 QCURVE",
"104 582 OFFCURVE",
"104 521 QCURVE SMOOTH",
"104 143 LINE SMOOTH",
"104 73 OFFCURVE",
"97 52 QCURVE",
"93 43 OFFCURVE",
"43 30 OFFCURVE",
"30 30 QCURVE SMOOTH",
"27 30 OFFCURVE",
"27 13 QCURVE SMOOTH",
"27 0 OFFCURVE",
"30 -3 QCURVE",
"163 1 LINE SMOOTH",
"214 3 OFFCURVE",
"465 -3 OFFCURVE",
"505 -3 QCURVE",
"507 12 OFFCURVE",
"521 60 OFFCURVE",
"533 93 OFFCURVE",
"556 157 OFFCURVE",
"559 166 QCURVE",
"553 172 OFFCURVE",
"531 172 QCURVE SMOOTH",
"518 172 OFFCURVE",
"517 166 QCURVE",
"506 132 OFFCURVE",
"466 78 OFFCURVE",
"450 70 QCURVE SMOOTH",
"409 49 OFFCURVE",
"331 49 QCURVE SMOOTH",
"294 49 LINE SMOOTH",
"231 49 OFFCURVE",
"226 62 QCURVE",
"217 93 OFFCURVE",
"217 142 QCURVE SMOOTH",
"217 518 LINE SMOOTH"
);
}
);
width = 584;
}
);
note = L;
unicode = 004C;
},
{
glyphname = M;
layers = (
{
layerId = "DDCC2651-E394-46D5-8079-7BA98592C969";
paths = (
{
closed = 1;
nodes = (
"152 656 OFFCURVE",
"79 661 OFFCURVE",
"64 662 QCURVE",
"60 658 OFFCURVE",
"60 647 QCURVE SMOOTH",
"60 630 OFFCURVE",
"64 630 QCURVE SMOOTH",
"77 630 OFFCURVE",
"138 616 OFFCURVE",
"141 608 QCURVE",
"144 599 OFFCURVE",
"144 580 QCURVE SMOOTH",
"144 562 OFFCURVE",
"139 416 OFFCURVE",
"132 209 OFFCURVE",
"130 133 QCURVE SMOOTH",
"128 84 OFFCURVE",
"119 66 QCURVE",
"114 50 OFFCURVE",
"46 30 OFFCURVE",
"30 30 QCURVE SMOOTH",
"26 30 OFFCURVE",
"26 13 QCURVE SMOOTH",
"26 1 OFFCURVE",
"30 -3 QCURVE",
"40 -3 OFFCURVE",
"129 3 OFFCURVE",
"156 3 QCURVE SMOOTH",
"162 3 OFFCURVE",
"282 -3 QCURVE",
"284 3 OFFCURVE",
"284 12 QCURVE SMOOTH",
"284 30 OFFCURVE",
"280 30 QCURVE SMOOTH",
"268 30 OFFCURVE",
"198 50 OFFCURVE",
"193 61 QCURVE",
"190 70 OFFCURVE",
"190 92 QCURVE",
"199 289 OFFCURVE",
"206 538 QCURVE",
"430 0 LINE",
"436 -2 OFFCURVE",
"440 -2 QCURVE SMOOTH",
"461 -2 OFFCURVE",
"478 36 QCURVE SMOOTH",
"669 502 LINE",
"671 508 OFFCURVE",
"674 508 QCURVE SMOOTH",
"682 508 OFFCURVE",
"686 446 QCURVE SMOOTH",
"696 142 LINE",
"696 86 LINE SMOOTH",
"696 64 OFFCURVE",
"686 51 QCURVE",
"679 43 OFFCURVE",
"637 30 OFFCURVE",
"626 30 QCURVE SMOOTH",
"622 30 OFFCURVE",
"622 12 QCURVE SMOOTH",
"622 1 OFFCURVE",
"626 -3 QCURVE",
"642 -2 OFFCURVE",
"695 1 OFFCURVE",
"739 3 OFFCURVE",
"759 3 QCURVE SMOOTH",
"762 3 OFFCURVE",
"882 -3 QCURVE",
"884 3 OFFCURVE",
"884 12 QCURVE SMOOTH",
"884 30 OFFCURVE",
"880 30 QCURVE SMOOTH",
"870 30 OFFCURVE",
"822 45 OFFCURVE",
"818 54 QCURVE",
"803 92 OFFCURVE",
"802 146 QCURVE SMOOTH",
"792 470 OFFCURVE",
"788 559 QCURVE SMOOTH",
"786 602 OFFCURVE",
"801 613 QCURVE SMOOTH",
"823 629 OFFCURVE",
"850 629 QCURVE SMOOTH",
"852 629 LINE SMOOTH",
"856 629 OFFCURVE",
"856 646 QCURVE SMOOTH",
"856 658 OFFCURVE",
"853 662 QCURVE",
"773 657 OFFCURVE",
"734 657 QCURVE SMOOTH",
"682 657 OFFCURVE",
"652 660 QCURVE",
"616 544 LINE",
"564 408 OFFCURVE",
"476 197 QCURVE",
"476 194 OFFCURVE",
"470 194 OFFCURVE",
"470 196 QCURVE",
"442 266 OFFCURVE",
"349 483 OFFCURVE",
"285 634 OFFCURVE",
"276 662 QCURVE",
"183 656 OFFCURVE",
"178 656 QCURVE SMOOTH"
);
}
);
width = 913;
}
);
note = M;
unicode = 004D;
},
{
glyphname = N;
layers = (
{
layerId = "DDCC2651-E394-46D5-8079-7BA98592C969";
paths = (
{
closed = 1;
nodes = (
"571 251 LINE SMOOTH",
"571 222 OFFCURVE",
"569 210 QCURVE",
"537 254 OFFCURVE",
"361 485 OFFCURVE",
"260 626 OFFCURVE",
"241 662 QCURVE",
"184 657 OFFCURVE",
"151 657 QCURVE SMOOTH",
"137 657 OFFCURVE",
"32 662 QCURVE",
"28 658 OFFCURVE",
"29 628 OFFCURVE",
"33 628 QCURVE SMOOTH",
"47 628 OFFCURVE",
"108 616 OFFCURVE",
"112 609 QCURVE SMOOTH",
"123 590 OFFCURVE",
"123 536 QCURVE SMOOTH",
"123 144 LINE SMOOTH",
"123 81 OFFCURVE",
"113 60 QCURVE",
"105 45 OFFCURVE",
"48 30 OFFCURVE",
"31 30 QCURVE SMOOTH",
"27 30 OFFCURVE",
"27 14 QCURVE SMOOTH",
"27 1 OFFCURVE",
"31 -3 QCURVE",
"44 -2 OFFCURVE",
"123 3 OFFCURVE",
"150 3 QCURVE SMOOTH",
"155 3 OFFCURVE",
"275 -3 QCURVE",
"277 2 OFFCURVE",
"276 30 OFFCURVE",
"273 30 QCURVE SMOOTH",
"260 30 OFFCURVE",
"196 47 OFFCURVE",
"191 59 QCURVE",
"183 81 OFFCURVE",
"183 141 QCURVE SMOOTH",
"183 546 LINE",
"581 18 LINE",
"597 -5 OFFCURVE",
"613 -5 QCURVE SMOOTH",
"631 -5 OFFCURVE",
"635 -1 QCURVE",
"631 103 OFFCURVE",
"631 139 QCURVE SMOOTH",
"631 518 LINE SMOOTH",
"631 574 OFFCURVE",
"642 601 QCURVE",
"651 614 OFFCURVE",
"709 629 OFFCURVE",
"723 629 QCURVE SMOOTH",
"727 629 OFFCURVE",
"727 646 QCURVE SMOOTH",
"727 658 OFFCURVE",
"725 662 QCURVE",
"715 662 OFFCURVE",
"633 655 OFFCURVE",
"607 655 QCURVE SMOOTH",
"588 655 OFFCURVE",
"481 662 QCURVE",
"478 658 OFFCURVE",
"479 629 OFFCURVE",
"483 629 QCURVE SMOOTH",
"499 629 OFFCURVE",
"556 615 OFFCURVE",
"561 603 QCURVE",
"571 576 OFFCURVE",
"571 523 QCURVE SMOOTH"
);
}
);
width = 753;
}
);
note = N;
unicode = 004E;
},
{
glyphname = O;
layers = (
{
layerId = "DDCC2651-E394-46D5-8079-7BA98592C969";
paths = (
{
closed = 1;
nodes = (
"401 618 OFFCURVE",
"499 521 OFFCURVE",
"539 386 OFFCURVE",
"539 309 QCURVE SMOOTH",
"539 199 OFFCURVE",
"446 40 OFFCURVE",
"361 40 QCURVE SMOOTH",
"292 40 OFFCURVE",
"194 139 OFFCURVE",
"153 275 OFFCURVE",
"153 350 QCURVE SMOOTH",
"153 461 OFFCURVE",
"244 618 OFFCURVE",
"330 618 QCURVE SMOOTH"
);
},
{
closed = 1;
nodes = (
"477 -10 OFFCURVE",
"666 188 OFFCURVE",
"666 468 OFFCURVE",
"477 667 OFFCURVE",
"213 667 OFFCURVE",
"25 468 OFFCURVE",
"25 188 OFFCURVE",
"213 -10 OFFCURVE"
);
}
);
width = 693;
}
);
note = O;
unicode = 004F;
},
{
glyphname = P;
layers = (
{
layerId = "DDCC2651-E394-46D5-8079-7BA98592C969";
paths = (
{
closed = 1;
nodes = (
"135 658 OFFCURVE",
"30 661 QCURVE",
"26 658 OFFCURVE",
"26 643 QCURVE SMOOTH",
"26 628 OFFCURVE",
"30 628 QCURVE SMOOTH",
"42 628 OFFCURVE",
"95 611 OFFCURVE",
"98 603 QCURVE",
"104 578 OFFCURVE",
"104 521 QCURVE SMOOTH",
"104 143 LINE SMOOTH",
"104 70 OFFCURVE",
"98 52 QCURVE",
"94 43 OFFCURVE",
"43 30 OFFCURVE",
"30 30 QCURVE SMOOTH",
"27 30 OFFCURVE",
"27 14 QCURVE SMOOTH",
"27 0 OFFCURVE",
"30 -4 QCURVE",
"50 -2 LINE",
"70 -1 OFFCURVE",
"137 2 OFFCURVE",
"164 2 QCURVE SMOOTH",
"196 2 OFFCURVE",
"306 -4 QCURVE",
"308 2 OFFCURVE",
"308 13 QCURVE SMOOTH",
"308 30 OFFCURVE",
"304 30 QCURVE SMOOTH",
"290 30 OFFCURVE",
"229 45 OFFCURVE",
"226 57 QCURVE",
"218 82 OFFCURVE",
"218 142 QCURVE SMOOTH",
"218 499 LINE SMOOTH",
"218 597 OFFCURVE",
"230 603 QCURVE",
"246 610 OFFCURVE",
"288 610 QCURVE SMOOTH",
"344 610 OFFCURVE",
"398 532 OFFCURVE",
"398 465 QCURVE SMOOTH",
"398 405 OFFCURVE",
"342 326 OFFCURVE",
"294 326 QCURVE SMOOTH",
"261 326 OFFCURVE",
"238 336 QCURVE",
"236 336 OFFCURVE",
"234 322 OFFCURVE",
"237 306 OFFCURVE",
"239 304 QCURVE",
"247 293 OFFCURVE",
"289 278 OFFCURVE",
"310 278 QCURVE SMOOTH",
"372 278 OFFCURVE",
"471 341 OFFCURVE",
"520 431 OFFCURVE",
"520 478 QCURVE SMOOTH",
"520 517 OFFCURVE",
"491 581 OFFCURVE",
"446 622 OFFCURVE",
"387 650 OFFCURVE",
"328 661 OFFCURVE",
"298 661 QCURVE SMOOTH",
"268 661 OFFCURVE",
"192 658 OFFCURVE",
"163 658 QCURVE SMOOTH"
);
}
);
width = 546;
}
);
note = P;
unicode = 0050;
},
{
glyphname = Q;
layers = (
{
layerId = "DDCC2651-E394-46D5-8079-7BA98592C969";
paths = (
{
closed = 1;
nodes = (
"382 614 OFFCURVE",
"466 560 OFFCURVE",
"515 470 OFFCURVE",
"539 366 OFFCURVE",
"539 309 QCURVE SMOOTH",
"539 199 OFFCURVE",
"445 42 OFFCURVE",
"360 42 QCURVE SMOOTH",
"290 42 OFFCURVE",
"191 140 OFFCURVE",
"149 276 OFFCURVE",
"149 350 QCURVE SMOOTH",
"149 459 OFFCURVE",
"242 614 OFFCURVE",
"328 614 QCURVE SMOOTH"
);
},
{
closed = 1;
nodes = (
"630 -79 OFFCURVE",
"570 -64 OFFCURVE",
"534 -46 OFFCURVE",
"466 -8 OFFCURVE",
"440 5 QCURVE",
"474 12 OFFCURVE",
"549 62 OFFCURVE",
"618 142 OFFCURVE",
"664 261 OFFCURVE",
"664 328 QCURVE SMOOTH",
"664 420 OFFCURVE",
"578 576 OFFCURVE",
"430 667 OFFCURVE",
"257 667 OFFCURVE",
"110 576 OFFCURVE",
"24 420 OFFCURVE",
"24 328 QCURVE SMOOTH",
"24 262 OFFCURVE",
"72 143 OFFCURVE",
"145 63 OFFCURVE",
"222 11 OFFCURVE",
"258 0 QCURVE SMOOTH",
"292 -11 OFFCURVE",
"380 -60 OFFCURVE",
"446 -105 OFFCURVE",
"531 -140 OFFCURVE",
"568 -140 QCURVE SMOOTH",
"667 -140 OFFCURVE",
"751 -95 QCURVE",
"751 -90 LINE SMOOTH",
"751 -70 OFFCURVE",
"739 -70 QCURVE SMOOTH",
"737 -70 OFFCURVE",
"717 -74 OFFCURVE",
"685 -79 OFFCURVE",
"667 -79 QCURVE SMOOTH"
);
}
);
width = 744;
}
);
note = Q;
unicode = 0051;
},
{
glyphname = R;
layers = (
{
layerId = "DDCC2651-E394-46D5-8079-7BA98592C969";
paths = (
{
closed = 1;
nodes = (
"404 610 OFFCURVE",
"404 474 QCURVE SMOOTH",
"404 418 OFFCURVE",
"345 348 OFFCURVE",
"308 348 QCURVE SMOOTH",
"282 348 LINE SMOOTH",
"252 348 OFFCURVE",
"218 362 OFFCURVE",
"218 384 QCURVE SMOOTH",
"218 499 LINE SMOOTH",
"219 598 OFFCURVE",
"230 603 QCURVE SMOOTH",
"246 610 OFFCURVE",
"288 610 QCURVE SMOOTH"
);
},
{
closed = 1;
nodes = (
"274 660 OFFCURVE",
"191 658 OFFCURVE",
"163 658 QCURVE SMOOTH",
"136 658 OFFCURVE",
"30 661 QCURVE",
"26 658 OFFCURVE",
"26 643 QCURVE SMOOTH",
"26 628 OFFCURVE",
"30 628 QCURVE SMOOTH",
"42 628 OFFCURVE",
"95 611 OFFCURVE",
"98 603 QCURVE",
"104 578 OFFCURVE",
"104 521 QCURVE SMOOTH",
"104 143 LINE SMOOTH",
"104 70 OFFCURVE",
"98 52 QCURVE",
"94 43 OFFCURVE",
"43 30 OFFCURVE",
"30 30 QCURVE SMOOTH",
"27 30 OFFCURVE",
"27 14 QCURVE SMOOTH",
"27 0 OFFCURVE",
"30 -4 QCURVE",
"50 -2 LINE",
"70 -1 OFFCURVE",
"137 2 OFFCURVE",
"164 2 QCURVE SMOOTH",
"196 2 OFFCURVE",
"306 -4 QCURVE",
"308 2 OFFCURVE",
"308 13 QCURVE SMOOTH",
"308 30 OFFCURVE",
"304 30 QCURVE SMOOTH",
"290 30 OFFCURVE",
"229 45 OFFCURVE",
"226 57 QCURVE",
"218 82 OFFCURVE",
"218 142 QCURVE SMOOTH",
"218 283 LINE SMOOTH",
"218 300 OFFCURVE",
"234 300 QCURVE SMOOTH",
"252 300 OFFCURVE",
"258 297 QCURVE",
"266 294 OFFCURVE",
"283 278 OFFCURVE",
"307 246 OFFCURVE",
"326 217 OFFCURVE",
"362 163 OFFCURVE",
"376 143 QCURVE",
"398 109 OFFCURVE",
"438 65 OFFCURVE",
"499 18 OFFCURVE",
"582 -6 OFFCURVE",
"633 -6 QCURVE SMOOTH",
"652 -6 OFFCURVE",
"664 -4 QCURVE",
"668 4 OFFCURVE",
"668 14 QCURVE SMOOTH",
"668 24 OFFCURVE",
"664 30 QCURVE",
"630 30 OFFCURVE",
"549 91 OFFCURVE",
"514 134 QCURVE SMOOTH",
"458 203 OFFCURVE",
"402 304 QCURVE SMOOTH",
"398 311 OFFCURVE",
"406 314 QCURVE SMOOTH",
"456 334 OFFCURVE",
"526 430 OFFCURVE",
"526 484 QCURVE SMOOTH",
"526 523 OFFCURVE",
"496 585 OFFCURVE",
"448 623 OFFCURVE",
"387 649 OFFCURVE",
"330 660 OFFCURVE",
"304 660 QCURVE SMOOTH"
);
}
);
width = 685;
}
);
note = R;
unicode = 0052;
},
{
glyphname = S;
layers = (
{
layerId = "DDCC2651-E394-46D5-8079-7BA98592C969";
paths = (
{
closed = 1;
nodes = (
"38 461 OFFCURVE",
"57 411 OFFCURVE",
"81 377 OFFCURVE",
"128 338 OFFCURVE",
"158 318 OFFCURVE",
"187 300 QCURVE SMOOTH",
"195 295 OFFCURVE",
"198 292 QCURVE",
"207 287 OFFCURVE",
"250 262 OFFCURVE",
"272 248 OFFCURVE",
"305 222 OFFCURVE",
"322 200 OFFCURVE",
"335 168 OFFCURVE",
"335 151 QCURVE SMOOTH",
"335 95 OFFCURVE",
"273 39 OFFCURVE",
"226 39 QCURVE SMOOTH",
"189 39 OFFCURVE",
"130 70 OFFCURVE",
"95 119 OFFCURVE",
"75 162 OFFCURVE",
"71 180 QCURVE",
"68 188 OFFCURVE",
"42 188 QCURVE SMOOTH",
"27 188 OFFCURVE",
"26 180 QCURVE",
"26 163 OFFCURVE",
"41 54 OFFCURVE",
"50 18 QCURVE",
"174 -10 OFFCURVE",
"234 -10 QCURVE SMOOTH",
"319 -10 OFFCURVE",
"448 94 OFFCURVE",
"448 174 QCURVE SMOOTH",
"448 202 OFFCURVE",
"432 251 OFFCURVE",
"413 283 OFFCURVE",
"371 319 OFFCURVE",
"349 334 OFFCURVE",
"294 367 OFFCURVE",
"288 372 QCURVE",
"283 374 OFFCURVE",
"236 403 OFFCURVE",
"223 413 OFFCURVE",
"186 439 OFFCURVE",
"173 456 OFFCURVE",
"152 482 OFFCURVE",
"145 509 OFFCURVE",
"145 524 QCURVE SMOOTH",
"145 568 OFFCURVE",
"194 620 OFFCURVE",
"240 620 QCURVE SMOOTH",
"293 620 OFFCURVE",
"367 532 OFFCURVE",
"373 486 QCURVE",
"375 477 OFFCURVE",
"402 477 QCURVE SMOOTH",
"412 477 OFFCURVE",
"414 486 QCURVE",
"414 572 OFFCURVE",
"402 640 QCURVE",
"388 643 OFFCURVE",
"313 662 OFFCURVE",
"271 668 OFFCURVE",
"243 668 QCURVE SMOOTH",
"164 668 OFFCURVE",
"38 565 OFFCURVE",
"38 490 QCURVE SMOOTH"
);
}
);
width = 474;
}
);
note = S;
unicode = 0053;
},
{
glyphname = T;
layers = (
{
layerId = "DDCC2651-E394-46D5-8079-7BA98592C969";
paths = (
{
closed = 1;
nodes = (
"87 662 OFFCURVE",
"43 672 QCURVE",
"24 520 LINE",
"31 512 OFFCURVE",
"50 512 QCURVE SMOOTH",
"59 512 OFFCURVE",
"60 518 QCURVE",
"75 572 OFFCURVE",
"121 611 OFFCURVE",
"170 611 QCURVE SMOOTH",
"257 611 OFFCURVE",
"265 594 QCURVE",
"274 580 OFFCURVE",
"274 497 QCURVE SMOOTH",
"274 135 LINE SMOOTH",
"274 79 OFFCURVE",
"266 52 QCURVE",
"263 44 OFFCURVE",
"212 30 OFFCURVE",
"200 30 QCURVE SMOOTH",
"196 30 OFFCURVE",
"196 12 QCURVE SMOOTH",
"196 0 OFFCURVE",
"200 -4 QCURVE",
"211 -3 OFFCURVE",
"306 3 OFFCURVE",
"333 3 QCURVE SMOOTH",
"353 3 OFFCURVE",
"396 1 OFFCURVE",
"447 -3 OFFCURVE",
"460 -4 QCURVE",
"462 2 OFFCURVE",
"462 12 QCURVE SMOOTH",
"462 30 OFFCURVE",
"458 30 QCURVE SMOOTH",
"449 30 OFFCURVE",
"397 45 OFFCURVE",
"396 52 QCURVE",
"387 85 OFFCURVE",
"387 139 QCURVE SMOOTH",
"387 500 LINE SMOOTH",
"387 565 OFFCURVE",
"396 594 QCURVE",
"400 611 OFFCURVE",
"493 611 QCURVE SMOOTH",
"542 611 OFFCURVE",
"588 572 OFFCURVE",
"602 517 QCURVE",
"604 512 OFFCURVE",
"612 512 QCURVE SMOOTH",
"632 512 OFFCURVE",
"639 519 QCURVE",
"620 672 LINE",
"576 662 OFFCURVE",
"551 662 QCURVE SMOOTH",
"510 661 OFFCURVE",
"374 656 OFFCURVE",
"288 656 OFFCURVE",
"153 661 OFFCURVE",
"112 662 QCURVE SMOOTH"
);
}
);
width = 664;
}
);
note = T;
unicode = 0054;
},
{
glyphname = U;
layers = (
{
layerId = "DDCC2651-E394-46D5-8079-7BA98592C969";
paths = (
{
closed = 1;
nodes = (
"154 656 OFFCURVE",
"27 662 QCURVE",
"24 659 OFFCURVE",
"24 629 OFFCURVE",
"28 629 QCURVE SMOOTH",
"40 629 OFFCURVE",
"88 614 OFFCURVE",
"92 606 QCURVE",
"100 586 OFFCURVE",
"100 522 QCURVE SMOOTH",
"100 304 LINE SMOOTH",
"100 143 OFFCURVE",
"238 -2 OFFCURVE",
"358 -2 QCURVE SMOOTH",
"415 -2 OFFCURVE",
"504 28 OFFCURVE",
"574 93 OFFCURVE",
"612 206 OFFCURVE",
"612 284 QCURVE SMOOTH",
"612 519 LINE SMOOTH",
"612 577 OFFCURVE",
"623 602 QCURVE",
"632 615 OFFCURVE",
"690 630 OFFCURVE",
"704 630 QCURVE SMOOTH",
"708 630 OFFCURVE",
"708 646 QCURVE SMOOTH",
"708 655 OFFCURVE",
"706 662 QCURVE",
"696 662 OFFCURVE",
"613 655 OFFCURVE",
"588 655 QCURVE SMOOTH",
"570 655 OFFCURVE",
"462 662 QCURVE",
"459 658 OFFCURVE",
"460 630 OFFCURVE",
"464 630 QCURVE SMOOTH",
"477 630 OFFCURVE",
"536 613 OFFCURVE",
"542 604 QCURVE",
"552 585 OFFCURVE",
"552 524 QCURVE SMOOTH",
"552 280 LINE SMOOTH",
"552 163 OFFCURVE",
"459 62 OFFCURVE",
"382 62 QCURVE SMOOTH",
"303 62 OFFCURVE",
"214 185 OFFCURVE",
"214 288 QCURVE SMOOTH",
"214 518 LINE SMOOTH",
"214 576 OFFCURVE",
"222 606 QCURVE",
"223 614 OFFCURVE",
"277 629 OFFCURVE",
"286 629 QCURVE SMOOTH",
"290 629 OFFCURVE",
"290 646 QCURVE SMOOTH",
"290 654 OFFCURVE",
"288 662 QCURVE",
"178 656 OFFCURVE",
"160 656 QCURVE SMOOTH"
);
}
);
width = 733;
}
);
note = U;
unicode = 0055;
},
{
glyphname = V;
layers = (
{
layerId = "DDCC2651-E394-46D5-8079-7BA98592C969";
paths = (
{
closed = 1;
nodes = (
"121 656 OFFCURVE",
"25 662 OFFCURVE",
"18 662 QCURVE",
"15 658 OFFCURVE",
"15 644 QCURVE SMOOTH",
"15 629 OFFCURVE",
"19 629 QCURVE SMOOTH",
"33 629 OFFCURVE",
"81 614 OFFCURVE",
"88 601 QCURVE SMOOTH",
"103 572 OFFCURVE",
"126 512 QCURVE SMOOTH",
"332 0 LINE",
"338 -10 OFFCURVE",
"348 -10 QCURVE SMOOTH",
"372 -10 OFFCURVE",
"387 26 QCURVE SMOOTH",
"595 513 LINE SMOOTH",
"623 577 OFFCURVE",
"638 601 QCURVE",
"650 615 OFFCURVE",
"693 630 OFFCURVE",
"706 630 QCURVE SMOOTH",
"708 630 OFFCURVE",
"708 647 QCURVE SMOOTH",
"708 657 OFFCURVE",
"706 662 QCURVE",
"691 661 OFFCURVE",
"623 656 OFFCURVE",
"597 656 QCURVE SMOOTH",
"573 656 OFFCURVE",
"495 662 OFFCURVE",
"486 662 QCURVE",
"484 658 OFFCURVE",
"483 629 OFFCURVE",
"487 629 QCURVE SMOOTH",
"511 629 OFFCURVE",
"558 610 OFFCURVE",
"558 592 QCURVE SMOOTH",
"558 570 OFFCURVE",
"538 523 QCURVE SMOOTH",
"392 178 LINE",
"392 176 OFFCURVE",
"366 228 OFFCURVE",
"330 309 OFFCURVE",
"318 340 QCURVE",
"310 357 OFFCURVE",
"298 389 QCURVE SMOOTH",
"222 575 OFFCURVE",
"222 594 QCURVE SMOOTH",
"222 607 OFFCURVE",
"250 624 OFFCURVE",
"276 629 OFFCURVE",
"284 629 QCURVE SMOOTH",
"288 629 OFFCURVE",
"288 658 OFFCURVE",
"285 662 QCURVE",
"162 656 OFFCURVE",
"148 656 QCURVE SMOOTH"
);
}
);
width = 715;
}
);
note = V;
unicode = 0056;
},
{
glyphname = W;
layers = (
{
layerId = "DDCC2651-E394-46D5-8079-7BA98592C969";
paths = (
{
closed = 1;
nodes = (
"134 656 OFFCURVE",
"7 662 QCURVE",
"4 659 OFFCURVE",
"4 645 QCURVE SMOOTH",
"4 629 OFFCURVE",
"8 629 QCURVE SMOOTH",
"20 629 OFFCURVE",
"59 617 OFFCURVE",
"67 607 QCURVE SMOOTH",
"91 576 OFFCURVE",
"119 520 QCURVE SMOOTH",
"384 -6 LINE",
"388 -10 OFFCURVE",
"394 -10 QCURVE",
"401 -11 OFFCURVE",
"422 6 OFFCURVE",
"430 22 QCURVE SMOOTH",
"544 240 LINE",
"666 -6 LINE",
"670 -10 OFFCURVE",
"676 -10 QCURVE SMOOTH",
"684 -10 OFFCURVE",
"705 6 OFFCURVE",
"713 22 QCURVE SMOOTH",
"942 507 LINE SMOOTH",
"973 571 OFFCURVE",
"1000 602 QCURVE",
"1011 613 OFFCURVE",
"1056 630 OFFCURVE",
"1068 630 QCURVE SMOOTH",
"1072 630 OFFCURVE",
"1072 642 QCURVE SMOOTH",
"1072 655 OFFCURVE",
"1070 662 QCURVE",
"1056 661 OFFCURVE",
"1016 658 OFFCURVE",
"980 656 OFFCURVE",
"935 656 OFFCURVE",
"847 662 QCURVE",
"843 658 OFFCURVE",
"844 630 OFFCURVE",
"848 630 QCURVE SMOOTH",
"864 630 OFFCURVE",
"912 614 OFFCURVE",
"912 596 QCURVE SMOOTH",
"912 578 OFFCURVE",
"894 540 QCURVE SMOOTH",
"887 524 OFFCURVE",
"739 212 OFFCURVE",
"719 165 QCURVE SMOOTH",
"712 150 OFFCURVE",
"706 160 QCURVE",
"609 358 LINE",
"682 506 LINE SMOOTH",
"717 575 OFFCURVE",
"739 600 QCURVE SMOOTH",
"749 612 OFFCURVE",
"798 630 OFFCURVE",
"810 630 QCURVE",
"813 631 OFFCURVE",
"813 656 OFFCURVE",
"811 662 QCURVE",
"798 661 OFFCURVE",
"756 658 OFFCURVE",
"719 656 OFFCURVE",
"696 656 QCURVE SMOOTH",
"674 656 OFFCURVE",
"586 662 QCURVE",
"583 658 OFFCURVE",
"583 630 OFFCURVE",
"587 630 QCURVE SMOOTH",
"605 630 OFFCURVE",
"654 615 OFFCURVE",
"654 597 QCURVE SMOOTH",
"654 578 OFFCURVE",
"636 542 QCURVE SMOOTH",
"577 421 LINE",
"516 546 LINE SMOOTH",
"498 582 OFFCURVE",
"498 598 QCURVE SMOOTH",
"498 610 OFFCURVE",
"518 625 OFFCURVE",
"537 629 OFFCURVE",
"546 629 QCURVE",
"549 630 OFFCURVE",
"548 656 OFFCURVE",
"546 662 QCURVE",
"436 656 OFFCURVE",
"428 656 QCURVE SMOOTH",
"422 656 OFFCURVE",
"296 662 QCURVE",
"293 659 OFFCURVE",
"293 646 QCURVE SMOOTH",
"293 629 OFFCURVE",
"297 629 QCURVE SMOOTH",
"311 629 OFFCURVE",
"346 615 OFFCURVE",
"355 605 QCURVE SMOOTH",
"376 581 OFFCURVE",
"406 520 QCURVE SMOOTH",
"513 304 LINE",
"440 162 LINE SMOOTH",
"438 158 OFFCURVE",
"429 153 OFFCURVE",
"426 158 QCURVE",
"230 545 LINE SMOOTH",
"212 579 OFFCURVE",
"212 598 QCURVE SMOOTH",
"212 611 OFFCURVE",
"235 626 OFFCURVE",
"253 629 OFFCURVE",
"260 629 QCURVE",
"264 630 OFFCURVE",
"263 656 OFFCURVE",
"262 662 QCURVE",
"152 656 OFFCURVE",
"141 656 QCURVE SMOOTH"
);
}
);
width = 1078;
}
);
note = W;
unicode = 0057;
},
{
glyphname = X;
layers = (
{
layerId = "DDCC2651-E394-46D5-8079-7BA98592C969";
paths = (
{
closed = 1;
nodes = (
"180 656 OFFCURVE",
"137 658 OFFCURVE",
"86 661 OFFCURVE",
"68 662 QCURVE",
"65 658 OFFCURVE",
"65 629 OFFCURVE",
"68 629 QCURVE SMOOTH",
"99 629 OFFCURVE",
"123 614 QCURVE SMOOTH",
"147 599 OFFCURVE",
"183 542 QCURVE SMOOTH",
"320 333 LINE",
"116 60 LINE",
"103 45 OFFCURVE",
"42 30 OFFCURVE",
"28 30 QCURVE SMOOTH",
"24 30 OFFCURVE",
"24 10 QCURVE SMOOTH",
"24 5 OFFCURVE",
"28 -4 QCURVE",
"138 2 OFFCURVE",
"153 2 QCURVE SMOOTH",
"179 2 OFFCURVE",
"276 -4 QCURVE",
"278 0 OFFCURVE",
"278 11 QCURVE SMOOTH",
"278 30 OFFCURVE",
"273 30 QCURVE SMOOTH",
"243 30 OFFCURVE",
"202 49 OFFCURVE",
"202 60 QCURVE SMOOTH",
"202 79 OFFCURVE",
"354 282 QCURVE",
"494 69 LINE SMOOTH",
"498 63 OFFCURVE",
"498 58 QCURVE SMOOTH",
"498 45 OFFCURVE",
"454 30 OFFCURVE",
"441 30 QCURVE SMOOTH",
"437 30 OFFCURVE",
"436 0 OFFCURVE",
"440 -4 QCURVE",
"459 -3 OFFCURVE",
"519 0 OFFCURVE",
"567 2 OFFCURVE",
"592 2 QCURVE SMOOTH",
"608 2 OFFCURVE",
"718 -4 QCURVE",
"720 2 OFFCURVE",
"720 10 QCURVE SMOOTH",
"720 30 OFFCURVE",
"716 30 QCURVE SMOOTH",
"695 30 OFFCURVE",
"640 50 OFFCURVE",
"624 71 QCURVE",
"620 77 OFFCURVE",
"433 357 QCURVE",
"621 595 LINE SMOOTH",
"634 612 OFFCURVE",
"699 629 OFFCURVE",
"714 629 QCURVE SMOOTH",
"717 629 OFFCURVE",
"717 658 OFFCURVE",
"715 662 QCURVE",
"605 656 OFFCURVE",
"592 656 QCURVE SMOOTH",
"569 656 OFFCURVE",
"467 662 QCURVE",
"463 658 OFFCURVE",
"464 629 OFFCURVE",
"468 629 QCURVE SMOOTH",
"495 629 OFFCURVE",
"540 609 OFFCURVE",
"540 598 QCURVE SMOOTH",
"540 591 OFFCURVE",
"522 560 OFFCURVE",
"488 514 OFFCURVE",
"459 477 OFFCURVE",
"411 417 OFFCURVE",
"402 405 QCURVE",
"289 576 LINE SMOOTH",
"279 592 OFFCURVE",
"279 602 QCURVE SMOOTH",
"279 616 OFFCURVE",
"319 629 OFFCURVE",
"336 629 QCURVE SMOOTH",
"339 629 OFFCURVE",
"339 658 OFFCURVE",
"338 662 QCURVE",
"228 656 OFFCURVE",
"202 656 QCURVE SMOOTH"
);
}
);
width = 752;
}
);
note = X;
unicode = 0058;
},
{
glyphname = Y;
layers = (
{
layerId = "DDCC2651-E394-46D5-8079-7BA98592C969";
paths = (
{
closed = 1;
nodes = (
"48 656 OFFCURVE",
"24 654 QCURVE",
"22 650 OFFCURVE",
"23 630 OFFCURVE",
"26 630 QCURVE SMOOTH",
"35 630 OFFCURVE",
"74 619 OFFCURVE",
"84 612 QCURVE SMOOTH",
"107 597 OFFCURVE",
"136 543 QCURVE SMOOTH",
"149 520 OFFCURVE",
"203 424 OFFCURVE",
"227 381 OFFCURVE",
"259 322 OFFCURVE",
"272 293 OFFCURVE",
"272 288 QCURVE SMOOTH",
"272 140 LINE SMOOTH",
"272 81 OFFCURVE",
"264 52 QCURVE",
"261 44 OFFCURVE",
"211 28 OFFCURVE",
"199 28 QCURVE SMOOTH",
"196 28 OFFCURVE",
"196 12 QCURVE SMOOTH",
"196 0 OFFCURVE",
"200 -4 QCURVE",
"211 -3 OFFCURVE",
"304 3 OFFCURVE",
"331 3 QCURVE SMOOTH",
"351 3 OFFCURVE",
"393 1 OFFCURVE",
"443 -3 OFFCURVE",
"456 -4 QCURVE",
"458 2 OFFCURVE",
"458 12 QCURVE SMOOTH",
"458 28 OFFCURVE",
"454 28 QCURVE SMOOTH",
"446 28 OFFCURVE",
"395 45 OFFCURVE",
"393 52 QCURVE SMOOTH",
"385 83 OFFCURVE",
"385 142 QCURVE SMOOTH",
"385 298 LINE SMOOTH",
"385 311 OFFCURVE",
"535 554 OFFCURVE",
"564 597 QCURVE",
"576 612 OFFCURVE",
"629 630 OFFCURVE",
"644 630 QCURVE SMOOTH",
"648 630 OFFCURVE",
"648 646 QCURVE SMOOTH",
"648 654 OFFCURVE",
"646 662 QCURVE",
"635 661 OFFCURVE",
"596 658 OFFCURVE",
"559 656 OFFCURVE",
"536 656 QCURVE SMOOTH",
"517 656 OFFCURVE",
"416 662 QCURVE",
"413 658 OFFCURVE",
"413 630 OFFCURVE",
"417 630 QCURVE SMOOTH",
"447 630 OFFCURVE",
"484 613 OFFCURVE",
"484 602 QCURVE SMOOTH",
"484 584 OFFCURVE",
"404 448 OFFCURVE",
"361 384 QCURVE SMOOTH",
"356 377 OFFCURVE",
"351 382 QCURVE",
"245 576 LINE SMOOTH",
"236 593 OFFCURVE",
"236 602 QCURVE SMOOTH",
"236 616 OFFCURVE",
"276 630 OFFCURVE",
"292 630 QCURVE SMOOTH",
"295 630 OFFCURVE",
"296 658 OFFCURVE",
"294 662 QCURVE",
"174 656 OFFCURVE",
"156 656 QCURVE SMOOTH"
);
}
);
width = 657;
}
);
note = Y;
unicode = 0059;
},
{
glyphname = Z;
layers = (
{
layerId = "DDCC2651-E394-46D5-8079-7BA98592C969";
paths = (
{
closed = 1;
nodes = (
"204 656 OFFCURVE",
"77 661 OFFCURVE",
"67 664 QCURVE",
"61 611 OFFCURVE",
"36 486 QCURVE",
"42 479 OFFCURVE",
"68 479 QCURVE SMOOTH",
"78 479 OFFCURVE",
"80 484 QCURVE",
"90 517 OFFCURVE",
"106 552 OFFCURVE",
"136 589 OFFCURVE",
"184 603 OFFCURVE",
"220 604 QCURVE SMOOTH",
"412 604 LINE",
"36 43 LINE",
"32 38 OFFCURVE",
"32 26 QCURVE SMOOTH",
"32 9 OFFCURVE",
"40 0 QCURVE",
"547 0 LINE",
"553 35 OFFCURVE",
"596 170 QCURVE",
"588 178 OFFCURVE",
"568 178 QCURVE SMOOTH",
"557 178 OFFCURVE",
"555 173 QCURVE SMOOTH",
"512 54 OFFCURVE",
"394 54 QCURVE SMOOTH",
"202 54 LINE SMOOTH",
"188 54 OFFCURVE",
"188 64 QCURVE SMOOTH",
"188 68 OFFCURVE",
"194 79 QCURVE",
"286 216 LINE SMOOTH",
"378 352 OFFCURVE",
"563 629 OFFCURVE",
"564 633 QCURVE",
"564 641 OFFCURVE",
"557 665 OFFCURVE",
"554 666 QCURVE",
"414 656 OFFCURVE",
"333 656 QCURVE SMOOTH",
"224 656 LINE SMOOTH"
);
}
);
width = 622;
}
);
note = Z;
unicode = 005A;
},
{
glyphname = bracketleft;
layers = (
{
layerId = "DDCC2651-E394-46D5-8079-7BA98592C969";
paths = (
{
closed = 1;
nodes = (
"35 756 OFFCURVE",
"35 732 QCURVE SMOOTH",
"35 -83 LINE SMOOTH",
"35 -106 OFFCURVE",
"53 -106 QCURVE SMOOTH",
"131 -106 OFFCURVE",
"245 -124 QCURVE",
"251 -124 OFFCURVE",
"251 -106 QCURVE SMOOTH",
"251 -87 OFFCURVE",
"241 -83 QCURVE SMOOTH",
"183 -58 OFFCURVE",
"133 -58 QCURVE SMOOTH",
"126 -58 OFFCURVE",
"126 -50 QCURVE SMOOTH",
"126 699 LINE SMOOTH",
"126 708 OFFCURVE",
"133 708 QCURVE SMOOTH",
"161 708 OFFCURVE",
"227 722 OFFCURVE",
"240 729 QCURVE SMOOTH",
"254 736 OFFCURVE",
"254 758 QCURVE SMOOTH",
"254 771 OFFCURVE",
"248 771 QCURVE",
"150 756 OFFCURVE",
"53 756 QCURVE SMOOTH"
);
}
);
width = 275;
}
);
note = bracketleft;
unicode = 005B;
},
{
glyphname = backslash;
layers = (
{
layerId = "DDCC2651-E394-46D5-8079-7BA98592C969";
paths = (
{
closed = 1;
nodes = (
"387 7 OFFCURVE",
"383 13 QCURVE",
"97 739 LINE",
"87 761 OFFCURVE",
"43 761 QCURVE SMOOTH",
"29 761 OFFCURVE",
"21 755 QCURVE",
"335 -37 LINE",
"359 -39 LINE",
"367 -39 OFFCURVE",
"387 -23 OFFCURVE",
"387 -6 QCURVE SMOOTH"
);
}
);
width = 409;
}
);
note = backslash;
unicode = 005C;
},
{
glyphname = bracketright;
layers = (
{
layerId = "DDCC2651-E394-46D5-8079-7BA98592C969";
paths = (
{
closed = 1;
nodes = (
"126 756 OFFCURVE",
"28 771 QCURVE",
"22 771 OFFCURVE",
"22 758 QCURVE SMOOTH",
"22 736 OFFCURVE",
"36 729 QCURVE SMOOTH",
"49 722 OFFCURVE",
"114 708 OFFCURVE",
"142 708 QCURVE SMOOTH",
"150 708 OFFCURVE",
"150 699 QCURVE SMOOTH",
"150 -50 LINE SMOOTH",
"150 -58 OFFCURVE",
"142 -58 QCURVE SMOOTH",
"93 -58 OFFCURVE",
"35 -83 QCURVE",
"24 -87 OFFCURVE",
"24 -106 QCURVE SMOOTH",
"24 -124 OFFCURVE",
"30 -124 QCURVE",
"144 -106 OFFCURVE",
"222 -106 QCURVE SMOOTH",
"241 -106 OFFCURVE",
"241 -83 QCURVE SMOOTH",
"241 732 LINE SMOOTH",
"241 756 OFFCURVE",
"222 756 QCURVE SMOOTH"
);
}
);
width = 276;
}
);
note = bracketright;
unicode = 005D;
},
{
glyphname = asciicircum;
layers = (
{
layerId = "DDCC2651-E394-46D5-8079-7BA98592C969";
paths = (
{
closed = 1;
nodes = (
"352 472 OFFCURVE",
"360 495 OFFCURVE",
"360 500 QCURVE",
"359 502 OFFCURVE",
"328 533 OFFCURVE",
"288 575 OFFCURVE",
"278 588 QCURVE SMOOTH",
"259 614 OFFCURVE",
"231 660 OFFCURVE",
"223 679 OFFCURVE",
"212 690 OFFCURVE",
"203 690 QCURVE SMOOTH",
"200 690 OFFCURVE",
"197 688 OFFCURVE",
"196 686 OFFCURVE",
"194 679 OFFCURVE",
"193 677 QCURVE SMOOTH",
"171 629 OFFCURVE",
"105 547 OFFCURVE",
"57 502 OFFCURVE",
"56 499 QCURVE",
"57 492 LINE SMOOTH",
"58 486 OFFCURVE",
"65 472 OFFCURVE",
"69 472 QCURVE SMOOTH",
"82 472 OFFCURVE",
"176 550 OFFCURVE",
"207 590 QCURVE",
"242 549 OFFCURVE",
"334 472 OFFCURVE",
"347 472 QCURVE SMOOTH"
);
}
);
width = 388;
}
);
note = asciicircum;
unicode = 005E;
},
{
glyphname = underscore;
layers = (
{
layerId = "DDCC2651-E394-46D5-8079-7BA98592C969";
paths = (
{
closed = 1;
nodes = (
"61 -43 OFFCURVE",
"68 -43 QCURVE SMOOTH",
"513 -43 LINE",
"514 -43 LINE SMOOTH",
"515 -43 OFFCURVE",
"518 -40 OFFCURVE",
"519 -37 QCURVE",
"529 0 OFFCURVE",
"529 8 QCURVE SMOOTH",
"529 13 OFFCURVE",
"525 13 QCURVE SMOOTH",
"76 13 LINE SMOOTH",
"66 13 OFFCURVE",
"61 -33 QCURVE"
);
}
);
width = 585;
}
);
note = underscore;
unicode = 005F;
},
{
glyphname = grave;
layers = (
{
layerId = "DDCC2651-E394-46D5-8079-7BA98592C969";
paths = (
{
closed = 1;
nodes = (
"44 635 OFFCURVE",
"187 524 OFFCURVE",
"200 524 QCURVE SMOOTH",
"205 524 OFFCURVE",
"215 535 OFFCURVE",
"215 540 QCURVE SMOOTH",
"215 543 OFFCURVE",
"185 592 OFFCURVE",
"139 658 OFFCURVE",
"122 678 QCURVE",
"113 687 OFFCURVE",
"88 687 QCURVE SMOOTH",
"72 687 OFFCURVE",
"51 675 OFFCURVE",
"44 664 OFFCURVE",
"44 660 QCURVE SMOOTH"
);
}
);
width = 247;
}
);
note = grave;
unicode = 0060;
},
{
glyphname = a;
layers = (
{
layerId = "DDCC2651-E394-46D5-8079-7BA98592C969";
paths = (
{
closed = 1;
nodes = (
"167 58 OFFCURVE",
"135 88 OFFCURVE",
"135 120 QCURVE SMOOTH",
"135 135 OFFCURVE",
"150 161 OFFCURVE",
"182 179 OFFCURVE",
"206 189 OFFCURVE",
"251 203 OFFCURVE",
"258 206 QCURVE",
"258 104 LINE SMOOTH",
"258 86 OFFCURVE",
"219 58 OFFCURVE",
"192 58 QCURVE SMOOTH"
);
},
{
closed = 1;
nodes = (
"165 442 OFFCURVE",
"34 358 OFFCURVE",
"34 310 QCURVE",
"49 286 OFFCURVE",
"86 286 QCURVE SMOOTH",
"105 286 OFFCURVE",
"135 305 OFFCURVE",
"135 325 QCURVE SMOOTH",
"135 359 OFFCURVE",
"169 396 OFFCURVE",
"199 396 QCURVE SMOOTH",
"226 396 OFFCURVE",
"258 356 OFFCURVE",
"258 321 QCURVE SMOOTH",
"258 266 LINE SMOOTH",
"258 254 OFFCURVE",
"249 250 QCURVE",
"237 246 OFFCURVE",
"176 228 OFFCURVE",
"137 215 OFFCURVE",
"83 189 OFFCURVE",
"51 162 OFFCURVE",
"28 120 OFFCURVE",
"28 96 QCURVE SMOOTH",
"28 48 OFFCURVE",
"91 -7 OFFCURVE",
"141 -7 QCURVE SMOOTH",
"161 -7 OFFCURVE",
"200 4 OFFCURVE",
"229 20 OFFCURVE",
"252 36 OFFCURVE",
"265 47 OFFCURVE",
"266 48 QCURVE",
"273 28 OFFCURVE",
"317 -6 OFFCURVE",
"340 -6 QCURVE SMOOTH",
"363 -6 OFFCURVE",
"413 20 OFFCURVE",
"428 32 QCURVE",
"434 42 OFFCURVE",
"434 62 QCURVE SMOOTH",
"434 71 OFFCURVE",
"428 73 QCURVE",
"409 60 OFFCURVE",
"394 60 QCURVE SMOOTH",
"379 60 OFFCURVE",
"361 81 OFFCURVE",
"361 101 QCURVE SMOOTH",
"361 298 LINE SMOOTH",
"361 377 OFFCURVE",
"299 442 OFFCURVE",
"237 442 QCURVE SMOOTH"
);
}
);
width = 452;
}
);
note = a;
unicode = 0061;
},
{
glyphname = b;
layers = (
{
layerId = "DDCC2651-E394-46D5-8079-7BA98592C969";
paths = (
{
closed = 1;
nodes = (
"258 442 OFFCURVE",
"205 422 OFFCURVE",
"191 412 QCURVE",
"189 411 OFFCURVE",
"186 411 OFFCURVE",
"185 417 OFFCURVE",
"185 420 OFFCURVE",
"185 423 QCURVE SMOOTH",
"185 424 LINE",
"185 584 LINE SMOOTH",
"185 639 OFFCURVE",
"196 678 QCURVE",
"195 683 OFFCURVE",
"187 694 OFFCURVE",
"183 694 QCURVE SMOOTH",
"181 694 LINE SMOOTH",
"181 694 OFFCURVE",
"166 689 OFFCURVE",
"139 679 OFFCURVE",
"102 669 OFFCURVE",
"46 659 OFFCURVE",
"15 656 QCURVE",
"9 656 OFFCURVE",
"9 640 QCURVE SMOOTH",
"9 624 OFFCURVE",
"15 624 QCURVE SMOOTH",
"24 624 LINE SMOOTH",
"71 624 OFFCURVE",
"76 608 QCURVE",
"82 578 OFFCURVE",
"82 540 QCURVE SMOOTH",
"82 132 LINE SMOOTH",
"82 99 OFFCURVE",
"76 43 OFFCURVE",
"72 13 OFFCURVE",
"72 10 QCURVE SMOOTH",
"72 6 OFFCURVE",
"95 -6 OFFCURVE",
"98 -6 QCURVE SMOOTH",
"101 -6 OFFCURVE",
"135 8 OFFCURVE",
"144 8 QCURVE SMOOTH",
"160 8 OFFCURVE",
"222 -7 OFFCURVE",
"264 -7 QCURVE SMOOTH",
"355 -7 OFFCURVE",
"494 132 OFFCURVE",
"494 230 QCURVE SMOOTH",
"494 282 OFFCURVE",
"443 379 OFFCURVE",
"344 442 OFFCURVE",
"282 442 QCURVE SMOOTH"
);
},
{
closed = 1;
nodes = (
"317 388 OFFCURVE",
"379 288 OFFCURVE",
"379 202 QCURVE SMOOTH",
"379 135 OFFCURVE",
"326 41 OFFCURVE",
"274 41 QCURVE SMOOTH",
"238 41 OFFCURVE",
"185 77 OFFCURVE",
"185 112 QCURVE SMOOTH",
"185 324 LINE SMOOTH",
"185 350 OFFCURVE",
"227 388 OFFCURVE",
"260 388 QCURVE SMOOTH"
);
}
);
width = 525;
}
);
note = b;
unicode = 0062;
},
{
glyphname = c;
layers = (
{
layerId = "DDCC2651-E394-46D5-8079-7BA98592C969";
paths = (
{
closed = 1;
nodes = (
"145 442 OFFCURVE",
"25 309 OFFCURVE",
"25 218 QCURVE SMOOTH",
"25 124 OFFCURVE",
"150 -6 OFFCURVE",
"239 -6 QCURVE SMOOTH",
"293 -6 OFFCURVE",
"381 48 OFFCURVE",
"396 75 QCURVE",
"402 83 OFFCURVE",
"402 94 QCURVE SMOOTH",
"402 99 OFFCURVE",
"396 109 OFFCURVE",
"394 110 QCURVE",
"394 110 OFFCURVE",
"378 99 OFFCURVE",
"370 94 OFFCURVE",
"351 82 OFFCURVE",
"333 76 OFFCURVE",
"309 69 OFFCURVE",
"281 66 OFFCURVE",
"266 66 QCURVE SMOOTH",
"209 66 OFFCURVE",
"135 153 OFFCURVE",
"135 243 QCURVE SMOOTH",
"135 309 OFFCURVE",
"186 396 OFFCURVE",
"229 396 QCURVE SMOOTH",
"273 396 OFFCURVE",
"296 350 QCURVE SMOOTH",
"308 327 OFFCURVE",
"331 307 OFFCURVE",
"350 307 QCURVE SMOOTH",
"373 307 OFFCURVE",
"396 352 OFFCURVE",
"396 386 QCURVE",
"378 407 OFFCURVE",
"295 442 OFFCURVE",
"242 442 QCURVE SMOOTH"
);
}
);
width = 435;
}
);
note = c;
unicode = 0063;
},
{
glyphname = d;
layers = (
{
layerId = "DDCC2651-E394-46D5-8079-7BA98592C969";
paths = (
{
closed = 1;
nodes = (
"269 396 OFFCURVE",
"306 379 OFFCURVE",
"323 354 OFFCURVE",
"330 332 OFFCURVE",
"330 322 QCURVE SMOOTH",
"330 112 LINE SMOOTH",
"330 85 OFFCURVE",
"288 50 OFFCURVE",
"254 50 QCURVE SMOOTH",
"198 50 OFFCURVE",
"136 145 OFFCURVE",
"136 230 QCURVE SMOOTH",
"136 306 OFFCURVE",
"190 396 OFFCURVE",
"243 396 QCURVE SMOOTH"
);
},
{
closed = 1;
nodes = (
"158 444 OFFCURVE",
"21 303 OFFCURVE",
"21 204 QCURVE SMOOTH",
"21 114 OFFCURVE",
"141 -5 OFFCURVE",
"222 -5 QCURVE SMOOTH",
"278 -5 OFFCURVE",
"326 32 QCURVE",
"327 33 OFFCURVE",
"330 31 OFFCURVE",
"330 28 QCURVE SMOOTH",
"330 11 LINE SMOOTH",
"330 -6 OFFCURVE",
"336 -6 QCURVE",
"336 -6 OFFCURVE",
"359 -1 OFFCURVE",
"396 6 OFFCURVE",
"437 13 OFFCURVE",
"480 19 OFFCURVE",
"494 20 QCURVE",
"500 20 OFFCURVE",
"500 40 QCURVE SMOOTH",
"500 50 OFFCURVE",
"498 52 QCURVE",
"497 52 OFFCURVE",
"479 53 OFFCURVE",
"459 55 OFFCURVE",
"441 63 OFFCURVE",
"440 70 QCURVE",
"434 98 OFFCURVE",
"434 144 QCURVE SMOOTH",
"434 584 LINE SMOOTH",
"434 639 OFFCURVE",
"444 678 QCURVE",
"444 683 OFFCURVE",
"436 694 OFFCURVE",
"432 694 QCURVE SMOOTH",
"430 694 LINE SMOOTH",
"429 694 OFFCURVE",
"415 689 OFFCURVE",
"388 679 OFFCURVE",
"351 669 OFFCURVE",
"294 659 OFFCURVE",
"264 656 QCURVE",
"258 656 OFFCURVE",
"258 640 QCURVE SMOOTH",
"258 624 OFFCURVE",
"264 624 QCURVE SMOOTH",
"272 624 LINE SMOOTH",
"319 624 OFFCURVE",
"324 608 QCURVE",
"330 578 OFFCURVE",
"330 540 QCURVE SMOOTH",
"330 446 LINE SMOOTH",
"330 430 OFFCURVE",
"325 430 QCURVE",
"295 444 OFFCURVE",
"252 444 QCURVE SMOOTH"
);
}
);
width = 520;
}
);
note = d;
unicode = 0064;
},
{
glyphname = e;
layers = (
{
layerId = "DDCC2651-E394-46D5-8079-7BA98592C969";
paths = (
{
closed = 1;
nodes = (
"264 396 OFFCURVE",
"311 324 OFFCURVE",
"311 289 QCURVE SMOOTH",
"311 274 OFFCURVE",
"302 274 QCURVE SMOOTH",
"140 274 LINE SMOOTH",
"134 274 OFFCURVE",
"134 281 QCURVE SMOOTH",
"134 293 OFFCURVE",
"143 328 OFFCURVE",
"163 368 OFFCURVE",
"201 396 OFFCURVE",
"225 396 QCURVE SMOOTH"
);
},
{
closed = 1;
nodes = (
"142 442 OFFCURVE",
"25 316 OFFCURVE",
"25 215 QCURVE SMOOTH",
"25 123 OFFCURVE",
"151 -6 OFFCURVE",
"238 -6 QCURVE SMOOTH",
"293 -6 OFFCURVE",
"381 48 OFFCURVE",
"396 75 QCURVE",
"402 83 OFFCURVE",
"402 94 QCURVE SMOOTH",
"402 99 OFFCURVE",
"396 109 OFFCURVE",
"394 110 QCURVE",
"394 110 OFFCURVE",
"378 99 OFFCURVE",
"370 94 OFFCURVE",
"351 82 OFFCURVE",
"333 76 OFFCURVE",
"309 69 OFFCURVE",
"281 66 OFFCURVE",
"266 66 QCURVE SMOOTH",
"222 66 OFFCURVE",
"159 116 OFFCURVE",
"133 184 OFFCURVE",
"133 220 QCURVE SMOOTH",
"133 226 OFFCURVE",
"140 226 QCURVE SMOOTH",
"379 226 LINE SMOOTH",
"402 226 OFFCURVE",
"417 237 OFFCURVE",
"417 259 QCURVE SMOOTH",
"417 287 OFFCURVE",
"395 348 OFFCURVE",
"353 405 OFFCURVE",
"279 442 OFFCURVE",
"232 442 QCURVE SMOOTH"
);
}
);
width = 436;
}
);
note = e;
unicode = 0065;
},
{
glyphname = f;
layers = (
{
layerId = "DDCC2651-E394-46D5-8079-7BA98592C969";
paths = (
{
closed = 1;
nodes = (
"227 695 OFFCURVE",
"102 545 OFFCURVE",
"102 440 QCURVE SMOOTH",
"102 430 LINE SMOOTH",
"102 424 OFFCURVE",
"96 424 QCURVE SMOOTH",
"80 424 LINE SMOOTH",
"62 424 OFFCURVE",
"34 388 OFFCURVE",
"34 377 QCURVE SMOOTH",
"34 371 OFFCURVE",
"36 371 QCURVE SMOOTH",
"96 371 LINE SMOOTH",
"102 371 OFFCURVE",
"102 364 QCURVE SMOOTH",
"102 134 LINE SMOOTH",
"102 87 OFFCURVE",
"93 52 QCURVE SMOOTH",
"91 45 OFFCURVE",
"43 30 OFFCURVE",
"32 30 QCURVE SMOOTH",
"29 30 OFFCURVE",
"27 15 OFFCURVE",
"29 -1 OFFCURVE",
"32 -4 QCURVE",
"40 -3 OFFCURVE",
"128 3 OFFCURVE",
"152 3 QCURVE SMOOTH",
"176 3 OFFCURVE",
"268 -3 OFFCURVE",
"274 -4 QCURVE",
"276 1 OFFCURVE",
"275 30 OFFCURVE",
"272 30 QCURVE SMOOTH",
"263 30 OFFCURVE",
"214 45 OFFCURVE",
"212 52 QCURVE SMOOTH",
"204 83 OFFCURVE",
"204 142 QCURVE SMOOTH",
"204 365 LINE SMOOTH",
"204 371 OFFCURVE",
"210 371 QCURVE SMOOTH",
"314 371 LINE",
"326 395 OFFCURVE",
"326 417 QCURVE SMOOTH",
"326 422 OFFCURVE",
"324 424 OFFCURVE",
"320 424 QCURVE SMOOTH",
"210 424 LINE SMOOTH",
"208 424 OFFCURVE",
"204 428 OFFCURVE",
"204 429 QCURVE SMOOTH",
"204 475 LINE SMOOTH",
"204 519 OFFCURVE",
"219 593 OFFCURVE",
"255 645 OFFCURVE",
"282 645 QCURVE SMOOTH",
"302 645 OFFCURVE",
"332 612 OFFCURVE",
"359 579 OFFCURVE",
"376 579 QCURVE SMOOTH",
"403 579 OFFCURVE",
"422 628 OFFCURVE",
"418 659 QCURVE",
"409 674 OFFCURVE",
"354 695 OFFCURVE",
"312 695 QCURVE SMOOTH"
);
}
);
width = 349;
}
);
note = f;
unicode = 0066;
},
{
glyphname = g;
layers = (
{
layerId = "DDCC2651-E394-46D5-8079-7BA98592C969";
paths = (
{
closed = 1;
nodes = (
"356 -122 OFFCURVE",
"285 -174 OFFCURVE",
"229 -174 QCURVE SMOOTH",
"182 -174 OFFCURVE",
"106 -126 OFFCURVE",
"106 -90 QCURVE SMOOTH",
"106 -76 OFFCURVE",
"115 -56 OFFCURVE",
"133 -41 OFFCURVE",
"147 -34 OFFCURVE",
"160 -29 QCURVE",
"163 -27 OFFCURVE",
"165 -26 QCURVE",
"168 -25 OFFCURVE",
"170 -25 QCURVE SMOOTH",
"255 -25 OFFCURVE",
"356 -48 OFFCURVE",
"356 -83 QCURVE SMOOTH"
);
},
{
closed = 1;
nodes = (
"142 335 OFFCURVE",
"176 397 OFFCURVE",
"212 397 QCURVE SMOOTH",
"250 397 OFFCURVE",
"290 331 OFFCURVE",
"290 278 QCURVE SMOOTH",
"290 236 OFFCURVE",
"255 179 OFFCURVE",
"218 179 QCURVE SMOOTH",
"182 179 OFFCURVE",
"142 246 OFFCURVE",
"142 295 QCURVE SMOOTH"
);
},
{
closed = 1;
nodes = (
"143 440 OFFCURVE",
"39 358 OFFCURVE",
"39 287 QCURVE SMOOTH",
"39 244 OFFCURVE",
"89 167 OFFCURVE",
"118 154 QCURVE",
"44 108 OFFCURVE",
"44 65 QCURVE SMOOTH",
"44 35 OFFCURVE",
"88 -10 OFFCURVE",
"114 -18 QCURVE",
"81 -29 OFFCURVE",
"24 -83 OFFCURVE",
"24 -112 QCURVE SMOOTH",
"24 -165 OFFCURVE",
"133 -223 OFFCURVE",
"206 -222 QCURVE SMOOTH",
"302 -222 OFFCURVE",
"448 -112 OFFCURVE",
"447 -37 QCURVE",
"447 12 OFFCURVE",
"354 61 OFFCURVE",
"254 64 QCURVE SMOOTH",
"250 64 OFFCURVE",
"239 64 QCURVE",
"213 65 OFFCURVE",
"185 67 OFFCURVE",
"145 73 OFFCURVE",
"126 87 OFFCURVE",
"126 97 QCURVE SMOOTH",
"126 108 OFFCURVE",
"146 135 OFFCURVE",
"158 140 QCURVE",
"184 136 OFFCURVE",
"220 136 QCURVE SMOOTH",
"294 136 OFFCURVE",
"393 231 OFFCURVE",
"393 290 QCURVE SMOOTH",
"393 313 OFFCURVE",
"375 363 OFFCURVE",
"375 364 QCURVE SMOOTH",
"375 367 OFFCURVE",
"379 367 QCURVE SMOOTH",
"444 367 LINE SMOOTH",
"450 367 OFFCURVE",
"450 381 QCURVE SMOOTH",
"450 388 OFFCURVE",
"440 414 OFFCURVE",
"438 414 QCURVE SMOOTH",
"381 414 LINE SMOOTH",
"348 414 OFFCURVE",
"254 440 OFFCURVE",
"218 440 QCURVE SMOOTH"
);
}
);
width = 477;
}
);
note = g;
unicode = 0067;
},
{
glyphname = h;
layers = (
{
layerId = "DDCC2651-E394-46D5-8079-7BA98592C969";
paths = (
{
closed = 1;
nodes = (
"314 442 OFFCURVE",
"233 403 OFFCURVE",
"212 379 QCURVE",
"209 376 OFFCURVE",
"208 376 QCURVE SMOOTH",
"204 376 OFFCURVE",
"204 382 QCURVE SMOOTH",
"204 584 LINE SMOOTH",
"204 639 OFFCURVE",
"216 678 QCURVE",
"215 683 OFFCURVE",
"207 694 OFFCURVE",
"203 694 QCURVE SMOOTH",
"201 694 LINE SMOOTH",
"201 694 OFFCURVE",
"186 689 OFFCURVE",
"159 679 OFFCURVE",
"122 669 OFFCURVE",
"66 659 OFFCURVE",
"35 656 QCURVE",
"29 656 OFFCURVE",
"29 640 QCURVE SMOOTH",
"29 624 OFFCURVE",
"35 624 QCURVE SMOOTH",
"44 624 LINE SMOOTH",
"91 624 OFFCURVE",
"96 608 QCURVE",
"101 580 OFFCURVE",
"101 540 QCURVE SMOOTH",
"101 124 LINE SMOOTH",
"101 82 OFFCURVE",
"94 52 QCURVE",
"92 45 OFFCURVE",
"43 30 OFFCURVE",
"31 30 QCURVE SMOOTH",
"27 30 OFFCURVE",
"27 0 OFFCURVE",
"31 -4 QCURVE",
"39 -3 OFFCURVE",
"130 3 OFFCURVE",
"154 3 QCURVE SMOOTH",
"177 3 OFFCURVE",
"266 -3 OFFCURVE",
"274 -4 QCURVE",
"276 1 OFFCURVE",
"275 30 OFFCURVE",
"272 30 QCURVE SMOOTH",
"263 30 OFFCURVE",
"214 45 OFFCURVE",
"212 52 QCURVE SMOOTH",
"204 81 OFFCURVE",
"204 142 QCURVE SMOOTH",
"204 314 LINE SMOOTH",
"204 335 OFFCURVE",
"254 369 OFFCURVE",
"284 369 QCURVE SMOOTH",
"333 369 OFFCURVE",
"378 306 OFFCURVE",
"378 223 QCURVE SMOOTH",
"378 125 LINE SMOOTH",
"378 82 OFFCURVE",
"372 52 QCURVE",
"369 45 OFFCURVE",
"324 30 OFFCURVE",
"312 30 QCURVE SMOOTH",
"309 30 OFFCURVE",
"309 0 OFFCURVE",
"312 -4 QCURVE",
"322 -3 OFFCURVE",
"407 3 OFFCURVE",
"432 3 QCURVE SMOOTH",
"454 3 OFFCURVE",
"547 -3 OFFCURVE",
"554 -4 QCURVE",
"555 1 OFFCURVE",
"554 30 OFFCURVE",
"551 30 QCURVE SMOOTH",
"542 30 OFFCURVE",
"491 45 OFFCURVE",
"490 52 QCURVE",
"482 81 OFFCURVE",
"482 142 QCURVE SMOOTH",
"482 245 LINE SMOOTH",
"482 442 OFFCURVE",
"354 442 QCURVE SMOOTH"
);
}
);
width = 578;
}
);
note = h;
unicode = 0068;
},
{
glyphname = i;
layers = (
{
layerId = "DDCC2651-E394-46D5-8079-7BA98592C969";
paths = (
{
closed = 1;
nodes = (
"171 542 OFFCURVE",
"207 579 OFFCURVE",
"207 630 OFFCURVE",
"171 666 OFFCURVE",
"119 666 OFFCURVE",
"83 630 OFFCURVE",
"83 579 OFFCURVE",
"119 542 OFFCURVE"
);
},
{
closed = 1;
nodes = (
"205 334 LINE SMOOTH",
"205 356 OFFCURVE",
"213 420 QCURVE",
"214 424 OFFCURVE",
"208 438 OFFCURVE",
"203 438 QCURVE SMOOTH",
"203 438 OFFCURVE",
"196 436 OFFCURVE",
"195 436 QCURVE",
"169 428 OFFCURVE",
"63 408 OFFCURVE",
"35 406 QCURVE",
"29 405 OFFCURVE",
"29 376 QCURVE SMOOTH",
"29 374 OFFCURVE",
"49 372 OFFCURVE",
"77 362 OFFCURVE",
"86 352 QCURVE SMOOTH",
"102 335 OFFCURVE",
"102 288 QCURVE SMOOTH",
"102 125 LINE SMOOTH",
"102 82 OFFCURVE",
"95 52 QCURVE",
"93 45 OFFCURVE",
"43 30 OFFCURVE",
"32 30 QCURVE SMOOTH",
"28 30 OFFCURVE",
"28 0 OFFCURVE",
"32 -4 QCURVE",
"39 -3 OFFCURVE",
"130 3 OFFCURVE",
"155 3 QCURVE SMOOTH",
"177 3 OFFCURVE",
"270 -3 OFFCURVE",
"277 -4 QCURVE",
"279 1 OFFCURVE",
"278 30 OFFCURVE",
"274 30 QCURVE SMOOTH",
"265 30 OFFCURVE",
"215 45 OFFCURVE",
"213 52 QCURVE SMOOTH",
"205 81 OFFCURVE",
"205 142 QCURVE SMOOTH"
);
}
);
width = 300;
}
);
note = i;
unicode = 0069;
},
{
glyphname = j;
layers = (
{
layerId = "DDCC2651-E394-46D5-8079-7BA98592C969";
paths = (
{
closed = 1;
nodes = (
"108 72 LINE SMOOTH",
"108 24 OFFCURVE",
"97 -57 OFFCURVE",
"79 -111 OFFCURVE",
"57 -152 OFFCURVE",
"34 -175 OFFCURVE",
"16 -190 OFFCURVE",
"3 -196 OFFCURVE",
"3 -196 QCURVE",
"2 -197 OFFCURVE",
"2 -204 OFFCURVE",
"2 -205 QCURVE",
"4 -217 OFFCURVE",
"17 -224 QCURVE",
"45 -218 OFFCURVE",
"144 -149 OFFCURVE",
"168 -111 QCURVE SMOOTH",
"212 -43 OFFCURVE",
"212 94 QCURVE SMOOTH",
"212 334 LINE SMOOTH",
"212 352 OFFCURVE",
"220 420 QCURVE",
"221 424 OFFCURVE",
"215 438 OFFCURVE",
"210 438 QCURVE SMOOTH",
"210 438 OFFCURVE",
"203 436 OFFCURVE",
"202 436 QCURVE",
"176 428 OFFCURVE",
"70 408 OFFCURVE",
"42 406 QCURVE",
"36 405 OFFCURVE",
"36 376 QCURVE SMOOTH",
"36 374 OFFCURVE",
"56 372 OFFCURVE",
"84 362 OFFCURVE",
"92 352 QCURVE",
"108 335 OFFCURVE",
"108 288 QCURVE SMOOTH"
);
},
{
closed = 1;
nodes = (
"175 542 OFFCURVE",
"211 579 OFFCURVE",
"211 630 OFFCURVE",
"175 666 OFFCURVE",
"123 666 OFFCURVE",
"87 630 OFFCURVE",
"87 579 OFFCURVE",
"123 542 OFFCURVE"
);
}
);
width = 280;
}
);
note = j;
unicode = 006A;
},
{
glyphname = k;
layers = (
{
layerId = "DDCC2651-E394-46D5-8079-7BA98592C969";
paths = (
{
closed = 1;
nodes = (
"478 395 OFFCURVE",
"514 395 QCURVE SMOOTH",
"517 395 OFFCURVE",
"520 409 OFFCURVE",
"518 425 OFFCURVE",
"514 428 QCURVE",
"435 424 OFFCURVE",
"408 424 QCURVE SMOOTH",
"387 424 OFFCURVE",
"311 424 QCURVE",
"307 423 OFFCURVE",
"307 402 OFFCURVE",
"310 395 QCURVE",
"310 394 OFFCURVE",
"355 389 OFFCURVE",
"355 378 QCURVE SMOOTH",
"355 372 OFFCURVE",
"348 360 OFFCURVE",
"326 339 OFFCURVE",
"304 321 OFFCURVE",
"255 280 OFFCURVE",
"234 261 QCURVE",
"228 256 OFFCURVE",
"204 250 QCURVE",
"204 584 LINE SMOOTH",
"204 639 OFFCURVE",
"216 678 QCURVE",
"215 683 OFFCURVE",
"207 694 OFFCURVE",
"203 694 QCURVE SMOOTH",
"201 694 LINE SMOOTH",
"201 694 OFFCURVE",
"186 689 OFFCURVE",
"159 679 OFFCURVE",
"122 669 OFFCURVE",
"66 659 OFFCURVE",
"35 656 QCURVE",
"29 656 OFFCURVE",
"29 640 QCURVE SMOOTH",
"29 624 OFFCURVE",
"35 624 QCURVE SMOOTH",
"44 624 LINE SMOOTH",
"91 624 OFFCURVE",
"96 608 QCURVE",
"101 580 OFFCURVE",
"101 540 QCURVE SMOOTH",
"101 125 LINE SMOOTH",
"101 82 OFFCURVE",
"94 52 QCURVE",
"92 45 OFFCURVE",
"43 30 OFFCURVE",
"31 30 QCURVE SMOOTH",
"27 30 OFFCURVE",
"27 0 OFFCURVE",
"31 -4 QCURVE",
"39 -3 OFFCURVE",
"130 3 OFFCURVE",
"154 3 QCURVE SMOOTH",
"177 3 OFFCURVE",
"269 -3 OFFCURVE",
"276 -4 QCURVE",
"278 1 OFFCURVE",
"277 30 OFFCURVE",
"274 30 QCURVE SMOOTH",
"264 30 OFFCURVE",
"214 45 OFFCURVE",
"212 52 QCURVE SMOOTH",
"205 77 OFFCURVE",
"204 142 QCURVE",
"204 204 LINE",
"216 207 LINE",
"362 44 LINE",
"363 44 OFFCURVE",
"363 42 QCURVE SMOOTH",
"363 37 OFFCURVE",
"337 28 OFFCURVE",
"327 28 QCURVE SMOOTH",
"323 28 OFFCURVE",
"323 0 OFFCURVE",
"327 -4 QCURVE",
"341 -3 OFFCURVE",
"388 0 OFFCURVE",
"427 2 OFFCURVE",
"446 2 QCURVE SMOOTH",
"453 2 OFFCURVE",
"563 -3 QCURVE",
"564 0 OFFCURVE",
"564 11 QCURVE SMOOTH",
"564 28 OFFCURVE",
"560 28 QCURVE SMOOTH",
"550 28 OFFCURVE",
"503 44 OFFCURVE",
"488 56 QCURVE SMOOTH",
"477 65 OFFCURVE",
"419 129 OFFCURVE",
"331 229 OFFCURVE",
"302 260 QCURVE",
"338 297 OFFCURVE",
"425 363 OFFCURVE",
"445 375 QCURVE SMOOTH"
);
}
);
width = 596;
}
);
note = k;
unicode = 006B;
},
{
glyphname = l;
layers = (
{
layerId = "DDCC2651-E394-46D5-8079-7BA98592C969";
paths = (
{
closed = 1;
nodes = (
"201 584 LINE SMOOTH",
"201 640 OFFCURVE",
"213 678 QCURVE",
"212 682 OFFCURVE",
"203 694 OFFCURVE",
"199 694 QCURVE SMOOTH",
"197 694 LINE",
"190 691 LINE",
"182 688 OFFCURVE",
"155 679 OFFCURVE",
"118 669 OFFCURVE",
"62 659 OFFCURVE",
"31 656 QCURVE",
"25 656 OFFCURVE",
"25 640 QCURVE SMOOTH",
"25 628 OFFCURVE",
"31 628 QCURVE SMOOTH",
"41 628 LINE SMOOTH",
"86 628 OFFCURVE",
"91 612 QCURVE",
"97 582 OFFCURVE",
"97 544 QCURVE SMOOTH",
"97 128 LINE SMOOTH",
"97 89 OFFCURVE",
"89 54 QCURVE",
"87 47 OFFCURVE",
"42 30 OFFCURVE",
"31 30 QCURVE SMOOTH",
"27 30 OFFCURVE",
"27 1 OFFCURVE",
"31 -3 QCURVE",
"46 -2 OFFCURVE",
"92 1 OFFCURVE",
"130 3 OFFCURVE",
"149 3 QCURVE SMOOTH",
"166 3 OFFCURVE",
"204 1 OFFCURVE",
"251 -2 OFFCURVE",
"265 -3 QCURVE",
"267 2 OFFCURVE",
"266 30 OFFCURVE",
"263 30 QCURVE SMOOTH",
"255 30 OFFCURVE",
"210 47 OFFCURVE",
"208 54 QCURVE SMOOTH",
"201 82 OFFCURVE",
"201 144 QCURVE SMOOTH"
);
}
);
width = 295;
}
);
note = l;
unicode = 006C;
},
{
glyphname = m;
layers = (
{
layerId = "DDCC2651-E394-46D5-8079-7BA98592C969";
paths = (
{
closed = 1;
nodes = (
"315 442 OFFCURVE",
"240 406 OFFCURVE",
"216 382 QCURVE",
"212 379 OFFCURVE",
"211 379 QCURVE",
"209 380 OFFCURVE",
"209 384 QCURVE SMOOTH",
"209 392 OFFCURVE",
"213 420 QCURVE",
"214 424 OFFCURVE",
"208 438 OFFCURVE",
"203 438 QCURVE SMOOTH",
"203 438 OFFCURVE",
"200 438 OFFCURVE",
"196 437 OFFCURVE",
"195 436 QCURVE",
"81 410 OFFCURVE",
"35 406 QCURVE",
"29 405 OFFCURVE",
"29 376 QCURVE SMOOTH",
"29 374 OFFCURVE",
"49 372 OFFCURVE",
"78 362 OFFCURVE",
"86 352 QCURVE",
"102 335 OFFCURVE",
"102 288 QCURVE SMOOTH",
"102 125 LINE SMOOTH",
"102 82 OFFCURVE",
"95 52 QCURVE",
"93 45 OFFCURVE",
"43 30 OFFCURVE",
"32 30 QCURVE SMOOTH",
"28 30 OFFCURVE",
"28 0 OFFCURVE",
"32 -4 QCURVE",
"40 -3 OFFCURVE",
"130 3 OFFCURVE",
"155 3 QCURVE SMOOTH",
"178 3 OFFCURVE",
"267 -3 OFFCURVE",
"275 -4 QCURVE",
"277 1 OFFCURVE",
"276 30 OFFCURVE",
"272 30 QCURVE SMOOTH",
"263 30 OFFCURVE",
"215 45 OFFCURVE",
"213 52 QCURVE SMOOTH",
"205 81 OFFCURVE",
"205 142 QCURVE SMOOTH",
"205 314 LINE SMOOTH",
"205 335 OFFCURVE",
"255 369 OFFCURVE",
"285 369 QCURVE SMOOTH",
"330 369 OFFCURVE",
"376 299 OFFCURVE",
"376 221 QCURVE SMOOTH",
"376 125 LINE SMOOTH",
"376 82 OFFCURVE",
"369 52 QCURVE",
"367 45 OFFCURVE",
"319 30 OFFCURVE",
"307 30 QCURVE SMOOTH",
"304 30 OFFCURVE",
"304 0 OFFCURVE",
"307 -4 QCURVE",
"316 -3 OFFCURVE",
"405 3 OFFCURVE",
"429 3 QCURVE SMOOTH",
"452 3 OFFCURVE",
"543 -3 OFFCURVE",
"550 -4 QCURVE",
"552 1 OFFCURVE",
"551 30 OFFCURVE",
"548 30 QCURVE SMOOTH",
"539 30 OFFCURVE",
"489 45 OFFCURVE",
"487 52 QCURVE",
"480 81 OFFCURVE",
"480 138 QCURVE SMOOTH",
"480 244 LINE SMOOTH",
"480 284 OFFCURVE",
"477 306 QCURVE",
"476 309 OFFCURVE",
"477 319 OFFCURVE",
"477 322 QCURVE",
"481 337 OFFCURVE",
"525 369 OFFCURVE",
"558 369 QCURVE SMOOTH",
"651 369 OFFCURVE",
"651 224 QCURVE SMOOTH",
"651 122 LINE SMOOTH",
"651 82 OFFCURVE",
"644 52 QCURVE",
"642 45 OFFCURVE",
"594 30 OFFCURVE",
"582 30 QCURVE SMOOTH",
"579 30 OFFCURVE",
"579 0 OFFCURVE",
"582 -4 QCURVE",
"591 -3 OFFCURVE",
"680 3 OFFCURVE",
"704 3 QCURVE SMOOTH",
"727 3 OFFCURVE",
"818 -3 OFFCURVE",
"825 -4 QCURVE",
"827 1 OFFCURVE",
"826 30 OFFCURVE",
"823 30 QCURVE SMOOTH",
"814 30 OFFCURVE",
"764 45 OFFCURVE",
"762 52 QCURVE",
"755 81 OFFCURVE",
"755 142 QCURVE SMOOTH",
"755 247 LINE SMOOTH",
"755 286 OFFCURVE",
"742 353 OFFCURVE",
"713 410 OFFCURVE",
"662 442 OFFCURVE",
"626 442 QCURVE SMOOTH",
"576 442 OFFCURVE",
"488 402 OFFCURVE",
"459 372 QCURVE",
"446 403 OFFCURVE",
"392 442 OFFCURVE",
"354 442 QCURVE SMOOTH"
);
}
);
width = 844;
}
);
note = m;
unicode = 006D;
},
{
glyphname = n;
layers = (
{
layerId = "DDCC2651-E394-46D5-8079-7BA98592C969";
paths = (
{
closed = 1;
nodes = (
"315 442 OFFCURVE",
"240 406 OFFCURVE",
"216 382 QCURVE",
"212 379 OFFCURVE",
"211 379 QCURVE",
"210 380 OFFCURVE",
"210 384 QCURVE SMOOTH",
"210 392 OFFCURVE",
"214 420 QCURVE",
"214 424 OFFCURVE",
"208 438 OFFCURVE",
"204 438 QCURVE SMOOTH",
"203 438 OFFCURVE",
"200 438 OFFCURVE",
"197 437 OFFCURVE",
"196 436 QCURVE",
"81 410 OFFCURVE",
"35 406 QCURVE",
"30 405 OFFCURVE",
"30 376 QCURVE SMOOTH",
"30 374 OFFCURVE",
"49 372 OFFCURVE",
"78 362 OFFCURVE",
"86 352 QCURVE",
"102 335 OFFCURVE",
"102 288 QCURVE SMOOTH",
"102 125 LINE SMOOTH",
"102 82 OFFCURVE",
"95 52 QCURVE",
"93 45 OFFCURVE",
"44 30 OFFCURVE",
"32 30 QCURVE SMOOTH",
"28 30 OFFCURVE",
"28 0 OFFCURVE",
"32 -4 QCURVE",
"40 -3 OFFCURVE",
"131 3 OFFCURVE",
"155 3 QCURVE SMOOTH",
"178 3 OFFCURVE",
"267 -3 OFFCURVE",
"275 -4 QCURVE",
"277 1 OFFCURVE",
"276 30 OFFCURVE",
"272 30 QCURVE SMOOTH",
"264 30 OFFCURVE",
"215 45 OFFCURVE",
"213 52 QCURVE",
"206 81 OFFCURVE",
"206 142 QCURVE SMOOTH",
"206 314 LINE SMOOTH",
"206 334 OFFCURVE",
"254 369 OFFCURVE",
"286 369 QCURVE SMOOTH",
"335 369 OFFCURVE",
"380 303 OFFCURVE",
"380 220 QCURVE SMOOTH",
"380 125 LINE SMOOTH",
"380 82 OFFCURVE",
"372 52 QCURVE SMOOTH",
"370 45 OFFCURVE",
"325 30 OFFCURVE",
"314 30 QCURVE SMOOTH",
"310 30 OFFCURVE",
"310 0 OFFCURVE",
"314 -4 QCURVE",
"323 -3 OFFCURVE",
"408 3 OFFCURVE",
"432 3 QCURVE SMOOTH",
"455 3 OFFCURVE",
"548 -3 OFFCURVE",
"554 -4 QCURVE",
"556 1 OFFCURVE",
"555 30 OFFCURVE",
"552 30 QCURVE SMOOTH",
"543 30 OFFCURVE",
"492 45 OFFCURVE",
"490 52 QCURVE",
"483 81 OFFCURVE",
"483 142 QCURVE SMOOTH",
"483 237 LINE SMOOTH",
"483 442 OFFCURVE",
"354 442 QCURVE SMOOTH"
);
}
);
width = 584;
}
);
note = n;
unicode = 006E;
},
{
glyphname = o;
layers = (
{
layerId = "DDCC2651-E394-46D5-8079-7BA98592C969";
paths = (
{
closed = 1;
nodes = (
"280 395 OFFCURVE",
"338 335 OFFCURVE",
"364 246 OFFCURVE",
"364 194 QCURVE SMOOTH",
"364 132 OFFCURVE",
"311 40 OFFCURVE",
"264 40 QCURVE SMOOTH",
"206 40 OFFCURVE",
"141 160 OFFCURVE",
"141 241 QCURVE SMOOTH",
"141 304 OFFCURVE",
"193 395 OFFCURVE",
"240 395 QCURVE SMOOTH"
);
},
{
closed = 1;
nodes = (
"158 442 OFFCURVE",
"27 312 OFFCURVE",
"27 218 QCURVE SMOOTH",
"27 125 OFFCURVE",
"159 -7 OFFCURVE",
"254 -7 QCURVE SMOOTH",
"349 -7 OFFCURVE",
"480 125 OFFCURVE",
"480 218 QCURVE SMOOTH",
"480 311 OFFCURVE",
"347 442 OFFCURVE",
"253 442 QCURVE SMOOTH"
);
}
);
width = 507;
}
);
note = o;
unicode = 006F;
},
{
glyphname = p;
layers = (
{
layerId = "DDCC2651-E394-46D5-8079-7BA98592C969";
paths = (
{
closed = 1;
nodes = (
"275 441 OFFCURVE",
"218 418 OFFCURVE",
"202 406 QCURVE",
"204 414 OFFCURVE",
"204 418 QCURVE SMOOTH",
"204 439 OFFCURVE",
"200 439 QCURVE SMOOTH",
"199 439 OFFCURVE",
"181 434 OFFCURVE",
"181 434 QCURVE",
"115 414 OFFCURVE",
"32 406 QCURVE",
"26 405 OFFCURVE",
"26 376 QCURVE SMOOTH",
"26 374 OFFCURVE",
"46 372 OFFCURVE",
"74 363 OFFCURVE",
"82 353 QCURVE",
"98 336 OFFCURVE",
"98 288 QCURVE SMOOTH",
"98 -94 LINE SMOOTH",
"98 -137 OFFCURVE",
"92 -166 QCURVE",
"89 -174 OFFCURVE",
"40 -189 OFFCURVE",
"28 -189 QCURVE SMOOTH",
"25 -189 OFFCURVE",
"25 -218 OFFCURVE",
"28 -222 QCURVE",
"36 -222 OFFCURVE",
"127 -216 OFFCURVE",
"152 -216 QCURVE SMOOTH",
"174 -216 OFFCURVE",
"267 -222 OFFCURVE",
"274 -222 QCURVE",
"275 -218 OFFCURVE",
"274 -189 OFFCURVE",
"271 -189 QCURVE SMOOTH",
"262 -189 OFFCURVE",
"211 -174 OFFCURVE",
"210 -166 QCURVE",
"202 -138 OFFCURVE",
"202 -76 QCURVE SMOOTH",
"202 -8 LINE SMOOTH",
"202 6 OFFCURVE",
"206 6 QCURVE",
"248 -8 OFFCURVE",
"277 -8 QCURVE SMOOTH",
"373 -8 OFFCURVE",
"512 127 OFFCURVE",
"512 230 QCURVE SMOOTH",
"512 281 OFFCURVE",
"464 375 OFFCURVE",
"364 441 OFFCURVE",
"300 441 QCURVE SMOOTH"
);
},
{
closed = 1;
nodes = (
"332 388 OFFCURVE",
"396 281 OFFCURVE",
"396 200 QCURVE SMOOTH",
"396 124 OFFCURVE",
"333 40 OFFCURVE",
"287 40 QCURVE SMOOTH",
"256 40 OFFCURVE",
"202 79 OFFCURVE",
"202 112 QCURVE SMOOTH",
"202 318 LINE SMOOTH",
"202 350 OFFCURVE",
"243 388 OFFCURVE",
"276 388 QCURVE SMOOTH"
);
}
);
width = 540;
}
);
note = p;
unicode = 0070;
},
{
glyphname = q;
layers = (
{
layerId = "DDCC2651-E394-46D5-8079-7BA98592C969";
paths = (
{
closed = 1;
nodes = (
"169 444 OFFCURVE",
"31 303 OFFCURVE",
"31 208 QCURVE SMOOTH",
"31 120 OFFCURVE",
"155 -6 OFFCURVE",
"240 -6 QCURVE SMOOTH",
"284 -6 OFFCURVE",
"334 24 QCURVE",
"336 24 OFFCURVE",
"338 24 OFFCURVE",
"340 19 OFFCURVE",
"340 15 OFFCURVE",
"340 12 QCURVE SMOOTH",
"340 -94 LINE SMOOTH",
"340 -137 OFFCURVE",
"333 -167 QCURVE",
"331 -174 OFFCURVE",
"282 -190 OFFCURVE",
"270 -190 QCURVE SMOOTH",
"266 -190 OFFCURVE",
"266 -219 OFFCURVE",
"270 -222 QCURVE",
"278 -222 OFFCURVE",
"369 -216 OFFCURVE",
"393 -216 QCURVE SMOOTH",
"416 -216 OFFCURVE",
"508 -222 OFFCURVE",
"515 -222 QCURVE",
"517 -218 OFFCURVE",
"516 -190 OFFCURVE",
"512 -190 QCURVE SMOOTH",
"503 -190 OFFCURVE",
"453 -174 OFFCURVE",
"451 -167 QCURVE",
"444 -138 OFFCURVE",
"444 -83 QCURVE SMOOTH",
"444 300 LINE SMOOTH",
"444 334 OFFCURVE",
"450 394 OFFCURVE",
"456 425 OFFCURVE",
"456 426 QCURVE SMOOTH",
"456 430 OFFCURVE",
"432 442 OFFCURVE",
"428 442 QCURVE SMOOTH",
"426 442 OFFCURVE",
"393 429 OFFCURVE",
"384 429 QCURVE SMOOTH",
"370 429 OFFCURVE",
"304 444 OFFCURVE",
"264 444 QCURVE SMOOTH"
);
},
{
closed = 1;
nodes = (
"298 396 OFFCURVE",
"340 350 OFFCURVE",
"340 320 QCURVE SMOOTH",
"340 110 LINE SMOOTH",
"340 81 OFFCURVE",
"294 50 OFFCURVE",
"268 50 QCURVE SMOOTH",
"209 50 OFFCURVE",
"146 153 OFFCURVE",
"146 235 QCURVE SMOOTH",
"146 263 OFFCURVE",
"156 315 OFFCURVE",
"178 365 OFFCURVE",
"222 396 OFFCURVE",
"252 396 QCURVE SMOOTH"
);
}
);
width = 487;
}
);
note = q;
unicode = 0071;
},
{
glyphname = r;
layers = (
{
layerId = "DDCC2651-E394-46D5-8079-7BA98592C969";
paths = (
{
closed = 1;
nodes = (
"288 442 OFFCURVE",
"226 399 OFFCURVE",
"208 372 QCURVE",
"208 375 OFFCURVE",
"211 396 OFFCURVE",
"213 415 OFFCURVE",
"214 424 OFFCURVE",
"208 438 OFFCURVE",
"204 438 QCURVE SMOOTH",
"203 438 OFFCURVE",
"196 436 OFFCURVE",
"196 436 QCURVE",
"81 410 OFFCURVE",
"35 406 QCURVE",
"30 405 OFFCURVE",
"30 376 QCURVE SMOOTH",
"30 374 OFFCURVE",
"49 372 OFFCURVE",
"78 362 OFFCURVE",
"86 352 QCURVE",
"102 335 OFFCURVE",
"102 288 QCURVE SMOOTH",
"102 125 LINE SMOOTH",
"102 82 OFFCURVE",
"95 52 QCURVE",
"93 45 OFFCURVE",
"44 30 OFFCURVE",
"32 30 QCURVE SMOOTH",
"28 30 OFFCURVE",
"28 0 OFFCURVE",
"32 -4 QCURVE",
"40 -3 OFFCURVE",
"131 3 OFFCURVE",
"155 3 QCURVE SMOOTH",
"178 3 OFFCURVE",
"268 -3 OFFCURVE",
"276 -4 QCURVE",
"277 1 OFFCURVE",
"276 30 OFFCURVE",
"273 30 QCURVE SMOOTH",
"264 30 OFFCURVE",
"215 45 OFFCURVE",
"213 52 QCURVE",
"206 81 OFFCURVE",
"206 142 QCURVE SMOOTH",
"206 267 LINE SMOOTH",
"206 301 OFFCURVE",
"241 364 OFFCURVE",
"272 364 QCURVE SMOOTH",
"294 364 OFFCURVE",
"336 324 OFFCURVE",
"354 324 QCURVE SMOOTH",
"402 324 OFFCURVE",
"402 409 QCURVE",
"375 442 OFFCURVE",
"320 442 QCURVE SMOOTH"
);
}
);
width = 430;
}
);
note = r;
unicode = 0072;
},
{
glyphname = s;
layers = (
{
layerId = "DDCC2651-E394-46D5-8079-7BA98592C969";
paths = (
{
closed = 1;
nodes = (
"126 443 OFFCURVE",
"30 377 OFFCURVE",
"30 316 QCURVE SMOOTH",
"30 274 OFFCURVE",
"80 215 OFFCURVE",
"126 191 QCURVE",
"133 187 OFFCURVE",
"170 168 OFFCURVE",
"183 161 OFFCURVE",
"210 145 OFFCURVE",
"219 134 OFFCURVE",
"233 117 OFFCURVE",
"238 100 OFFCURVE",
"238 90 QCURVE SMOOTH",
"238 63 OFFCURVE",
"202 35 OFFCURVE",
"174 35 QCURVE SMOOTH",
"137 35 OFFCURVE",
"74 86 OFFCURVE",
"66 128 QCURVE",
"65 136 OFFCURVE",
"42 136 QCURVE SMOOTH",
"34 136 OFFCURVE",
"28 131 QCURVE",
"28 112 OFFCURVE",
"38 35 OFFCURVE",
"43 18 QCURVE",
"110 -10 OFFCURVE",
"172 -10 QCURVE SMOOTH",
"241 -10 OFFCURVE",
"338 63 OFFCURVE",
"338 126 QCURVE SMOOTH",
"338 137 OFFCURVE",
"333 158 OFFCURVE",
"327 175 OFFCURVE",
"312 194 OFFCURVE",
"303 206 OFFCURVE",
"282 222 OFFCURVE",
"272 230 OFFCURVE",
"247 245 OFFCURVE",
"240 249 OFFCURVE",
"214 263 OFFCURVE",
"212 264 QCURVE",
"209 265 OFFCURVE",
"202 269 QCURVE SMOOTH",
"183 279 OFFCURVE",
"164 291 OFFCURVE",
"139 311 OFFCURVE",
"128 334 OFFCURVE",
"128 348 QCURVE SMOOTH",
"128 372 OFFCURVE",
"161 398 OFFCURVE",
"190 398 QCURVE SMOOTH",
"228 398 OFFCURVE",
"273 349 OFFCURVE",
"280 314 QCURVE",
"282 306 OFFCURVE",
"304 306 QCURVE SMOOTH",
"317 306 OFFCURVE",
"317 314 QCURVE",
"316 381 OFFCURVE",
"306 426 QCURVE",
"246 443 OFFCURVE",
"190 443 QCURVE SMOOTH"
);
}
);
width = 366;
}
);
note = s;
unicode = 0073;
},
{
glyphname = t;
layers = (
{
layerId = "DDCC2651-E394-46D5-8079-7BA98592C969";
paths = (
{
closed = 1;
nodes = (
"85 130 LINE SMOOTH",
"85 60 OFFCURVE",
"158 -7 OFFCURVE",
"210 -7 QCURVE SMOOTH",
"245 -7 OFFCURVE",
"318 30 OFFCURVE",
"324 44 QCURVE",
"325 47 OFFCURVE",
"315 67 OFFCURVE",
"311 66 QCURVE",
"310 66 OFFCURVE",
"298 60 OFFCURVE",
"284 54 OFFCURVE",
"262 49 OFFCURVE",
"252 49 QCURVE SMOOTH",
"222 49 OFFCURVE",
"188 91 OFFCURVE",
"188 131 QCURVE SMOOTH",
"188 372 LINE",
"308 372 LINE",
"318 392 OFFCURVE",
"318 416 QCURVE SMOOTH",
"318 425 OFFCURVE",
"310 425 QCURVE SMOOTH",
"307 425 OFFCURVE",
"214 426 OFFCURVE",
"188 426 QCURVE",
"188 524 LINE SMOOTH",
"188 527 OFFCURVE",
"170 532 OFFCURVE",
"160 532 QCURVE SMOOTH",
"160 532 OFFCURVE",
"139 506 OFFCURVE",
"108 473 OFFCURVE",
"95 460 QCURVE SMOOTH",
"58 425 OFFCURVE",
"18 407 QCURVE",
"17 405 OFFCURVE",
"17 398 QCURVE SMOOTH",
"17 372 OFFCURVE",
"24 372 QCURVE SMOOTH",
"85 372 LINE"
);
}
);
width = 350;
}
);
note = t;
unicode = 0074;
},
{
glyphname = u;
layers = (
{
layerId = "DDCC2651-E394-46D5-8079-7BA98592C969";
paths = (
{
closed = 1;
nodes = (
"464 352 OFFCURVE",
"472 420 QCURVE",
"473 424 OFFCURVE",
"467 438 OFFCURVE",
"462 438 QCURVE SMOOTH",
"462 438 OFFCURVE",
"455 436 OFFCURVE",
"454 436 QCURVE",
"428 428 OFFCURVE",
"322 408 OFFCURVE",
"294 406 QCURVE",
"288 405 OFFCURVE",
"288 376 QCURVE SMOOTH",
"288 374 OFFCURVE",
"308 372 OFFCURVE",
"337 362 OFFCURVE",
"345 352 QCURVE",
"361 335 OFFCURVE",
"361 288 QCURVE SMOOTH",
"361 123 LINE SMOOTH",
"361 105 OFFCURVE",
"317 66 OFFCURVE",
"285 66 QCURVE SMOOTH",
"236 66 OFFCURVE",
"192 134 OFFCURVE",
"192 212 QCURVE SMOOTH",
"192 332 LINE SMOOTH",
"192 352 OFFCURVE",
"201 420 QCURVE",
"201 424 OFFCURVE",
"196 438 OFFCURVE",
"191 438 QCURVE SMOOTH",
"190 438 OFFCURVE",
"184 436 OFFCURVE",
"183 436 QCURVE",
"157 428 OFFCURVE",
"51 408 OFFCURVE",
"22 406 QCURVE",
"17 405 OFFCURVE",
"17 376 QCURVE SMOOTH",
"17 374 OFFCURVE",
"37 372 OFFCURVE",
"65 362 OFFCURVE",
"74 352 QCURVE SMOOTH",
"90 335 OFFCURVE",
"90 288 QCURVE SMOOTH",
"90 176 LINE SMOOTH",
"90 144 OFFCURVE",
"103 82 OFFCURVE",
"132 28 OFFCURVE",
"183 -6 OFFCURVE",
"217 -6 QCURVE SMOOTH",
"258 -6 OFFCURVE",
"334 34 OFFCURVE",
"357 59 QCURVE",
"359 59 OFFCURVE",
"360 54 QCURVE",
"360 10 LINE SMOOTH",
"360 -6 OFFCURVE",
"367 -6 QCURVE",
"367 -6 OFFCURVE",
"389 -2 OFFCURVE",
"425 6 OFFCURVE",
"465 13 OFFCURVE",
"508 20 OFFCURVE",
"522 20 QCURVE SMOOTH",
"526 20 OFFCURVE",
"530 39 OFFCURVE",
"530 43 QCURVE SMOOTH",
"530 51 OFFCURVE",
"526 52 QCURVE",
"525 53 OFFCURVE",
"510 53 OFFCURVE",
"492 55 OFFCURVE",
"475 61 OFFCURVE",
"472 66 QCURVE",
"464 88 OFFCURVE",
"464 136 QCURVE SMOOTH",
"464 334 LINE SMOOTH"
);
}
);
width = 555;
}
);
note = u;
unicode = 0075;
},
{
glyphname = v;
layers = (
{
layerId = "DDCC2651-E394-46D5-8079-7BA98592C969";
paths = (
{
closed = 1;
nodes = (
"403 368 OFFCURVE",
"391 342 QCURVE SMOOTH",
"301 144 LINE",
"202 374 LINE",
"200 377 OFFCURVE",
"200 384 QCURVE SMOOTH",
"200 394 OFFCURVE",
"245 406 OFFCURVE",
"258 406 QCURVE SMOOTH",
"262 406 OFFCURVE",
"263 434 OFFCURVE",
"260 438 QCURVE",
"253 438 OFFCURVE",
"163 432 OFFCURVE",
"115 432 OFFCURVE",
"27 438 OFFCURVE",
"18 438 QCURVE",
"14 434 OFFCURVE",
"14 422 QCURVE SMOOTH",
"14 406 OFFCURVE",
"18 406 QCURVE SMOOTH",
"71 406 OFFCURVE",
"83 378 QCURVE SMOOTH",
"115 309 OFFCURVE",
"165 199 OFFCURVE",
"234 40 OFFCURVE",
"254 -5 QCURVE",
"256 -11 OFFCURVE",
"266 -11 QCURVE SMOOTH",
"274 -11 OFFCURVE",
"292 7 OFFCURVE",
"296 15 QCURVE SMOOTH",
"463 368 LINE SMOOTH",
"472 387 OFFCURVE",
"522 406 OFFCURVE",
"536 406 QCURVE SMOOTH",
"542 406 OFFCURVE",
"542 422 QCURVE SMOOTH",
"542 434 OFFCURVE",
"539 438 QCURVE",
"526 438 OFFCURVE",
"454 432 OFFCURVE",
"409 432 OFFCURVE",
"340 438 OFFCURVE",
"326 438 QCURVE",
"323 434 OFFCURVE",
"323 406 OFFCURVE",
"326 406 QCURVE SMOOTH",
"383 406 OFFCURVE",
"396 379 QCURVE"
);
}
);
width = 560;
}
);
note = v;
unicode = 0076;
},
{
glyphname = w;
layers = (
{
layerId = "DDCC2651-E394-46D5-8079-7BA98592C969";
paths = (
{
closed = 1;
nodes = (
"654 358 OFFCURVE",
"632 303 OFFCURVE",
"585 190 OFFCURVE",
"569 148 QCURVE",
"475 351 OFFCURVE",
"475 370 QCURVE SMOOTH",
"475 405 OFFCURVE",
"526 405 QCURVE SMOOTH",
"529 405 OFFCURVE",
"530 434 OFFCURVE",
"528 438 QCURVE",
"520 438 OFFCURVE",
"434 432 OFFCURVE",
"412 432 QCURVE SMOOTH",
"388 432 OFFCURVE",
"311 438 OFFCURVE",
"300 438 QCURVE",
"296 435 OFFCURVE",
"296 406 OFFCURVE",
"300 406 QCURVE SMOOTH",
"325 406 OFFCURVE",
"336 400 QCURVE",
"351 394 OFFCURVE",
"358 384 QCURVE SMOOTH",
"371 364 OFFCURVE",
"371 344 QCURVE SMOOTH",
"371 341 OFFCURVE",
"365 322 OFFCURVE",
"350 284 OFFCURVE",
"335 247 OFFCURVE",
"306 176 OFFCURVE",
"295 148 QCURVE",
"195 376 OFFCURVE",
"195 378 QCURVE SMOOTH",
"195 392 OFFCURVE",
"238 406 OFFCURVE",
"251 406 QCURVE",
"254 407 OFFCURVE",
"254 433 OFFCURVE",
"252 438 QCURVE",
"245 438 OFFCURVE",
"155 432 OFFCURVE",
"132 432 QCURVE SMOOTH",
"109 432 OFFCURVE",
"28 438 OFFCURVE",
"18 438 QCURVE",
"14 435 OFFCURVE",
"14 421 QCURVE SMOOTH",
"14 405 OFFCURVE",
"18 405 QCURVE SMOOTH",
"31 405 OFFCURVE",
"69 391 OFFCURVE",
"76 378 QCURVE SMOOTH",
"110 311 OFFCURVE",
"162 197 OFFCURVE",
"225 48 OFFCURVE",
"248 -4 QCURVE",
"252 -11 OFFCURVE",
"262 -11 QCURVE SMOOTH",
"275 -11 OFFCURVE",
"292 5 OFFCURVE",
"295 11 QCURVE",
"402 272 LINE",
"524 -4 LINE SMOOTH",
"527 -11 OFFCURVE",
"537 -11 QCURVE SMOOTH",
"547 -11 OFFCURVE",
"566 2 OFFCURVE",
"570 10 QCURVE",
"718 363 LINE SMOOTH",
"725 381 OFFCURVE",
"780 406 OFFCURVE",
"792 406 QCURVE SMOOTH",
"796 406 OFFCURVE",
"796 421 QCURVE SMOOTH",
"796 431 OFFCURVE",
"794 438 QCURVE",
"779 438 OFFCURVE",
"714 432 OFFCURVE",
"693 432 QCURVE SMOOTH",
"669 432 OFFCURVE",
"589 438 OFFCURVE",
"576 438 QCURVE",
"573 435 OFFCURVE",
"574 405 OFFCURVE",
"578 405 QCURVE SMOOTH",
"582 405 LINE SMOOTH",
"592 405 OFFCURVE",
"613 402 OFFCURVE",
"638 395 OFFCURVE",
"654 378 OFFCURVE",
"654 366 QCURVE SMOOTH"
);
}
);
width = 815;
}
);
note = w;
unicode = 0077;
},
{
glyphname = x;
layers = (
{
layerId = "DDCC2651-E394-46D5-8079-7BA98592C969";
paths = (
{
closed = 1;
nodes = (
"32 405 OFFCURVE",
"36 405 QCURVE SMOOTH",
"53 405 OFFCURVE",
"101 384 OFFCURVE",
"112 369 QCURVE SMOOTH",
"227 213 LINE SMOOTH",
"230 209 OFFCURVE",
"230 206 QCURVE SMOOTH",
"230 202 OFFCURVE",
"228 198 QCURVE",
"121 68 LINE SMOOTH",
"99 40 OFFCURVE",
"34 30 QCURVE",
"30 30 OFFCURVE",
"30 13 QCURVE SMOOTH",
"30 4 OFFCURVE",
"32 -4 QCURVE",
"47 -3 OFFCURVE",
"89 1 OFFCURVE",
"123 3 OFFCURVE",
"142 3 QCURVE SMOOTH",
"161 3 OFFCURVE",
"195 1 OFFCURVE",
"236 -3 OFFCURVE",
"251 -4 QCURVE",
"255 0 OFFCURVE",
"255 13 QCURVE SMOOTH",
"255 30 OFFCURVE",
"252 30 QCURVE SMOOTH",
"250 30 OFFCURVE",
"227 33 OFFCURVE",
"216 35 OFFCURVE",
"200 40 OFFCURVE",
"193 48 OFFCURVE",
"193 54 QCURVE SMOOTH",
"193 63 OFFCURVE",
"200 72 QCURVE",
"263 160 LINE",
"335 60 LINE",
"337 56 OFFCURVE",
"337 54 QCURVE SMOOTH",
"337 44 OFFCURVE",
"307 30 OFFCURVE",
"293 30 QCURVE SMOOTH",
"290 30 OFFCURVE",
"290 9 QCURVE SMOOTH",
"290 6 OFFCURVE",
"292 -4 QCURVE",
"309 -3 OFFCURVE",
"356 1 OFFCURVE",
"394 3 OFFCURVE",
"416 3 QCURVE SMOOTH",
"436 3 OFFCURVE",
"471 1 OFFCURVE",
"514 -3 OFFCURVE",
"529 -4 QCURVE",
"533 2 OFFCURVE",
"533 11 QCURVE SMOOTH",
"533 28 OFFCURVE",
"530 28 QCURVE",
"477 35 OFFCURVE",
"447 77 QCURVE SMOOTH",
"334 232 LINE",
"330 236 OFFCURVE",
"330 242 QCURVE SMOOTH",
"330 246 OFFCURVE",
"332 250 QCURVE",
"438 374 LINE SMOOTH",
"458 398 OFFCURVE",
"526 406 QCURVE",
"528 406 OFFCURVE",
"528 422 QCURVE SMOOTH",
"528 431 OFFCURVE",
"526 438 QCURVE",
"429 432 OFFCURVE",
"422 432 QCURVE SMOOTH",
"415 432 OFFCURVE",
"306 438 QCURVE",
"302 434 OFFCURVE",
"302 422 QCURVE SMOOTH",
"302 406 OFFCURVE",
"306 406 QCURVE",
"307 405 OFFCURVE",
"328 404 OFFCURVE",
"347 402 OFFCURVE",
"364 393 OFFCURVE",
"364 386 QCURVE SMOOTH",
"364 378 OFFCURVE",
"345 348 OFFCURVE",
"305 294 OFFCURVE",
"298 284 QCURVE",
"235 373 LINE SMOOTH",
"230 380 OFFCURVE",
"230 385 QCURVE SMOOTH",
"230 395 OFFCURVE",
"258 406 OFFCURVE",
"272 406 QCURVE SMOOTH",
"276 406 OFFCURVE",
"276 424 QCURVE SMOOTH",
"276 434 OFFCURVE",
"274 438 QCURVE",
"162 432 OFFCURVE",
"154 432 QCURVE SMOOTH",
"146 432 OFFCURVE",
"36 438 QCURVE",
"32 432 OFFCURVE",
"32 422 QCURVE SMOOTH"
);
}
);
width = 566;
}
);
note = x;
unicode = 0078;
},
{
glyphname = y;
layers = (
{
layerId = "DDCC2651-E394-46D5-8079-7BA98592C969";
paths = (
{
closed = 1;
nodes = (
"110 432 OFFCURVE",
"15 438 OFFCURVE",
"9 438 QCURVE",
"6 436 OFFCURVE",
"6 420 QCURVE SMOOTH",
"6 406 OFFCURVE",
"10 406 QCURVE SMOOTH",
"23 406 OFFCURVE",
"62 391 OFFCURVE",
"72 376 QCURVE",
"76 371 OFFCURVE",
"84 353 QCURVE SMOOTH",
"230 13 LINE",
"227 5 OFFCURVE",
"203 -55 QCURVE SMOOTH",
"170 -137 OFFCURVE",
"66 -137 QCURVE",
"47 -150 OFFCURVE",
"47 -176 QCURVE SMOOTH",
"47 -194 OFFCURVE",
"75 -222 OFFCURVE",
"101 -222 QCURVE SMOOTH",
"188 -222 OFFCURVE",
"250 -76 QCURVE SMOOTH",
"433 366 LINE SMOOTH",
"441 386 OFFCURVE",
"494 406 OFFCURVE",
"508 406 QCURVE SMOOTH",
"512 406 OFFCURVE",
"512 422 QCURVE SMOOTH",
"512 432 OFFCURVE",
"508 438 QCURVE",
"494 438 OFFCURVE",
"433 432 OFFCURVE",
"412 432 QCURVE SMOOTH",
"388 432 OFFCURVE",
"314 438 OFFCURVE",
"302 438 QCURVE",
"298 434 OFFCURVE",
"298 421 QCURVE SMOOTH",
"298 406 OFFCURVE",
"302 406 QCURVE SMOOTH",
"334 406 OFFCURVE",
"366 383 OFFCURVE",
"366 370 QCURVE SMOOTH",
"366 356 OFFCURVE",
"360 339 QCURVE",
"355 327 OFFCURVE",
"293 166 OFFCURVE",
"285 148 QCURVE",
"194 360 OFFCURVE",
"192 376 QCURVE",
"192 382 LINE",
"193 391 OFFCURVE",
"236 406 OFFCURVE",
"246 406 QCURVE SMOOTH",
"250 406 OFFCURVE",
"250 420 QCURVE SMOOTH",
"250 431 OFFCURVE",
"248 438 QCURVE",
"238 438 OFFCURVE",
"156 432 OFFCURVE",
"134 432 QCURVE SMOOTH"
);
}
);
width = 524;
}
);
note = y;
unicode = 0079;
},
{
glyphname = z;
layers = (
{
layerId = "DDCC2651-E394-46D5-8079-7BA98592C969";
paths = (
{
closed = 1;
nodes = (
"158 58 OFFCURVE",
"166 68 QCURVE",
"396 408 LINE",
"396 427 OFFCURVE",
"394 432 QCURVE",
"328 424 OFFCURVE",
"268 424 QCURVE SMOOTH",
"146 424 LINE SMOOTH",
"110 424 OFFCURVE",
"51 430 QCURVE",
"49 400 OFFCURVE",
"35 307 OFFCURVE",
"35 302 QCURVE SMOOTH",
"35 300 OFFCURVE",
"46 300 QCURVE SMOOTH",
"68 300 OFFCURVE",
"71 306 QCURVE",
"71 307 OFFCURVE",
"77 321 OFFCURVE",
"81 329 OFFCURVE",
"90 344 OFFCURVE",
"97 354 OFFCURVE",
"110 366 OFFCURVE",
"124 373 OFFCURVE",
"142 378 OFFCURVE",
"152 378 QCURVE SMOOTH",
"258 376 LINE",
"27 27 LINE",
"26 26 OFFCURVE",
"26 23 QCURVE SMOOTH",
"26 12 OFFCURVE",
"46 0 QCURVE",
"386 0 LINE",
"404 127 LINE",
"399 135 OFFCURVE",
"370 135 OFFCURVE",
"367 125 QCURVE SMOOTH",
"341 47 OFFCURVE",
"267 47 QCURVE SMOOTH",
"170 47 LINE SMOOTH",
"168 47 OFFCURVE",
"158 51 OFFCURVE",
"158 54 QCURVE SMOOTH"
);
}
);
width = 431;
}
);
note = z;
unicode = 007A;
},
{
glyphname = braceleft;
layers = (
{
layerId = "DDCC2651-E394-46D5-8079-7BA98592C969";
paths = (
{
closed = 1;
nodes = (
"29 291 OFFCURVE",
"58 283 OFFCURVE",
"67 279 OFFCURVE",
"89 270 OFFCURVE",
"97 261 OFFCURVE",
"110 248 OFFCURVE",
"114 230 OFFCURVE",
"114 219 QCURVE SMOOTH",
"114 194 OFFCURVE",
"82 86 OFFCURVE",
"82 56 QCURVE SMOOTH",
"82 -19 OFFCURVE",
"197 -125 OFFCURVE",
"264 -125 QCURVE SMOOTH",
"268 -125 OFFCURVE",
"268 -116 QCURVE SMOOTH",
"268 -95 OFFCURVE",
"260 -94 QCURVE",
"232 -92 OFFCURVE",
"168 -26 OFFCURVE",
"168 18 QCURVE SMOOTH",
"168 53 OFFCURVE",
"202 149 OFFCURVE",
"202 192 QCURVE SMOOTH",
"202 238 OFFCURVE",
"149 308 OFFCURVE",
"120 308 QCURVE",
"148 308 OFFCURVE",
"202 381 OFFCURVE",
"202 428 QCURVE SMOOTH",
"202 471 OFFCURVE",
"168 578 OFFCURVE",
"168 613 QCURVE SMOOTH",
"168 657 OFFCURVE",
"231 717 OFFCURVE",
"260 719 QCURVE",
"268 720 OFFCURVE",
"268 740 QCURVE SMOOTH",
"268 750 OFFCURVE",
"264 750 QCURVE SMOOTH",
"194 750 OFFCURVE",
"80 654 OFFCURVE",
"80 574 QCURVE SMOOTH",
"80 542 OFFCURVE",
"114 431 OFFCURVE",
"114 381 OFFCURVE",
"86 348 OFFCURVE",
"54 335 OFFCURVE",
"26 328 QCURVE",
"22 321 OFFCURVE",
"22 310 QCURVE SMOOTH",
"22 300 OFFCURVE",
"26 292 QCURVE"
);
}
);
width = 290;
}
);
note = braceleft;
unicode = 007B;
},
{
glyphname = bar;
layers = (
{
layerId = "DDCC2651-E394-46D5-8079-7BA98592C969";
paths = (
{
closed = 1;
nodes = (
"110 766 LINE",
"110 768 LINE SMOOTH",
"110 769 OFFCURVE",
"106 772 OFFCURVE",
"102 772 QCURVE SMOOTH",
"64 772 OFFCURVE",
"40 765 QCURVE",
"34 763 OFFCURVE",
"35 757 QCURVE",
"35 -115 LINE SMOOTH",
"35 -122 OFFCURVE",
"47 -122 OFFCURVE",
"111 -110 OFFCURVE",
"111 -106 QCURVE"
);
}
);
width = 145;
}
);
note = bar;
unicode = 007C;
},
{
glyphname = braceright;
layers = (
{
layerId = "DDCC2651-E394-46D5-8079-7BA98592C969";
paths = (
{
closed = 1;
nodes = (
"267 298 OFFCURVE",
"267 310 QCURVE SMOOTH",
"267 321 OFFCURVE",
"263 328 QCURVE",
"221 338 OFFCURVE",
"176 370 OFFCURVE",
"176 406 QCURVE SMOOTH",
"176 431 OFFCURVE",
"210 542 OFFCURVE",
"210 574 QCURVE SMOOTH",
"210 654 OFFCURVE",
"95 750 OFFCURVE",
"25 750 QCURVE SMOOTH",
"21 750 OFFCURVE",
"21 740 QCURVE SMOOTH",
"21 720 OFFCURVE",
"30 719 QCURVE",
"58 717 OFFCURVE",
"121 657 OFFCURVE",
"121 613 QCURVE SMOOTH",
"121 578 OFFCURVE",
"88 471 OFFCURVE",
"88 428 QCURVE SMOOTH",
"88 381 OFFCURVE",
"142 308 OFFCURVE",
"170 308 QCURVE",
"141 308 OFFCURVE",
"87 238 OFFCURVE",
"87 192 QCURVE SMOOTH",
"87 149 OFFCURVE",
"121 53 OFFCURVE",
"121 18 QCURVE SMOOTH",
"121 -26 OFFCURVE",
"58 -92 OFFCURVE",
"30 -94 QCURVE",
"21 -96 OFFCURVE",
"21 -116 QCURVE SMOOTH",
"21 -125 OFFCURVE",
"25 -125 QCURVE SMOOTH",
"92 -125 OFFCURVE",
"208 -19 OFFCURVE",
"208 56 QCURVE SMOOTH",
"208 86 OFFCURVE",
"176 194 OFFCURVE",
"176 219 QCURVE SMOOTH",
"176 230 OFFCURVE",
"180 248 OFFCURVE",
"193 261 OFFCURVE",
"201 270 OFFCURVE",
"223 279 OFFCURVE",
"232 283 OFFCURVE",
"261 291 OFFCURVE",
"264 292 QCURVE"
);
}
);
width = 289;
}
);
note = braceright;
unicode = 007D;
},
{
glyphname = asciitilde;
layers = (
{
layerId = "DDCC2651-E394-46D5-8079-7BA98592C969";
paths = (
{
closed = 1;
nodes = (
"59 274 OFFCURVE",
"74 284 OFFCURVE",
"110 300 OFFCURVE",
"128 300 QCURVE SMOOTH",
"176 300 OFFCURVE",
"318 248 OFFCURVE",
"365 248 QCURVE SMOOTH",
"420 248 OFFCURVE",
"470 286 QCURVE SMOOTH",
"493 303 OFFCURVE",
"493 326 QCURVE SMOOTH",
"493 344 OFFCURVE",
"484 348 QCURVE",
"482 346 OFFCURVE",
"465 333 OFFCURVE",
"461 330 OFFCURVE",
"446 319 OFFCURVE",
"439 316 OFFCURVE",
"425 309 OFFCURVE",
"415 306 OFFCURVE",
"401 304 OFFCURVE",
"394 304 QCURVE SMOOTH",
"347 304 OFFCURVE",
"205 356 OFFCURVE",
"158 356 QCURVE SMOOTH",
"105 356 OFFCURVE",
"52 318 QCURVE SMOOTH",
"28 302 OFFCURVE",
"28 278 QCURVE SMOOTH",
"28 260 OFFCURVE",
"37 256 QCURVE"
);
}
);
width = 520;
}
);
note = asciitilde;
unicode = 007E;
},
{
glyphname = exclamdown;
layers = (
{
layerId = "DDCC2651-E394-46D5-8079-7BA98592C969";
paths = (
{
closed = 1;
nodes = (
"115 -231 OFFCURVE",
"147 -194 OFFCURVE",
"147 -166 QCURVE SMOOTH",
"147 -149 OFFCURVE",
"137 -41 OFFCURVE",
"119 149 OFFCURVE",
"112 230 QCURVE",
"110 242 OFFCURVE",
"97 257 OFFCURVE",
"89 256 QCURVE",
"74 251 OFFCURVE",
"71 228 QCURVE",
"66 161 OFFCURVE",
"47 -26 OFFCURVE",
"35 -149 OFFCURVE",
"35 -166 QCURVE SMOOTH",
"35 -194 OFFCURVE",
"66 -231 OFFCURVE",
"91 -231 QCURVE SMOOTH"
);
},
{
closed = 1;
nodes = (
"117 304 OFFCURVE",
"155 343 OFFCURVE",
"155 397 OFFCURVE",
"118 438 OFFCURVE",
"91 438 QCURVE SMOOTH",
"65 438 OFFCURVE",
"25 398 OFFCURVE",
"25 342 OFFCURVE",
"63 304 OFFCURVE",
"89 304 QCURVE SMOOTH"
);
}
);
width = 179;
}
);
note = exclamdown;
unicode = 00A1;
},
{
glyphname = cent;
layers = (
{
layerId = "DDCC2651-E394-46D5-8079-7BA98592C969";
paths = (
{
closed = 1;
nodes = (
"194 -36 LINE",
"194 -45 OFFCURVE",
"231 -45 QCURVE",
"314 466 LINE",
"314 474 OFFCURVE",
"277 474 QCURVE"
);
},
{
closed = 1;
nodes = (
"167 441 OFFCURVE",
"43 308 OFFCURVE",
"43 218 QCURVE SMOOTH",
"43 118 OFFCURVE",
"164 -8 OFFCURVE",
"255 -8 QCURVE SMOOTH",
"309 -8 OFFCURVE",
"396 48 OFFCURVE",
"414 75 QCURVE",
"420 82 OFFCURVE",
"420 94 QCURVE SMOOTH",
"420 99 OFFCURVE",
"414 110 OFFCURVE",
"412 110 QCURVE SMOOTH",
"410 110 OFFCURVE",
"391 95 OFFCURVE",
"372 84 OFFCURVE",
"343 70 OFFCURVE",
"305 62 OFFCURVE",
"285 62 QCURVE SMOOTH",
"226 62 OFFCURVE",
"152 152 OFFCURVE",
"152 244 QCURVE SMOOTH",
"152 311 OFFCURVE",
"203 396 OFFCURVE",
"246 396 QCURVE SMOOTH",
"273 396 OFFCURVE",
"305 372 OFFCURVE",
"320 348 QCURVE",
"332 327 OFFCURVE",
"353 307 OFFCURVE",
"368 307 QCURVE SMOOTH",
"414 307 OFFCURVE",
"414 384 QCURVE",
"400 406 OFFCURVE",
"314 441 OFFCURVE",
"260 441 QCURVE SMOOTH"
);
}
);
width = 463;
}
);
note = cent;
unicode = 00A2;
},
{
glyphname = sterling;
layers = (
{
layerId = "DDCC2651-E394-46D5-8079-7BA98592C969";
paths = (
{
closed = 1;
nodes = (
"48 318 OFFCURVE",
"48 298 QCURVE SMOOTH",
"48 284 OFFCURVE",
"53 284 QCURVE SMOOTH",
"316 284 LINE",
"324 289 OFFCURVE",
"332 310 OFFCURVE",
"332 317 QCURVE SMOOTH",
"332 327 OFFCURVE",
"326 327 QCURVE SMOOTH",
"54 327 LINE"
);
},
{
closed = 1;
nodes = (
"202 638 OFFCURVE",
"90 523 OFFCURVE",
"90 431 QCURVE SMOOTH",
"90 403 OFFCURVE",
"110 251 OFFCURVE",
"110 234 QCURVE SMOOTH",
"110 114 OFFCURVE",
"96 82 QCURVE",
"91 76 OFFCURVE",
"54 28 OFFCURVE",
"46 15 QCURVE",
"46 9 OFFCURVE",
"60 -7 OFFCURVE",
"72 -8 QCURVE",
"72 -8 OFFCURVE",
"89 4 OFFCURVE",
"96 9 OFFCURVE",
"113 19 OFFCURVE",
"126 23 OFFCURVE",
"144 28 OFFCURVE",
"153 28 QCURVE SMOOTH",
"176 28 OFFCURVE",
"305 -8 OFFCURVE",
"340 -8 QCURVE SMOOTH",
"372 -8 OFFCURVE",
"426 39 OFFCURVE",
"449 86 OFFCURVE",
"457 111 QCURVE",
"458 115 OFFCURVE",
"458 122 QCURVE SMOOTH",
"458 129 OFFCURVE",
"446 142 OFFCURVE",
"440 142 QCURVE",
"438 138 OFFCURVE",
"422 110 OFFCURVE",
"413 98 OFFCURVE",
"396 79 OFFCURVE",
"377 72 OFFCURVE",
"365 72 QCURVE SMOOTH",
"350 72 OFFCURVE",
"247 102 OFFCURVE",
"218 102 QCURVE SMOOTH",
"178 102 OFFCURVE",
"156 94 QCURVE",
"200 160 OFFCURVE",
"200 259 QCURVE SMOOTH",
"200 285 OFFCURVE",
"180 441 OFFCURVE",
"180 464 QCURVE SMOOTH",
"180 524 OFFCURVE",
"213 592 OFFCURVE",
"254 592 QCURVE SMOOTH",
"269 592 OFFCURVE",
"293 571 OFFCURVE",
"307 547 OFFCURVE",
"331 527 OFFCURVE",
"346 527 QCURVE SMOOTH",
"362 527 OFFCURVE",
"381 554 OFFCURVE",
"386 583 OFFCURVE",
"386 599 QCURVE",
"375 617 OFFCURVE",
"319 638 OFFCURVE",
"286 638 QCURVE SMOOTH"
);
}
);
width = 482;
}
);
note = sterling;
unicode = 00A3;
},
{
glyphname = currency;
layers = (
{
layerId = "DDCC2651-E394-46D5-8079-7BA98592C969";
paths = (
{
closed = 1;
nodes = (
"195 158 OFFCURVE",
"141 258 OFFCURVE",
"141 326 QCURVE SMOOTH",
"141 379 OFFCURVE",
"185 458 OFFCURVE",
"224 458 QCURVE SMOOTH",
"273 458 OFFCURVE",
"327 355 OFFCURVE",
"327 286 QCURVE SMOOTH",
"327 235 OFFCURVE",
"283 158 OFFCURVE",
"243 158 QCURVE SMOOTH"
);
},
{
closed = 1;
nodes = (
"295 497 OFFCURVE",
"234 497 QCURVE SMOOTH",
"176 497 OFFCURVE",
"130 466 QCURVE",
"79 520 LINE",
"67 517 OFFCURVE",
"42 500 OFFCURVE",
"29 482 OFFCURVE",
"33 478 QCURVE SMOOTH",
"84 424 LINE",
"45 372 OFFCURVE",
"45 308 QCURVE SMOOTH",
"45 249 OFFCURVE",
"75 204 QCURVE",
"23 155 LINE",
"26 143 OFFCURVE",
"43 118 OFFCURVE",
"61 105 OFFCURVE",
"65 109 QCURVE",
"118 158 LINE",
"169 120 OFFCURVE",
"234 120 QCURVE SMOOTH",
"291 120 OFFCURVE",
"339 152 QCURVE",
"389 99 LINE",
"400 102 OFFCURVE",
"426 120 OFFCURVE",
"439 138 OFFCURVE",
"435 142 QCURVE SMOOTH",
"385 194 LINE",
"423 245 OFFCURVE",
"423 308 QCURVE SMOOTH",
"423 364 OFFCURVE",
"390 413 QCURVE",
"445 464 LINE",
"442 475 OFFCURVE",
"424 501 OFFCURVE",
"406 514 OFFCURVE",
"402 510 QCURVE SMOOTH",
"347 458 LINE"
);
}
);
width = 468;
}
);
note = currency;
unicode = 00A4;
},
{
glyphname = yen;
layers = (
{
layerId = "DDCC2651-E394-46D5-8079-7BA98592C969";
paths = (
{
closed = 1;
nodes = (
"48 636 OFFCURVE",
"24 634 QCURVE",
"22 630 OFFCURVE",
"23 610 OFFCURVE",
"26 610 QCURVE SMOOTH",
"62 610 OFFCURVE",
"84 592 QCURVE",
"107 571 OFFCURVE",
"132 524 QCURVE",
"144 504 OFFCURVE",
"194 415 OFFCURVE",
"219 370 OFFCURVE",
"251 313 OFFCURVE",
"265 284 OFFCURVE",
"266 280 QCURVE",
"266 278 OFFCURVE",
"266 256 QCURVE",
"186 256 LINE",
"180 244 OFFCURVE",
"180 228 QCURVE SMOOTH",
"180 215 OFFCURVE",
"185 215 QCURVE SMOOTH",
"266 215 LINE",
"266 177 LINE",
"186 177 LINE",
"180 165 OFFCURVE",
"180 148 QCURVE SMOOTH",
"180 136 OFFCURVE",
"185 136 QCURVE SMOOTH",
"266 136 LINE",
"266 80 OFFCURVE",
"258 52 QCURVE",
"255 44 OFFCURVE",
"206 28 OFFCURVE",
"194 28 QCURVE SMOOTH",
"191 28 OFFCURVE",
"191 11 QCURVE SMOOTH",
"191 0 OFFCURVE",
"195 -4 QCURVE",
"205 -3 OFFCURVE",
"298 3 OFFCURVE",
"324 3 QCURVE SMOOTH",
"350 3 OFFCURVE",
"445 -3 OFFCURVE",
"448 -4 QCURVE",
"450 2 OFFCURVE",
"450 13 QCURVE SMOOTH",
"450 28 OFFCURVE",
"446 28 QCURVE SMOOTH",
"437 28 OFFCURVE",
"387 45 OFFCURVE",
"386 52 QCURVE",
"378 80 OFFCURVE",
"378 136 QCURVE",
"458 136 LINE",
"464 145 OFFCURVE",
"464 164 QCURVE SMOOTH",
"464 177 OFFCURVE",
"458 177 QCURVE SMOOTH",
"378 177 LINE",
"378 215 LINE",
"458 215 LINE",
"464 225 OFFCURVE",
"464 244 QCURVE SMOOTH",
"464 256 OFFCURVE",
"458 256 QCURVE SMOOTH",
"378 256 LINE",
"378 283 LINE SMOOTH",
"378 296 OFFCURVE",
"525 535 OFFCURVE",
"554 578 QCURVE",
"565 593 OFFCURVE",
"624 610 OFFCURVE",
"640 610 QCURVE SMOOTH",
"644 610 OFFCURVE",
"644 626 QCURVE SMOOTH",
"644 634 OFFCURVE",
"641 642 QCURVE",
"539 636 OFFCURVE",
"516 636 QCURVE SMOOTH",
"508 636 OFFCURVE",
"409 642 QCURVE",
"405 638 OFFCURVE",
"406 610 OFFCURVE",
"410 610 QCURVE SMOOTH",
"439 610 OFFCURVE",
"475 594 OFFCURVE",
"475 584 QCURVE SMOOTH",
"475 565 OFFCURVE",
"397 432 OFFCURVE",
"354 368 QCURVE",
"350 361 OFFCURVE",
"344 366 QCURVE",
"240 558 LINE SMOOTH",
"231 574 OFFCURVE",
"231 584 QCURVE SMOOTH",
"231 597 OFFCURVE",
"271 610 OFFCURVE",
"286 610 QCURVE SMOOTH",
"290 610 OFFCURVE",
"290 638 OFFCURVE",
"288 642 QCURVE",
"170 636 OFFCURVE",
"154 636 QCURVE SMOOTH"
);
}
);
width = 673;
}
);
note = yen;
unicode = 00A5;
},
{
glyphname = brokenbar;
layers = (
{
layerId = "DDCC2651-E394-46D5-8079-7BA98592C969";
paths = (
{
closed = 1;
nodes = (
"109 766 LINE",
"109 768 LINE SMOOTH",
"109 769 OFFCURVE",
"105 772 OFFCURVE",
"101 772 QCURVE SMOOTH",
"63 772 OFFCURVE",
"39 765 QCURVE",
"33 763 OFFCURVE",
"34 757 QCURVE",
"34 405 LINE SMOOTH",
"34 398 OFFCURVE",
"46 398 OFFCURVE",
"110 410 OFFCURVE",
"110 414 QCURVE"
);
},
{
closed = 1;
nodes = (
"109 246 LINE",
"109 248 LINE SMOOTH",
"109 249 OFFCURVE",
"105 252 OFFCURVE",
"101 252 QCURVE SMOOTH",
"63 252 OFFCURVE",
"39 245 QCURVE",
"33 243 OFFCURVE",
"34 237 QCURVE",
"34 -115 LINE SMOOTH",
"34 -122 OFFCURVE",
"46 -122 OFFCURVE",
"110 -110 OFFCURVE",
"110 -106 QCURVE"
);
}
);
width = 143;
}
);
note = brokenbar;
unicode = 00A6;
},
{
glyphname = section;
layers = (
{
layerId = "DDCC2651-E394-46D5-8079-7BA98592C969";
paths = (
{
closed = 1;
nodes = (
"368 326 OFFCURVE",
"319 397 OFFCURVE",
"248 435 OFFCURVE",
"178 469 OFFCURVE",
"129 516 OFFCURVE",
"129 548 QCURVE SMOOTH",
"129 577 OFFCURVE",
"167 602 OFFCURVE",
"192 602 QCURVE SMOOTH",
"216 602 OFFCURVE",
"270 550 OFFCURVE",
"283 550 QCURVE SMOOTH",
"317 550 OFFCURVE",
"317 598 QCURVE SMOOTH",
"317 600 OFFCURVE",
"315 612 OFFCURVE",
"315 614 QCURVE",
"306 628 OFFCURVE",
"257 651 OFFCURVE",
"223 651 QCURVE SMOOTH",
"160 651 OFFCURVE",
"74 582 OFFCURVE",
"74 518 QCURVE SMOOTH",
"74 487 OFFCURVE",
"86 466 QCURVE",
"25 422 OFFCURVE",
"25 338 QCURVE SMOOTH",
"25 288 OFFCURVE",
"74 216 OFFCURVE",
"144 176 OFFCURVE",
"214 142 OFFCURVE",
"263 94 OFFCURVE",
"263 60 QCURVE SMOOTH",
"263 36 OFFCURVE",
"228 8 OFFCURVE",
"201 8 QCURVE SMOOTH",
"177 8 OFFCURVE",
"123 58 OFFCURVE",
"107 58 QCURVE SMOOTH",
"75 58 OFFCURVE",
"75 10 QCURVE SMOOTH",
"75 8 OFFCURVE",
"76 -4 OFFCURVE",
"76 -6 QCURVE",
"85 -19 OFFCURVE",
"135 -41 OFFCURVE",
"203 -41 OFFCURVE",
"265 -22 OFFCURVE",
"318 41 OFFCURVE",
"318 90 QCURVE SMOOTH",
"318 115 OFFCURVE",
"305 144 QCURVE",
"327 160 OFFCURVE",
"368 230 OFFCURVE",
"368 276 QCURVE SMOOTH"
);
},
{
closed = 1;
nodes = (
"271 210 OFFCURVE",
"196 261 OFFCURVE",
"132 290 OFFCURVE",
"83 344 OFFCURVE",
"83 382 QCURVE SMOOTH",
"83 414 OFFCURVE",
"103 430 QCURVE",
"120 400 OFFCURVE",
"195 349 OFFCURVE",
"260 318 OFFCURVE",
"311 262 OFFCURVE",
"311 225 QCURVE SMOOTH",
"311 201 OFFCURVE",
"289 179 QCURVE"
);
}
);
width = 394;
}
);
note = section;
unicode = 00A7;
},
{
glyphname = dieresis;
layers = (
{
layerId = "DDCC2651-E394-46D5-8079-7BA98592C969";
paths = (
{
closed = 1;
nodes = (
"311 456 OFFCURVE",
"346 490 OFFCURVE",
"346 538 OFFCURVE",
"311 573 OFFCURVE",
"263 573 OFFCURVE",
"229 538 OFFCURVE",
"229 490 OFFCURVE",
"263 456 OFFCURVE"
);
},
{
closed = 1;
nodes = (
"109 456 OFFCURVE",
"144 490 OFFCURVE",
"144 538 OFFCURVE",
"109 573 OFFCURVE",
"61 573 OFFCURVE",
"27 538 OFFCURVE",
"27 490 OFFCURVE",
"61 456 OFFCURVE"
);
}
);
width = 366;
}
);
note = dieresis;
unicode = 00A8;
},
{
glyphname = copyright;
layers = (
{
layerId = "DDCC2651-E394-46D5-8079-7BA98592C969";
paths = (
{
closed = 1;
nodes = (
"398 577 OFFCURVE",
"536 440 OFFCURVE",
"536 244 OFFCURVE",
"398 107 OFFCURVE",
"301 107 QCURVE SMOOTH",
"203 107 OFFCURVE",
"65 245 OFFCURVE",
"65 439 OFFCURVE",
"203 577 OFFCURVE",
"301 577 QCURVE SMOOTH"
);
},
{
closed = 1;
nodes = (
"413 69 OFFCURVE",
"574 229 OFFCURVE",
"574 455 OFFCURVE",
"413 615 OFFCURVE",
"187 615 OFFCURVE",
"27 455 OFFCURVE",
"27 229 OFFCURVE",
"187 69 OFFCURVE"
);
},
{
closed = 1;
nodes = (
"417 276 OFFCURVE",
"401 276 QCURVE SMOOTH",
"400 276 OFFCURVE",
"395 266 OFFCURVE",
"386 250 OFFCURVE",
"381 245 QCURVE",
"362 228 OFFCURVE",
"319 228 QCURVE SMOOTH",
"279 228 OFFCURVE",
"225 294 OFFCURVE",
"225 346 QCURVE SMOOTH",
"225 388 OFFCURVE",
"270 450 OFFCURVE",
"307 450 QCURVE SMOOTH",
"337 450 OFFCURVE",
"378 428 OFFCURVE",
"392 408 OFFCURVE",
"395 398 QCURVE",
"399 396 OFFCURVE",
"405 396 QCURVE SMOOTH",
"417 396 OFFCURVE",
"417 402 QCURVE SMOOTH",
"417 406 OFFCURVE",
"406 466 OFFCURVE",
"405 466 QCURVE",
"355 482 OFFCURVE",
"301 482 QCURVE SMOOTH",
"241 482 OFFCURVE",
"161 396 OFFCURVE",
"161 336 QCURVE SMOOTH",
"161 279 OFFCURVE",
"241 197 OFFCURVE",
"299 197 QCURVE SMOOTH",
"361 197 OFFCURVE",
"399 216 QCURVE SMOOTH",
"405 219 OFFCURVE",
"419 266 OFFCURVE",
"419 272 QCURVE"
);
}
);
width = 600;
}
);
note = copyright;
unicode = 00A9;
},
{
glyphname = ordfeminine;
layers = (
{
layerId = "DDCC2651-E394-46D5-8079-7BA98592C969";
paths = (
{
closed = 1;
nodes = (
"184 313 OFFCURVE",
"157 293 OFFCURVE",
"139 293 QCURVE SMOOTH",
"123 293 OFFCURVE",
"101 315 OFFCURVE",
"101 336 QCURVE SMOOTH",
"101 349 OFFCURVE",
"120 370 OFFCURVE",
"139 378 OFFCURVE",
"179 391 OFFCURVE",
"184 393 QCURVE",
"184 325 LINE SMOOTH"
);
},
{
closed = 1;
nodes = (
"255 460 LINE SMOOTH",
"255 512 OFFCURVE",
"209 556 OFFCURVE",
"164 556 QCURVE SMOOTH",
"117 556 OFFCURVE",
"32 502 OFFCURVE",
"32 474 QCURVE SMOOTH",
"32 452 OFFCURVE",
"62 452 QCURVE SMOOTH",
"99 452 OFFCURVE",
"99 472 QCURVE SMOOTH",
"99 496 OFFCURVE",
"125 524 OFFCURVE",
"145 524 QCURVE SMOOTH",
"162 524 OFFCURVE",
"184 498 OFFCURVE",
"184 476 QCURVE SMOOTH",
"184 435 LINE SMOOTH",
"184 426 OFFCURVE",
"178 424 QCURVE",
"171 421 OFFCURVE",
"116 405 OFFCURVE",
"86 394 OFFCURVE",
"46 372 OFFCURVE",
"27 343 OFFCURVE",
"27 324 QCURVE SMOOTH",
"27 290 OFFCURVE",
"67 248 OFFCURVE",
"104 248 QCURVE SMOOTH",
"121 248 OFFCURVE",
"154 260 OFFCURVE",
"174 273 OFFCURVE",
"182 280 QCURVE",
"191 286 LINE",
"196 273 OFFCURVE",
"225 250 OFFCURVE",
"241 250 QCURVE SMOOTH",
"270 250 OFFCURVE",
"300 272 QCURVE",
"305 287 OFFCURVE",
"305 294 QCURVE SMOOTH",
"305 300 OFFCURVE",
"301 300 QCURVE SMOOTH",
"300 300 OFFCURVE",
"295 295 OFFCURVE",
"284 290 OFFCURVE",
"278 290 QCURVE SMOOTH",
"255 290 OFFCURVE",
"255 322 QCURVE SMOOTH"
);
}
);
width = 330;
}
);
note = ordfeminine;
unicode = 00AA;
},
{
glyphname = guillemotleft;
layers = (
{
layerId = "DDCC2651-E394-46D5-8079-7BA98592C969";
paths = (
{
closed = 1;
nodes = (
"379 328 LINE SMOOTH",
"447 392 OFFCURVE",
"447 401 QCURVE SMOOTH",
"447 407 OFFCURVE",
"429 420 OFFCURVE",
"418 423 QCURVE",
"408 414 LINE",
"399 405 OFFCURVE",
"364 375 OFFCURVE",
"317 338 OFFCURVE",
"249 290 OFFCURVE",
"212 268 QCURVE",
"204 259 OFFCURVE",
"204 241 QCURVE SMOOTH",
"204 230 OFFCURVE",
"211 227 QCURVE",
"277 185 OFFCURVE",
"379 108 OFFCURVE",
"416 75 OFFCURVE",
"417 73 QCURVE",
"446 83 OFFCURVE",
"446 94 QCURVE SMOOTH",
"446 97 OFFCURVE",
"445 100 QCURVE",
"441 107 OFFCURVE",
"379 167 QCURVE",
"371 174 OFFCURVE",
"303 244 OFFCURVE",
"299 248 QCURVE"
);
},
{
closed = 1;
nodes = (
"201 328 LINE SMOOTH",
"268 391 OFFCURVE",
"268 401 QCURVE SMOOTH",
"268 407 OFFCURVE",
"250 420 OFFCURVE",
"239 423 QCURVE",
"230 414 LINE",
"220 405 OFFCURVE",
"185 375 OFFCURVE",
"138 338 OFFCURVE",
"70 290 OFFCURVE",
"33 268 QCURVE",
"25 259 OFFCURVE",
"25 241 QCURVE SMOOTH",
"25 230 OFFCURVE",
"32 227 QCURVE",
"98 185 OFFCURVE",
"200 108 OFFCURVE",
"237 75 OFFCURVE",
"238 73 QCURVE",
"267 83 OFFCURVE",
"267 94 QCURVE SMOOTH",
"267 97 OFFCURVE",
"265 101 QCURVE",
"261 107 OFFCURVE",
"199 167 QCURVE",
"191 174 OFFCURVE",
"124 244 OFFCURVE",
"120 248 QCURVE"
);
}
);
width = 470;
}
);
note = guillemotleft;
unicode = 00AB;
},
{
glyphname = logicalnot;
layers = (
{
layerId = "DDCC2651-E394-46D5-8079-7BA98592C969";
paths = (
{
closed = 1;
nodes = (
"28 360 OFFCURVE",
"34 360 QCURVE SMOOTH",
"425 360 LINE SMOOTH",
"430 360 OFFCURVE",
"437 353 OFFCURVE",
"437 350 QCURVE SMOOTH",
"437 161 LINE",
"443 154 OFFCURVE",
"443 154 QCURVE",
"447 154 LINE",
"492 160 OFFCURVE",
"501 169 QCURVE",
"501 412 LINE SMOOTH",
"501 424 OFFCURVE",
"489 424 QCURVE SMOOTH",
"43 424 OFFCURVE",
"43 424 QCURVE SMOOTH",
"33 424 OFFCURVE",
"28 370 QCURVE"
);
}
);
width = 535;
}
);
note = logicalnot;
unicode = 00AC;
},
{
glyphname = registered;
layers = (
{
layerId = "DDCC2651-E394-46D5-8079-7BA98592C969";
paths = (
{
closed = 1;
nodes = (
"264 382 LINE SMOOTH",
"264 389 OFFCURVE",
"271 389 QCURVE SMOOTH",
"276 389 OFFCURVE",
"277 388 QCURVE",
"282 385 OFFCURVE",
"293 370 OFFCURVE",
"313 338 OFFCURVE",
"323 324 QCURVE SMOOTH",
"371 257 OFFCURVE",
"442 257 QCURVE SMOOTH",
"451 257 OFFCURVE",
"454 258 QCURVE",
"455 260 OFFCURVE",
"455 264 QCURVE SMOOTH",
"455 267 OFFCURVE",
"453 271 QCURVE",
"432 271 OFFCURVE",
"407 299 QCURVE SMOOTH",
"364 345 OFFCURVE",
"347 390 QCURVE SMOOTH",
"345 395 OFFCURVE",
"349 397 QCURVE",
"369 405 OFFCURVE",
"393 446 OFFCURVE",
"393 471 QCURVE SMOOTH",
"393 511 OFFCURVE",
"330 545 OFFCURVE",
"294 545 QCURVE SMOOTH",
"281 545 OFFCURVE",
"246 542 OFFCURVE",
"233 542 QCURVE SMOOTH",
"227 542 OFFCURVE",
"178 546 OFFCURVE",
"173 546 QCURVE",
"172 545 OFFCURVE",
"172 538 QCURVE SMOOTH",
"172 532 OFFCURVE",
"173 532 QCURVE SMOOTH",
"178 532 OFFCURVE",
"199 525 OFFCURVE",
"200 522 QCURVE SMOOTH",
"203 512 OFFCURVE",
"203 486 QCURVE SMOOTH",
"203 318 LINE SMOOTH",
"203 291 OFFCURVE",
"200 281 QCURVE SMOOTH",
"199 278 OFFCURVE",
"178 271 OFFCURVE",
"173 271 QCURVE SMOOTH",
"172 271 OFFCURVE",
"172 264 QCURVE SMOOTH",
"172 259 OFFCURVE",
"173 258 QCURVE",
"233 261 LINE",
"243 261 OFFCURVE",
"294 258 QCURVE",
"295 260 OFFCURVE",
"295 271 OFFCURVE",
"293 271 QCURVE SMOOTH",
"289 271 OFFCURVE",
"269 278 OFFCURVE",
"268 281 QCURVE",
"265 293 OFFCURVE",
"264 321 QCURVE"
);
},
{
closed = 1;
nodes = (
"297 410 LINE",
"284 410 OFFCURVE",
"273 411 OFFCURVE",
"264 418 OFFCURVE",
"264 425 QCURVE SMOOTH",
"264 476 LINE SMOOTH",
"264 504 OFFCURVE",
"265 516 QCURVE",
"265 520 OFFCURVE",
"268 520 QCURVE",
"274 522 OFFCURVE",
"295 522 QCURVE SMOOTH",
"311 522 OFFCURVE",
"334 493 OFFCURVE",
"334 464 QCURVE SMOOTH",
"334 439 OFFCURVE",
"310 410 OFFCURVE",
"296 410 QCURVE"
);
},
{
closed = 1;
nodes = (
"398 639 OFFCURVE",
"536 502 OFFCURVE",
"536 306 OFFCURVE",
"398 169 OFFCURVE",
"301 169 QCURVE SMOOTH",
"203 169 OFFCURVE",
"65 307 OFFCURVE",
"65 501 OFFCURVE",
"203 639 OFFCURVE",
"301 639 QCURVE SMOOTH"
);
},
{
closed = 1;
nodes = (
"413 131 OFFCURVE",
"574 291 OFFCURVE",
"574 517 OFFCURVE",
"413 677 OFFCURVE",
"187 677 OFFCURVE",
"27 517 OFFCURVE",
"27 291 OFFCURVE",
"187 131 OFFCURVE"
);
}
);
width = 599;
}
);
note = registered;
unicode = 00AE;
},
{
glyphname = macron;
layers = (
{
layerId = "DDCC2651-E394-46D5-8079-7BA98592C969";
paths = (
{
closed = 1;
nodes = (
"68 537 OFFCURVE",
"70 534 QCURVE",
"74 532 OFFCURVE",
"74 532 QCURVE",
"301 532 LINE",
"302 532 LINE",
"304 533 OFFCURVE",
"307 536 OFFCURVE",
"308 539 QCURVE",
"316 568 OFFCURVE",
"316 591 QCURVE SMOOTH",
"316 598 OFFCURVE",
"311 598 QCURVE SMOOTH",
"82 598 LINE SMOOTH",
"75 598 OFFCURVE",
"68 551 OFFCURVE",
"68 541 QCURVE SMOOTH"
);
}
);
width = 384;
}
);
note = macron;
unicode = 00AF;
},
{
glyphname = degree;
layers = (
{
layerId = "DDCC2651-E394-46D5-8079-7BA98592C969";
paths = (
{
closed = 1;
nodes = (
"141 593 OFFCURVE",
"174 560 OFFCURVE",
"174 512 OFFCURVE",
"141 478 OFFCURVE",
"93 478 OFFCURVE",
"59 512 OFFCURVE",
"59 560 OFFCURVE",
"93 593 OFFCURVE"
);
},
{
closed = 1;
nodes = (
"157 437 OFFCURVE",
"215 495 OFFCURVE",
"215 536 QCURVE SMOOTH",
"215 576 OFFCURVE",
"158 634 OFFCURVE",
"76 634 OFFCURVE",
"18 576 OFFCURVE",
"18 496 OFFCURVE",
"76 437 OFFCURVE",
"117 437 QCURVE SMOOTH"
);
}
);
width = 234;
}
);
note = degree;
unicode = 00B0;
},
{
glyphname = plusminus;
layers = (
{
layerId = "DDCC2651-E394-46D5-8079-7BA98592C969";
paths = (
{
closed = 1;
nodes = (
"490 4 LINE SMOOTH",
"492 4 OFFCURVE",
"495 7 OFFCURVE",
"496 10 QCURVE",
"506 47 OFFCURVE",
"506 62 QCURVE SMOOTH",
"506 68 OFFCURVE",
"498 68 QCURVE SMOOTH",
"42 68 LINE",
"40 68 LINE SMOOTH",
"39 68 OFFCURVE",
"36 66 OFFCURVE",
"35 63 QCURVE SMOOTH",
"27 36 OFFCURVE",
"27 14 QCURVE SMOOTH",
"27 4 OFFCURVE",
"33 4 QCURVE SMOOTH",
"489 4 LINE"
);
},
{
closed = 1;
nodes = (
"298 309 OFFCURVE",
"302 309 QCURVE SMOOTH",
"489 309 LINE",
"490 309 LINE SMOOTH",
"492 309 OFFCURVE",
"495 312 OFFCURVE",
"496 315 QCURVE",
"506 352 OFFCURVE",
"506 367 QCURVE SMOOTH",
"506 373 OFFCURVE",
"498 373 QCURVE SMOOTH",
"302 373 LINE SMOOTH",
"298 373 OFFCURVE",
"298 378 QCURVE SMOOTH",
"298 574 LINE",
"288 580 LINE",
"266 580 OFFCURVE",
"239 572 QCURVE SMOOTH",
"233 570 OFFCURVE",
"234 565 QCURVE",
"234 379 LINE SMOOTH",
"234 373 OFFCURVE",
"229 373 QCURVE SMOOTH",
"42 373 LINE",
"40 373 LINE SMOOTH",
"39 373 OFFCURVE",
"36 371 OFFCURVE",
"35 368 QCURVE SMOOTH",
"27 341 OFFCURVE",
"27 319 QCURVE SMOOTH",
"27 309 OFFCURVE",
"33 309 QCURVE SMOOTH",
"228 309 LINE SMOOTH",
"234 309 OFFCURVE",
"234 304 QCURVE SMOOTH",
"234 109 LINE SMOOTH",
"234 101 OFFCURVE",
"240 101 QCURVE SMOOTH",
"241 101 OFFCURVE",
"244 102 OFFCURVE",
"246 102 QCURVE",
"291 108 OFFCURVE",
"298 118 QCURVE",
"298 306 LINE SMOOTH"
);
}
);
width = 532;
}
);
note = plusminus;
unicode = 00B1;
},
{
glyphname = uni00B2;
layers = (
{
layerId = "DDCC2651-E394-46D5-8079-7BA98592C969";
paths = (
{
closed = 1;
nodes = (
"161 590 OFFCURVE",
"192 552 OFFCURVE",
"192 530 QCURVE SMOOTH",
"192 499 OFFCURVE",
"134 405 OFFCURVE",
"74 336 OFFCURVE",
"28 288 QCURVE",
"26 280 OFFCURVE",
"26 277 QCURVE SMOOTH",
"26 264 OFFCURVE",
"38 254 QCURVE",
"166 254 LINE",
"280 254 LINE",
"300 340 OFFCURVE",
"304 353 QCURVE",
"300 358 OFFCURVE",
"287 358 QCURVE SMOOTH",
"282 358 OFFCURVE",
"281 355 QCURVE",
"279 352 OFFCURVE",
"271 332 OFFCURVE",
"265 323 OFFCURVE",
"247 314 OFFCURVE",
"233 314 QCURVE SMOOTH",
"108 314 LINE SMOOTH",
"106 314 OFFCURVE",
"104 318 OFFCURVE",
"106 320 QCURVE",
"146 351 OFFCURVE",
"182 382 OFFCURVE",
"246 446 OFFCURVE",
"274 507 OFFCURVE",
"274 538 QCURVE SMOOTH",
"274 584 OFFCURVE",
"211 646 OFFCURVE",
"164 646 QCURVE SMOOTH",
"126 646 OFFCURVE",
"56 602 OFFCURVE",
"40 578 QCURVE",
"39 576 OFFCURVE",
"39 571 QCURVE SMOOTH",
"39 565 OFFCURVE",
"55 545 OFFCURVE",
"59 546 QCURVE",
"60 547 OFFCURVE",
"72 559 OFFCURVE",
"80 566 OFFCURVE",
"96 578 OFFCURVE",
"109 585 OFFCURVE",
"126 590 OFFCURVE",
"134 590 QCURVE SMOOTH"
);
}
);
width = 328;
}
);
note = uni00B2;
unicode = 00B2;
},
{
glyphname = uni00B3;
layers = (
{
layerId = "DDCC2651-E394-46D5-8079-7BA98592C969";
paths = (
{
closed = 1;
nodes = (
"130 646 OFFCURVE",
"63 611 OFFCURVE",
"46 586 QCURVE",
"44 582 OFFCURVE",
"56 558 OFFCURVE",
"62 558 QCURVE SMOOTH",
"64 558 OFFCURVE",
"110 596 OFFCURVE",
"132 596 QCURVE SMOOTH",
"149 596 OFFCURVE",
"176 573 OFFCURVE",
"176 554 QCURVE SMOOTH",
"176 487 OFFCURVE",
"92 469 QCURVE",
"86 466 OFFCURVE",
"86 456 QCURVE SMOOTH",
"86 447 OFFCURVE",
"94 439 QCURVE",
"127 442 OFFCURVE",
"131 442 QCURVE SMOOTH",
"202 442 OFFCURVE",
"202 368 QCURVE SMOOTH",
"202 327 OFFCURVE",
"158 282 OFFCURVE",
"126 282 QCURVE SMOOTH",
"110 282 OFFCURVE",
"72 316 OFFCURVE",
"58 316 QCURVE SMOOTH",
"46 316 OFFCURVE",
"26 296 OFFCURVE",
"26 282 QCURVE SMOOTH",
"26 274 OFFCURVE",
"28 270 QCURVE",
"50 246 OFFCURVE",
"106 246 QCURVE SMOOTH",
"174 246 OFFCURVE",
"268 310 OFFCURVE",
"268 374 QCURVE SMOOTH",
"268 420 OFFCURVE",
"205 478 OFFCURVE",
"180 478 QCURVE",
"250 520 OFFCURVE",
"250 572 QCURVE SMOOTH",
"250 607 OFFCURVE",
"194 646 OFFCURVE",
"166 646 QCURVE SMOOTH"
);
}
);
width = 294;
}
);
note = uni00B3;
unicode = 00B3;
},
{
glyphname = acute;
layers = (
{
layerId = "DDCC2651-E394-46D5-8079-7BA98592C969";
paths = (
{
closed = 1;
nodes = (
"215 664 OFFCURVE",
"208 675 OFFCURVE",
"187 687 OFFCURVE",
"171 687 QCURVE SMOOTH",
"146 687 OFFCURVE",
"137 678 QCURVE",
"120 658 OFFCURVE",
"74 592 OFFCURVE",
"44 543 OFFCURVE",
"44 540 QCURVE SMOOTH",
"44 535 OFFCURVE",
"54 524 OFFCURVE",
"59 524 QCURVE SMOOTH",
"72 524 OFFCURVE",
"215 635 OFFCURVE",
"215 660 QCURVE SMOOTH"
);
}
);
width = 247;
}
);
note = acute;
unicode = 00B4;
},
{
glyphname = uni00B5;
layers = (
{
layerId = "DDCC2651-E394-46D5-8079-7BA98592C969";
paths = (
{
closed = 1;
nodes = (
"227 -9 OFFCURVE",
"295 66 OFFCURVE",
"322 128 QCURVE",
"329 73 OFFCURVE",
"370 -3 OFFCURVE",
"403 -4 QCURVE SMOOTH",
"433 -4 OFFCURVE",
"486 43 OFFCURVE",
"496 76 QCURVE",
"496 86 OFFCURVE",
"493 92 QCURVE",
"486 103 OFFCURVE",
"482 103 QCURVE",
"474 94 OFFCURVE",
"439 72 OFFCURVE",
"422 72 QCURVE SMOOTH",
"405 72 OFFCURVE",
"383 96 OFFCURVE",
"372 139 OFFCURVE",
"368 190 OFFCURVE",
"368 223 QCURVE",
"373 246 LINE SMOOTH",
"396 354 OFFCURVE",
"396 404 QCURVE SMOOTH",
"396 413 OFFCURVE",
"341 442 OFFCURVE",
"332 442 QCURVE SMOOTH",
"323 442 OFFCURVE",
"298 428 OFFCURVE",
"294 422 QCURVE",
"294 298 LINE",
"294 227 LINE",
"261 77 OFFCURVE",
"180 77 QCURVE SMOOTH",
"153 77 OFFCURVE",
"122 161 OFFCURVE",
"122 223 QCURVE",
"128 256 LINE SMOOTH",
"148 350 OFFCURVE",
"148 404 QCURVE SMOOTH",
"148 413 OFFCURVE",
"99 442 OFFCURVE",
"90 442 QCURVE SMOOTH",
"81 442 OFFCURVE",
"56 428 OFFCURVE",
"52 422 QCURVE",
"52 298 LINE SMOOTH",
"52 287 OFFCURVE",
"56 216 OFFCURVE",
"56 204 QCURVE",
"48 138 OFFCURVE",
"35 -158 OFFCURVE",
"35 -190 QCURVE SMOOTH",
"35 -199 OFFCURVE",
"85 -227 OFFCURVE",
"96 -227 QCURVE SMOOTH",
"107 -227 OFFCURVE",
"129 -214 OFFCURVE",
"134 -207 QCURVE",
"124 -155 OFFCURVE",
"114 -29 OFFCURVE",
"112 75 OFFCURVE",
"112 76 QCURVE",
"112 75 OFFCURVE",
"119 54 OFFCURVE",
"121 49 OFFCURVE",
"129 30 OFFCURVE",
"133 23 OFFCURVE",
"142 8 OFFCURVE",
"150 2 OFFCURVE",
"161 -6 OFFCURVE",
"173 -9 OFFCURVE",
"180 -9 QCURVE SMOOTH"
);
}
);
width = 513;
}
);
note = uni00B5;
unicode = 00B5;
},
{
glyphname = paragraph;
layers = (
{
layerId = "DDCC2651-E394-46D5-8079-7BA98592C969";
paths = (
{
closed = 1;
nodes = (
"276 281 OFFCURVE",
"284 282 QCURVE SMOOTH",
"291 283 OFFCURVE",
"306 285 OFFCURVE",
"314 287 OFFCURVE",
"316 287 QCURVE SMOOTH",
"320 287 OFFCURVE",
"320 283 QCURVE SMOOTH",
"320 99 OFFCURVE",
"316 54 QCURVE",
"316 49 OFFCURVE",
"306 40 OFFCURVE",
"299 40 QCURVE SMOOTH",
"278 40 OFFCURVE",
"278 53 QCURVE",
"276 274 LINE"
);
},
{
closed = 1;
nodes = (
"137 652 OFFCURVE",
"26 552 OFFCURVE",
"26 464 QCURVE SMOOTH",
"26 391 OFFCURVE",
"121 277 OFFCURVE",
"202 277 QCURVE SMOOTH",
"222 277 OFFCURVE",
"222 270 QCURVE SMOOTH",
"222 183 LINE SMOOTH",
"222 69 OFFCURVE",
"217 48 QCURVE",
"215 41 OFFCURVE",
"170 26 OFFCURVE",
"161 26 QCURVE SMOOTH",
"158 26 OFFCURVE",
"157 0 OFFCURVE",
"159 -4 QCURVE",
"172 -3 OFFCURVE",
"218 0 OFFCURVE",
"258 2 OFFCURVE",
"278 2 QCURVE SMOOTH",
"314 2 OFFCURVE",
"420 -3 OFFCURVE",
"439 -4 QCURVE",
"443 0 OFFCURVE",
"443 14 QCURVE SMOOTH",
"443 26 OFFCURVE",
"439 26 QCURVE SMOOTH",
"427 26 OFFCURVE",
"383 40 OFFCURVE",
"380 48 QCURVE",
"373 74 OFFCURVE",
"373 297 QCURVE SMOOTH",
"373 300 OFFCURVE",
"378 302 QCURVE",
"395 305 OFFCURVE",
"404 310 QCURVE",
"424 319 OFFCURVE",
"424 337 QCURVE SMOOTH",
"424 345 OFFCURVE",
"420 353 QCURVE",
"377 344 LINE",
"375 343 OFFCURVE",
"372 346 OFFCURVE",
"372 349 QCURVE SMOOTH",
"372 353 OFFCURVE",
"371 464 OFFCURVE",
"371 500 QCURVE SMOOTH",
"371 594 OFFCURVE",
"374 604 QCURVE",
"377 612 OFFCURVE",
"419 623 OFFCURVE",
"432 623 QCURVE SMOOTH",
"436 623 OFFCURVE",
"438 650 OFFCURVE",
"434 654 QCURVE",
"420 652 LINE",
"405 651 OFFCURVE",
"347 648 OFFCURVE",
"317 648 QCURVE SMOOTH",
"288 648 OFFCURVE",
"236 652 OFFCURVE",
"206 652 QCURVE SMOOTH"
);
},
{
closed = 1;
nodes = (
"278 609 OFFCURVE",
"298 609 QCURVE SMOOTH",
"305 609 OFFCURVE",
"318 601 OFFCURVE",
"318 598 QCURVE",
"320 572 OFFCURVE",
"320 342 QCURVE SMOOTH",
"320 337 OFFCURVE",
"314 335 QCURVE SMOOTH",
"299 330 OFFCURVE",
"284 330 QCURVE SMOOTH",
"276 330 OFFCURVE",
"276 335 QCURVE SMOOTH",
"276 437 OFFCURVE",
"278 597 QCURVE SMOOTH"
);
}
);
width = 468;
}
);
note = paragraph;
unicode = 00B6;
},
{
glyphname = periodcentered;
layers = (
{
layerId = "DDCC2651-E394-46D5-8079-7BA98592C969";
paths = (
{
closed = 1;
nodes = (
"88 334 OFFCURVE",
"48 294 OFFCURVE",
"48 240 OFFCURVE",
"88 199 OFFCURVE",
"116 199 QCURVE SMOOTH",
"143 199 OFFCURVE",
"182 240 OFFCURVE",
"182 294 OFFCURVE",
"143 334 OFFCURVE",
"116 334 QCURVE SMOOTH"
);
}
);
width = 220;
}
);
note = periodcentered;
unicode = 00B7;
},
{
glyphname = cedilla;
layers = (
{
layerId = "DDCC2651-E394-46D5-8079-7BA98592C969";
paths = (
{
closed = 1;
nodes = (
"239 -3 LINE",
"212 -3 LINE",
"210 -6 OFFCURVE",
"187 -47 OFFCURVE",
"182 -56 QCURVE",
"181 -59 OFFCURVE",
"192 -70 OFFCURVE",
"194 -70 QCURVE",
"209 -64 OFFCURVE",
"222 -64 QCURVE SMOOTH",
"234 -64 OFFCURVE",
"250 -81 OFFCURVE",
"250 -95 QCURVE SMOOTH",
"250 -108 OFFCURVE",
"229 -126 OFFCURVE",
"209 -126 QCURVE SMOOTH",
"198 -126 OFFCURVE",
"169 -112 OFFCURVE",
"163 -112 OFFCURVE",
"155 -121 OFFCURVE",
"155 -126 QCURVE SMOOTH",
"155 -130 OFFCURVE",
"158 -142 QCURVE",
"170 -154 OFFCURVE",
"198 -154 QCURVE SMOOTH",
"240 -154 OFFCURVE",
"294 -112 OFFCURVE",
"294 -77 QCURVE SMOOTH",
"294 -57 OFFCURVE",
"266 -27 OFFCURVE",
"245 -27 QCURVE SMOOTH",
"241 -27 OFFCURVE",
"223 -28 QCURVE"
);
}
);
width = 443;
}
);
note = cedilla;
unicode = 00B8;
},
{
glyphname = uni00B9;
layers = (
{
layerId = "DDCC2651-E394-46D5-8079-7BA98592C969";
paths = (
{
closed = 1;
nodes = (
"80 564 OFFCURVE",
"84 564 QCURVE SMOOTH",
"100 564 OFFCURVE",
"100 524 QCURVE SMOOTH",
"100 326 LINE SMOOTH",
"100 312 OFFCURVE",
"91 294 QCURVE",
"88 289 OFFCURVE",
"48 280 OFFCURVE",
"38 280 QCURVE SMOOTH",
"35 280 OFFCURVE",
"35 254 OFFCURVE",
"38 252 QCURVE",
"46 252 OFFCURVE",
"126 256 OFFCURVE",
"145 256 QCURVE SMOOTH",
"163 256 OFFCURVE",
"235 252 OFFCURVE",
"245 252 QCURVE",
"247 256 OFFCURVE",
"247 264 QCURVE SMOOTH",
"247 280 OFFCURVE",
"243 280 QCURVE SMOOTH",
"236 280 OFFCURVE",
"197 289 OFFCURVE",
"193 294 QCURVE",
"183 311 OFFCURVE",
"183 336 QCURVE SMOOTH",
"183 546 LINE SMOOTH",
"183 592 OFFCURVE",
"195 628 QCURVE",
"194 632 OFFCURVE",
"183 650 OFFCURVE",
"180 650 QCURVE SMOOTH",
"179 650 LINE SMOOTH",
"178 650 OFFCURVE",
"141 630 OFFCURVE",
"63 593 OFFCURVE",
"24 575 QCURVE",
"23 574 OFFCURVE",
"23 566 QCURVE SMOOTH",
"23 553 OFFCURVE",
"37 548 QCURVE"
);
}
);
width = 273;
}
);
note = uni00B9;
unicode = 00B9;
},
{
glyphname = ordmasculine;
layers = (
{
layerId = "DDCC2651-E394-46D5-8079-7BA98592C969";
paths = (
{
closed = 1;
nodes = (
"220 523 OFFCURVE",
"259 440 OFFCURVE",
"259 384 QCURVE SMOOTH",
"259 342 OFFCURVE",
"226 277 OFFCURVE",
"193 277 QCURVE SMOOTH",
"150 277 OFFCURVE",
"109 360 OFFCURVE",
"109 416 QCURVE SMOOTH",
"109 458 OFFCURVE",
"143 523 OFFCURVE",
"177 523 QCURVE SMOOTH"
);
},
{
closed = 1;
nodes = (
"27 337 OFFCURVE",
"119 247 OFFCURVE",
"251 247 OFFCURVE",
"342 337 OFFCURVE",
"342 463 OFFCURVE",
"251 554 OFFCURVE",
"119 554 OFFCURVE",
"27 464 OFFCURVE",
"27 400 QCURVE SMOOTH"
);
}
);
width = 368;
}
);
note = ordmasculine;
unicode = 00BA;
},
{
glyphname = guillemotright;
layers = (
{
layerId = "DDCC2651-E394-46D5-8079-7BA98592C969";
paths = (
{
closed = 1;
nodes = (
"169 244 OFFCURVE",
"101 174 OFFCURVE",
"93 167 QCURVE",
"86 160 OFFCURVE",
"74 149 QCURVE SMOOTH",
"26 103 OFFCURVE",
"26 94 QCURVE SMOOTH",
"26 83 OFFCURVE",
"55 73 QCURVE",
"56 75 OFFCURVE",
"93 108 OFFCURVE",
"195 185 OFFCURVE",
"261 227 QCURVE",
"268 230 OFFCURVE",
"268 241 QCURVE SMOOTH",
"268 259 OFFCURVE",
"260 268 QCURVE",
"223 290 OFFCURVE",
"155 338 OFFCURVE",
"108 375 OFFCURVE",
"73 405 OFFCURVE",
"64 414 QCURVE",
"54 423 LINE",
"43 420 OFFCURVE",
"25 407 OFFCURVE",
"25 401 QCURVE SMOOTH",
"25 392 OFFCURVE",
"93 328 QCURVE SMOOTH",
"173 248 OFFCURVE",
"173 248 QCURVE"
);
},
{
closed = 1;
nodes = (
"348 244 OFFCURVE",
"281 174 OFFCURVE",
"273 167 QCURVE",
"263 157 OFFCURVE",
"246 142 QCURVE",
"205 102 OFFCURVE",
"205 94 QCURVE SMOOTH",
"205 83 OFFCURVE",
"234 73 QCURVE",
"235 75 OFFCURVE",
"272 108 OFFCURVE",
"374 185 OFFCURVE",
"440 227 QCURVE",
"447 230 OFFCURVE",
"447 241 QCURVE SMOOTH",
"447 259 OFFCURVE",
"439 268 QCURVE",
"402 290 OFFCURVE",
"334 338 OFFCURVE",
"287 375 OFFCURVE",
"252 405 OFFCURVE",
"242 414 QCURVE",
"233 423 LINE",
"222 420 OFFCURVE",
"204 407 OFFCURVE",
"204 401 QCURVE SMOOTH",
"204 391 OFFCURVE",
"271 328 QCURVE SMOOTH",
"352 248 LINE"
);
}
);
width = 473;
}
);
note = guillemotright;
unicode = 00BB;
},
{
glyphname = onequarter;
layers = (
{
layerId = "DDCC2651-E394-46D5-8079-7BA98592C969";
paths = (
{
closed = 1;
nodes = (
"79 564 OFFCURVE",
"83 564 QCURVE SMOOTH",
"99 564 OFFCURVE",
"99 524 QCURVE SMOOTH",
"99 326 LINE SMOOTH",
"99 312 OFFCURVE",
"90 294 QCURVE",
"87 289 OFFCURVE",
"47 280 OFFCURVE",
"37 280 QCURVE SMOOTH",
"34 280 OFFCURVE",
"34 254 OFFCURVE",
"37 252 QCURVE",
"45 252 OFFCURVE",
"125 256 OFFCURVE",
"144 256 QCURVE SMOOTH",
"162 256 OFFCURVE",
"234 252 OFFCURVE",
"244 252 QCURVE",
"246 256 OFFCURVE",
"246 264 QCURVE SMOOTH",
"246 280 OFFCURVE",
"242 280 QCURVE SMOOTH",
"235 280 OFFCURVE",
"196 289 OFFCURVE",
"192 294 QCURVE",
"182 311 OFFCURVE",
"182 336 QCURVE SMOOTH",
"182 546 LINE SMOOTH",
"182 592 OFFCURVE",
"194 628 QCURVE",
"193 632 OFFCURVE",
"182 650 OFFCURVE",
"179 650 QCURVE SMOOTH",
"178 650 LINE SMOOTH",
"177 650 OFFCURVE",
"140 630 OFFCURVE",
"62 593 OFFCURVE",
"23 575 QCURVE",
"22 574 OFFCURVE",
"22 566 QCURVE SMOOTH",
"22 553 OFFCURVE",
"36 548 QCURVE"
);
},
{
closed = 1;
nodes = (
"613 -4 OFFCURVE",
"618 1 QCURVE",
"618 101 LINE SMOOTH",
"618 106 OFFCURVE",
"622 106 QCURVE SMOOTH",
"652 106 LINE",
"654 106 LINE",
"655 107 OFFCURVE",
"658 110 OFFCURVE",
"658 112 QCURVE SMOOTH",
"658 156 OFFCURVE",
"646 156 QCURVE SMOOTH",
"624 156 LINE SMOOTH",
"618 156 OFFCURVE",
"618 160 QCURVE SMOOTH",
"618 390 LINE SMOOTH",
"618 398 OFFCURVE",
"601 398 QCURVE SMOOTH",
"587 398 OFFCURVE",
"580 389 QCURVE SMOOTH",
"370 132 LINE",
"370 115 OFFCURVE",
"381 108 QCURVE",
"534 108 LINE SMOOTH",
"538 108 OFFCURVE",
"539 104 QCURVE",
"539 4 LINE SMOOTH",
"539 -4 OFFCURVE",
"580 -4 QCURVE SMOOTH"
);
},
{
closed = 1;
nodes = (
"539 159 LINE SMOOTH",
"539 157 OFFCURVE",
"536 157 QCURVE SMOOTH",
"444 157 LINE SMOOTH",
"442 157 OFFCURVE",
"439 163 OFFCURVE",
"440 164 QCURVE",
"494 230 LINE",
"506 244 LINE",
"517 258 OFFCURVE",
"528 271 QCURVE SMOOTH",
"539 284 LINE"
);
},
{
closed = 1;
nodes = (
"174 11 LINE",
"174 8 LINE SMOOTH",
"174 4 OFFCURVE",
"199 -16 OFFCURVE",
"210 -16 QCURVE SMOOTH",
"213 -16 OFFCURVE",
"215 -14 QCURVE",
"563 617 LINE",
"563 618 OFFCURVE",
"564 619 QCURVE",
"564 620 LINE SMOOTH",
"564 626 OFFCURVE",
"539 646 OFFCURVE",
"527 646 QCURVE SMOOTH",
"522 646 OFFCURVE",
"521 643 QCURVE"
);
}
);
width = 680;
}
);
note = onequarter;
unicode = 00BC;
},
{
glyphname = onehalf;
layers = (
{
layerId = "DDCC2651-E394-46D5-8079-7BA98592C969";
paths = (
{
closed = 1;
nodes = (
"540 336 OFFCURVE",
"570 298 OFFCURVE",
"570 276 QCURVE SMOOTH",
"570 204 OFFCURVE",
"407 34 QCURVE",
"405 26 OFFCURVE",
"405 23 QCURVE SMOOTH",
"405 10 OFFCURVE",
"417 0 QCURVE",
"544 0 LINE",
"658 0 LINE",
"674 71 OFFCURVE",
"683 99 QCURVE",
"679 104 OFFCURVE",
"666 104 QCURVE SMOOTH",
"661 104 OFFCURVE",
"660 101 QCURVE",
"658 98 OFFCURVE",
"651 77 OFFCURVE",
"644 68 OFFCURVE",
"626 58 OFFCURVE",
"612 58 QCURVE SMOOTH",
"486 58 LINE SMOOTH",
"484 58 OFFCURVE",
"482 64 OFFCURVE",
"484 66 QCURVE",
"524 97 OFFCURVE",
"560 128 OFFCURVE",
"624 192 OFFCURVE",
"652 253 OFFCURVE",
"652 284 QCURVE SMOOTH",
"652 330 OFFCURVE",
"589 392 OFFCURVE",
"542 392 QCURVE SMOOTH",
"504 392 OFFCURVE",
"435 348 OFFCURVE",
"419 324 QCURVE",
"418 322 OFFCURVE",
"418 317 QCURVE SMOOTH",
"418 311 OFFCURVE",
"434 291 OFFCURVE",
"438 292 QCURVE",
"439 293 OFFCURVE",
"451 305 OFFCURVE",
"459 312 OFFCURVE",
"475 324 OFFCURVE",
"488 331 OFFCURVE",
"505 336 OFFCURVE",
"513 336 QCURVE SMOOTH"
);
},
{
closed = 1;
nodes = (
"79 564 OFFCURVE",
"83 564 QCURVE SMOOTH",
"99 564 OFFCURVE",
"99 524 QCURVE SMOOTH",
"99 326 LINE SMOOTH",
"99 312 OFFCURVE",
"90 294 QCURVE",
"87 289 OFFCURVE",
"47 280 OFFCURVE",
"37 280 QCURVE SMOOTH",
"34 280 OFFCURVE",
"34 254 OFFCURVE",
"37 252 QCURVE",
"45 252 OFFCURVE",
"125 256 OFFCURVE",
"144 256 QCURVE SMOOTH",
"162 256 OFFCURVE",
"234 252 OFFCURVE",
"244 252 QCURVE",
"246 256 OFFCURVE",
"246 264 QCURVE SMOOTH",
"246 280 OFFCURVE",
"242 280 QCURVE SMOOTH",
"235 280 OFFCURVE",
"196 289 OFFCURVE",
"192 294 QCURVE",
"182 311 OFFCURVE",
"182 336 QCURVE SMOOTH",
"182 546 LINE SMOOTH",
"182 592 OFFCURVE",
"194 628 QCURVE",
"193 632 OFFCURVE",
"182 650 OFFCURVE",
"179 650 QCURVE SMOOTH",
"178 650 LINE SMOOTH",
"177 650 OFFCURVE",
"140 630 OFFCURVE",
"62 593 OFFCURVE",
"23 575 QCURVE",
"22 574 OFFCURVE",
"22 566 QCURVE SMOOTH",
"22 553 OFFCURVE",
"36 548 QCURVE"
);
},
{
closed = 1;
nodes = (
"159 11 LINE",
"159 8 LINE SMOOTH",
"159 4 OFFCURVE",
"184 -16 OFFCURVE",
"195 -16 QCURVE SMOOTH",
"198 -16 OFFCURVE",
"200 -14 QCURVE",
"548 617 LINE",
"548 618 OFFCURVE",
"548 619 QCURVE",
"549 620 LINE",
"549 626 OFFCURVE",
"524 646 OFFCURVE",
"512 646 QCURVE SMOOTH",
"508 646 OFFCURVE",
"506 643 QCURVE"
);
}
);
width = 705;
}
);
note = onehalf;
unicode = 00BD;
},
{
glyphname = threequarters;
layers = (
{
layerId = "DDCC2651-E394-46D5-8079-7BA98592C969";
paths = (
{
closed = 1;
nodes = (
"185 11 LINE",
"185 8 LINE SMOOTH",
"185 4 OFFCURVE",
"210 -16 OFFCURVE",
"221 -16 QCURVE SMOOTH",
"224 -16 OFFCURVE",
"226 -14 QCURVE",
"574 617 LINE",
"574 618 OFFCURVE",
"574 619 QCURVE",
"575 620 LINE",
"575 626 OFFCURVE",
"550 646 OFFCURVE",
"538 646 QCURVE SMOOTH",
"534 646 OFFCURVE",
"532 643 QCURVE"
);
},
{
closed = 1;
nodes = (
"127 646 OFFCURVE",
"60 611 OFFCURVE",
"43 586 QCURVE",
"41 582 OFFCURVE",
"54 558 OFFCURVE",
"59 558 QCURVE SMOOTH",
"62 558 OFFCURVE",
"81 577 OFFCURVE",
"111 596 OFFCURVE",
"145 596 OFFCURVE",
"171 573 OFFCURVE",
"171 554 QCURVE SMOOTH",
"171 487 OFFCURVE",
"88 469 QCURVE",
"83 466 OFFCURVE",
"83 446 OFFCURVE",
"90 439 QCURVE",
"123 442 OFFCURVE",
"127 442 QCURVE SMOOTH",
"199 442 OFFCURVE",
"199 368 QCURVE SMOOTH",
"199 327 OFFCURVE",
"154 282 OFFCURVE",
"122 282 QCURVE SMOOTH",
"106 282 OFFCURVE",
"68 316 OFFCURVE",
"54 316 QCURVE SMOOTH",
"42 316 OFFCURVE",
"23 296 OFFCURVE",
"23 282 QCURVE SMOOTH",
"23 272 OFFCURVE",
"24 270 QCURVE",
"46 246 OFFCURVE",
"102 246 QCURVE SMOOTH",
"170 246 OFFCURVE",
"277 320 OFFCURVE",
"277 384 QCURVE SMOOTH",
"277 429 OFFCURVE",
"206 478 OFFCURVE",
"177 478 QCURVE",
"246 519 OFFCURVE",
"246 572 QCURVE SMOOTH",
"246 607 OFFCURVE",
"191 646 OFFCURVE",
"163 646 QCURVE SMOOTH"
);
},
{
closed = 1;
nodes = (
"624 -4 OFFCURVE",
"629 1 QCURVE",
"629 101 LINE SMOOTH",
"629 106 OFFCURVE",
"633 106 QCURVE SMOOTH",
"663 106 LINE",
"664 106 LINE",
"666 107 OFFCURVE",
"669 110 OFFCURVE",
"669 112 QCURVE SMOOTH",
"669 156 OFFCURVE",
"657 156 QCURVE SMOOTH",
"635 156 LINE SMOOTH",
"629 156 OFFCURVE",
"629 160 QCURVE SMOOTH",
"629 390 LINE SMOOTH",
"629 398 OFFCURVE",
"612 398 QCURVE SMOOTH",
"598 398 OFFCURVE",
"591 389 QCURVE SMOOTH",
"381 132 LINE",
"381 115 OFFCURVE",
"392 108 QCURVE",
"545 108 LINE SMOOTH",
"549 108 OFFCURVE",
"550 104 QCURVE",
"550 4 LINE SMOOTH",
"550 -4 OFFCURVE",
"591 -4 QCURVE SMOOTH"
);
},
{
closed = 1;
nodes = (
"550 159 LINE SMOOTH",
"550 157 OFFCURVE",
"547 157 QCURVE SMOOTH",
"455 157 LINE SMOOTH",
"453 157 OFFCURVE",
"450 163 OFFCURVE",
"451 164 QCURVE",
"505 230 LINE",
"516 244 LINE",
"528 258 OFFCURVE",
"539 271 QCURVE SMOOTH",
"550 284 LINE"
);
}
);
width = 691;
}
);
note = threequarters;
unicode = 00BE;
},
{
glyphname = questiondown;
layers = (
{
layerId = "DDCC2651-E394-46D5-8079-7BA98592C969";
paths = (
{
closed = 1;
nodes = (
"269 -218 OFFCURVE",
"295 -206 QCURVE",
"301 -186 OFFCURVE",
"301 -168 QCURVE SMOOTH",
"301 -145 OFFCURVE",
"265 -115 OFFCURVE",
"241 -115 QCURVE SMOOTH",
"226 -115 OFFCURVE",
"176 -125 OFFCURVE",
"161 -125 QCURVE SMOOTH",
"132 -125 OFFCURVE",
"90 -85 OFFCURVE",
"90 -56 QCURVE SMOOTH",
"90 -35 OFFCURVE",
"117 1 OFFCURVE",
"148 21 OFFCURVE",
"194 45 OFFCURVE",
"201 50 QCURVE SMOOTH",
"235 73 OFFCURVE",
"258 114 OFFCURVE",
"258 164 QCURVE SMOOTH",
"258 250 OFFCURVE",
"244 250 QCURVE SMOOTH",
"225 250 OFFCURVE",
"218 239 QCURVE",
"216 234 OFFCURVE",
"216 192 OFFCURVE",
"213 184 QCURVE",
"212 179 OFFCURVE",
"206 171 OFFCURVE",
"195 162 OFFCURVE",
"185 155 OFFCURVE",
"168 145 OFFCURVE",
"158 140 OFFCURVE",
"137 130 OFFCURVE",
"133 128 QCURVE SMOOTH",
"77 100 OFFCURVE",
"23 30 OFFCURVE",
"23 -34 QCURVE SMOOTH",
"23 -116 OFFCURVE",
"160 -218 OFFCURVE",
"250 -218 QCURVE SMOOTH"
);
},
{
closed = 1;
nodes = (
"262 303 OFFCURVE",
"302 343 OFFCURVE",
"302 397 OFFCURVE",
"262 438 OFFCURVE",
"234 438 QCURVE SMOOTH",
"207 438 OFFCURVE",
"168 397 OFFCURVE",
"168 343 OFFCURVE",
"207 303 OFFCURVE",
"234 303 QCURVE SMOOTH"
);
}
);
width = 325;
}
);
note = questiondown;
unicode = 00BF;
},
{
glyphname = AE;
layers = (
{
layerId = "DDCC2651-E394-46D5-8079-7BA98592C969";
paths = (
{
closed = 1;
nodes = (
"446 296 LINE SMOOTH",
"446 293 OFFCURVE",
"439 288 OFFCURVE",
"433 286 OFFCURVE",
"431 286 QCURVE",
"384 283 OFFCURVE",
"379 283 QCURVE SMOOTH",
"342 283 OFFCURVE",
"308 286 QCURVE",
"306 286 OFFCURVE",
"307 290 QCURVE",
"434 494 OFFCURVE",
"434 494 QCURVE",
"437 500 OFFCURVE",
"442 500 QCURVE SMOOTH",
"446 500 OFFCURVE",
"446 496 QCURVE SMOOTH"
);
},
{
closed = 1;
nodes = (
"142 134 LINE SMOOTH",
"113 86 OFFCURVE",
"87 56 QCURVE SMOOTH",
"78 45 OFFCURVE",
"22 24 OFFCURVE",
"11 24 QCURVE SMOOTH",
"6 24 OFFCURVE",
"4 10 QCURVE SMOOTH",
"2 -3 OFFCURVE",
"5 -6 QCURVE",
"18 -5 OFFCURVE",
"98 0 OFFCURVE",
"125 0 QCURVE SMOOTH",
"151 0 OFFCURVE",
"220 -5 OFFCURVE",
"230 -6 QCURVE",
"233 0 OFFCURVE",
"238 24 OFFCURVE",
"235 25 QCURVE",
"226 25 OFFCURVE",
"186 35 OFFCURVE",
"178 42 QCURVE",
"169 51 OFFCURVE",
"172 64 QCURVE SMOOTH",
"175 79 OFFCURVE",
"205 129 QCURVE SMOOTH",
"263 222 LINE",
"263 226 OFFCURVE",
"270 226 QCURVE",
"330 229 OFFCURVE",
"384 229 QCURVE SMOOTH",
"409 229 OFFCURVE",
"441 227 QCURVE",
"444 227 OFFCURVE",
"446 223 QCURVE",
"446 133 LINE SMOOTH",
"446 77 OFFCURVE",
"439 50 QCURVE",
"436 42 OFFCURVE",
"390 30 OFFCURVE",
"377 30 QCURVE SMOOTH",
"373 30 OFFCURVE",
"373 12 QCURVE SMOOTH",
"373 -2 OFFCURVE",
"377 -6 QCURVE",
"505 0 LINE",
"548 0 OFFCURVE",
"790 -5 OFFCURVE",
"847 -5 QCURVE",
"849 10 OFFCURVE",
"863 58 OFFCURVE",
"875 91 OFFCURVE",
"898 155 OFFCURVE",
"901 164 QCURVE",
"895 170 OFFCURVE",
"873 170 QCURVE SMOOTH",
"860 170 OFFCURVE",
"859 164 QCURVE",
"848 130 OFFCURVE",
"808 76 OFFCURVE",
"792 68 QCURVE SMOOTH",
"751 47 OFFCURVE",
"673 47 QCURVE SMOOTH",
"636 47 LINE SMOOTH",
"573 47 OFFCURVE",
"568 60 QCURVE SMOOTH",
"559 86 OFFCURVE",
"559 141 QCURVE SMOOTH",
"559 296 LINE SMOOTH",
"559 304 OFFCURVE",
"631 304 QCURVE SMOOTH",
"710 304 OFFCURVE",
"723 296 QCURVE",
"730 291 OFFCURVE",
"733 289 OFFCURVE",
"744 263 OFFCURVE",
"751 236 QCURVE",
"754 228 OFFCURVE",
"767 228 QCURVE SMOOTH",
"782 228 OFFCURVE",
"786 232 QCURVE",
"786 421 LINE",
"781 426 OFFCURVE",
"767 426 QCURVE SMOOTH",
"752 426 OFFCURVE",
"751 419 QCURVE",
"748 409 OFFCURVE",
"745 394 QCURVE SMOOTH",
"739 364 OFFCURVE",
"717 354 OFFCURVE",
"659 354 QCURVE SMOOTH",
"656 354 OFFCURVE",
"655 354 QCURVE SMOOTH",
"603 354 LINE SMOOTH",
"559 354 OFFCURVE",
"559 360 QCURVE SMOOTH",
"559 517 LINE SMOOTH",
"559 570 OFFCURVE",
"565 598 QCURVE",
"567 611 OFFCURVE",
"641 611 QCURVE SMOOTH",
"693 611 LINE SMOOTH",
"788 611 OFFCURVE",
"821 522 QCURVE",
"824 515 OFFCURVE",
"835 515 QCURVE SMOOTH",
"851 515 OFFCURVE",
"856 520 QCURVE",
"855 525 OFFCURVE",
"831 632 OFFCURVE",
"827 662 QCURVE",
"770 662 OFFCURVE",
"548 654 OFFCURVE",
"504 654 QCURVE SMOOTH",
"437 654 OFFCURVE",
"377 658 QCURVE",
"373 654 OFFCURVE",
"373 640 QCURVE SMOOTH",
"373 624 OFFCURVE",
"377 624 QCURVE SMOOTH",
"389 624 OFFCURVE",
"424 613 OFFCURVE",
"428 605 QCURVE SMOOTH",
"430 601 OFFCURVE",
"430 600 QCURVE SMOOTH",
"430 592 OFFCURVE",
"425 584 QCURVE SMOOTH"
);
}
);
width = 914;
}
);
note = AE;
unicode = 00C6;
},
{
glyphname = Eth;
layers = (
{
layerId = "DDCC2651-E394-46D5-8079-7BA98592C969";
paths = (
{
closed = 1;
nodes = (
"48 342 OFFCURVE",
"48 322 QCURVE SMOOTH",
"48 308 OFFCURVE",
"54 308 QCURVE SMOOTH",
"400 308 LINE",
"406 321 OFFCURVE",
"406 338 QCURVE SMOOTH",
"406 350 OFFCURVE",
"400 350 QCURVE SMOOTH",
"54 350 LINE"
);
},
{
closed = 1;
nodes = (
"101 658 OFFCURVE",
"34 661 QCURVE",
"31 658 OFFCURVE",
"31 643 QCURVE SMOOTH",
"31 628 OFFCURVE",
"35 628 QCURVE SMOOTH",
"47 628 OFFCURVE",
"100 611 OFFCURVE",
"103 603 QCURVE",
"110 578 OFFCURVE",
"110 521 QCURVE SMOOTH",
"110 143 LINE SMOOTH",
"110 70 OFFCURVE",
"103 52 QCURVE",
"99 43 OFFCURVE",
"48 30 OFFCURVE",
"36 30 QCURVE SMOOTH",
"32 30 OFFCURVE",
"32 12 QCURVE SMOOTH",
"32 0 OFFCURVE",
"36 -4 QCURVE",
"55 -2 LINE",
"75 -1 OFFCURVE",
"141 1 OFFCURVE",
"169 1 QCURVE SMOOTH",
"206 2 OFFCURVE",
"324 -3 OFFCURVE",
"340 -3 QCURVE SMOOTH",
"422 -3 OFFCURVE",
"555 51 OFFCURVE",
"641 144 OFFCURVE",
"686 266 OFFCURVE",
"686 336 QCURVE SMOOTH",
"686 397 OFFCURVE",
"643 511 OFFCURVE",
"560 603 OFFCURVE",
"425 658 OFFCURVE",
"342 658 QCURVE SMOOTH",
"322 658 OFFCURVE",
"204 658 OFFCURVE",
"168 658 QCURVE SMOOTH"
);
},
{
closed = 1;
nodes = (
"223 575 OFFCURVE",
"236 592 QCURVE SMOOTH",
"248 608 OFFCURVE",
"344 608 QCURVE SMOOTH",
"350 608 LINE SMOOTH",
"418 608 OFFCURVE",
"517 531 OFFCURVE",
"562 411 OFFCURVE",
"562 340 QCURVE SMOOTH",
"562 195 OFFCURVE",
"456 48 OFFCURVE",
"356 48 QCURVE SMOOTH",
"330 48 OFFCURVE",
"244 56 OFFCURVE",
"235 64 QCURVE",
"223 82 OFFCURVE",
"223 138 QCURVE SMOOTH",
"223 530 LINE SMOOTH"
);
}
);
width = 718;
}
);
note = Eth;
unicode = 00D0;
},
{
glyphname = multiply;
layers = (
{
layerId = "DDCC2651-E394-46D5-8079-7BA98592C969";
paths = (
{
closed = 1;
nodes = (
"25 107 LINE",
"22 100 OFFCURVE",
"48 66 QCURVE",
"54 57 OFFCURVE",
"61 57 QCURVE SMOOTH",
"63 57 OFFCURVE",
"66 58 QCURVE",
"205 198 LINE",
"208 202 OFFCURVE",
"212 198 QCURVE SMOOTH",
"350 60 LINE SMOOTH",
"355 55 OFFCURVE",
"359 59 QCURVE",
"362 61 OFFCURVE",
"387 95 OFFCURVE",
"391 105 QCURVE",
"390 112 LINE",
"256 244 LINE SMOOTH",
"254 246 OFFCURVE",
"258 250 QCURVE SMOOTH",
"390 382 LINE",
"391 388 LINE",
"387 399 OFFCURVE",
"361 429 OFFCURVE",
"356 431 QCURVE",
"352 434 OFFCURVE",
"348 430 QCURVE SMOOTH",
"212 296 LINE SMOOTH",
"208 292 OFFCURVE",
"206 295 QCURVE",
"71 430 LINE SMOOTH",
"67 434 OFFCURVE",
"62 432 QCURVE",
"55 430 OFFCURVE",
"31 401 OFFCURVE",
"26 390 QCURVE",
"24 386 OFFCURVE",
"28 382 QCURVE SMOOTH",
"160 250 LINE SMOOTH",
"164 246 OFFCURVE",
"161 244 QCURVE"
);
}
);
width = 419;
}
);
note = multiply;
unicode = 00D7;
},
{
glyphname = Oslash;
layers = (
{
layerId = "DDCC2651-E394-46D5-8079-7BA98592C969";
paths = (
{
closed = 1;
nodes = (
"385 618 OFFCURVE",
"469 563 OFFCURVE",
"516 472 OFFCURVE",
"540 366 OFFCURVE",
"540 309 QCURVE SMOOTH",
"540 239 OFFCURVE",
"503 119 OFFCURVE",
"420 40 OFFCURVE",
"362 40 QCURVE SMOOTH",
"310 40 OFFCURVE",
"227 97 OFFCURVE",
"179 189 OFFCURVE",
"154 295 OFFCURVE",
"154 350 QCURVE SMOOTH",
"154 460 OFFCURVE",
"245 618 OFFCURVE",
"332 618 QCURVE SMOOTH"
);
},
{
closed = 1;
nodes = (
"126 7 LINE",
"124 3 OFFCURVE",
"149 -12 OFFCURVE",
"159 -16 QCURVE",
"556 650 LINE",
"558 653 OFFCURVE",
"544 663 OFFCURVE",
"528 670 OFFCURVE",
"523 672 QCURVE"
);
},
{
closed = 1;
nodes = (
"26 420 OFFCURVE",
"26 236 OFFCURVE",
"112 80 OFFCURVE",
"260 -10 OFFCURVE",
"433 -10 OFFCURVE",
"581 80 OFFCURVE",
"668 236 OFFCURVE",
"668 420 OFFCURVE",
"581 576 OFFCURVE",
"433 667 OFFCURVE",
"260 667 OFFCURVE",
"112 576 OFFCURVE"
);
}
);
width = 698;
}
);
note = Oslash;
unicode = 00D8;
},
{
glyphname = Thorn;
layers = (
{
layerId = "DDCC2651-E394-46D5-8079-7BA98592C969";
paths = (
{
closed = 1;
nodes = (
"158 656 OFFCURVE",
"32 662 QCURVE",
"29 659 OFFCURVE",
"29 629 OFFCURVE",
"33 629 QCURVE SMOOTH",
"45 629 OFFCURVE",
"93 614 OFFCURVE",
"98 606 QCURVE",
"105 586 OFFCURVE",
"105 522 QCURVE SMOOTH",
"105 136 LINE SMOOTH",
"105 79 OFFCURVE",
"98 52 QCURVE",
"95 44 OFFCURVE",
"44 30 OFFCURVE",
"32 30 QCURVE SMOOTH",
"28 30 OFFCURVE",
"28 12 QCURVE SMOOTH",
"28 0 OFFCURVE",
"32 -4 QCURVE",
"43 -3 OFFCURVE",
"138 3 OFFCURVE",
"164 3 QCURVE SMOOTH",
"184 3 OFFCURVE",
"228 1 OFFCURVE",
"279 -3 OFFCURVE",
"292 -4 QCURVE",
"294 2 OFFCURVE",
"294 12 QCURVE SMOOTH",
"294 30 OFFCURVE",
"290 30 QCURVE SMOOTH",
"281 30 OFFCURVE",
"229 45 OFFCURVE",
"227 52 QCURVE SMOOTH",
"218 85 OFFCURVE",
"218 140 QCURVE SMOOTH",
"218 391 LINE SMOOTH",
"218 433 OFFCURVE",
"224 457 OFFCURVE",
"230 460 QCURVE",
"244 466 OFFCURVE",
"288 466 QCURVE SMOOTH",
"398 466 OFFCURVE",
"398 320 QCURVE SMOOTH",
"398 261 OFFCURVE",
"342 182 OFFCURVE",
"295 182 QCURVE SMOOTH",
"261 182 OFFCURVE",
"239 191 QCURVE",
"236 191 OFFCURVE",
"235 178 OFFCURVE",
"238 162 OFFCURVE",
"240 159 QCURVE SMOOTH",
"247 149 OFFCURVE",
"289 134 OFFCURVE",
"311 134 QCURVE SMOOTH",
"403 134 OFFCURVE",
"520 260 OFFCURVE",
"520 334 QCURVE SMOOTH",
"520 373 OFFCURVE",
"491 437 OFFCURVE",
"445 477 OFFCURVE",
"386 504 OFFCURVE",
"331 516 OFFCURVE",
"304 516 QCURVE SMOOTH",
"284 516 OFFCURVE",
"245 510 OFFCURVE",
"223 504 OFFCURVE",
"222 504 QCURVE SMOOTH",
"218 504 OFFCURVE",
"218 510 QCURVE",
"218 510 OFFCURVE",
"219 516 OFFCURVE",
"219 520 OFFCURVE",
"219 522 QCURVE SMOOTH",
"219 576 OFFCURVE",
"226 606 QCURVE SMOOTH",
"228 614 OFFCURVE",
"282 629 OFFCURVE",
"291 629 QCURVE SMOOTH",
"295 629 OFFCURVE",
"295 646 QCURVE SMOOTH",
"295 654 OFFCURVE",
"292 662 QCURVE",
"182 656 OFFCURVE",
"164 656 QCURVE SMOOTH"
);
}
);
width = 564;
}
);
note = Thorn;
unicode = 00DE;
},
{
glyphname = germandbls;
layers = (
{
layerId = "DDCC2651-E394-46D5-8079-7BA98592C969";
paths = (
{
closed = 1;
nodes = (
"490 626 OFFCURVE",
"386 694 OFFCURVE",
"310 694 QCURVE SMOOTH",
"222 694 OFFCURVE",
"106 568 OFFCURVE",
"106 445 QCURVE SMOOTH",
"106 427 LINE SMOOTH",
"106 421 OFFCURVE",
"101 421 QCURVE SMOOTH",
"60 421 LINE SMOOTH",
"56 421 OFFCURVE",
"45 385 OFFCURVE",
"45 375 QCURVE SMOOTH",
"45 369 OFFCURVE",
"48 369 QCURVE SMOOTH",
"101 369 LINE SMOOTH",
"106 369 OFFCURVE",
"106 361 QCURVE SMOOTH",
"106 273 OFFCURVE",
"105 135 QCURVE SMOOTH",
"105 81 OFFCURVE",
"96 46 QCURVE SMOOTH",
"94 39 OFFCURVE",
"52 24 OFFCURVE",
"41 24 QCURVE SMOOTH",
"37 24 OFFCURVE",
"37 12 QCURVE SMOOTH",
"37 -1 OFFCURVE",
"40 -4 QCURVE",
"52 -3 OFFCURVE",
"134 3 OFFCURVE",
"158 3 QCURVE SMOOTH",
"181 3 OFFCURVE",
"263 -3 OFFCURVE",
"274 -4 QCURVE",
"276 0 OFFCURVE",
"275 27 OFFCURVE",
"272 27 QCURVE SMOOTH",
"264 27 OFFCURVE",
"219 43 OFFCURVE",
"218 50 QCURVE",
"210 86 OFFCURVE",
"210 137 QCURVE",
"209 475 LINE",
"209 512 OFFCURVE",
"214 564 OFFCURVE",
"230 621 OFFCURVE",
"266 651 OFFCURVE",
"294 651 QCURVE SMOOTH",
"341 651 OFFCURVE",
"391 597 OFFCURVE",
"391 549 QCURVE SMOOTH",
"391 514 OFFCURVE",
"367 460 OFFCURVE",
"333 428 OFFCURVE",
"299 398 OFFCURVE",
"275 357 OFFCURVE",
"275 330 QCURVE SMOOTH",
"275 292 OFFCURVE",
"314 236 OFFCURVE",
"370 203 OFFCURVE",
"425 172 OFFCURVE",
"464 130 OFFCURVE",
"464 103 QCURVE SMOOTH",
"464 80 OFFCURVE",
"441 36 OFFCURVE",
"421 36 QCURVE SMOOTH",
"405 36 OFFCURVE",
"382 58 OFFCURVE",
"370 84 OFFCURVE",
"347 106 OFFCURVE",
"330 106 QCURVE SMOOTH",
"294 106 OFFCURVE",
"294 41 QCURVE",
"303 26 OFFCURVE",
"379 -8 OFFCURVE",
"421 -8 QCURVE SMOOTH",
"478 -8 OFFCURVE",
"556 75 OFFCURVE",
"556 134 QCURVE SMOOTH",
"556 211 OFFCURVE",
"447 268 QCURVE SMOOTH",
"404 291 OFFCURVE",
"354 339 OFFCURVE",
"354 369 QCURVE SMOOTH",
"354 387 OFFCURVE",
"382 419 OFFCURVE",
"422 445 OFFCURVE",
"462 477 OFFCURVE",
"490 529 OFFCURVE",
"490 563 QCURVE SMOOTH"
);
}
);
width = 583;
}
);
note = germandbls;
unicode = 00DF;
},
{
glyphname = aacute;
layers = (
{
layerId = "DDCC2651-E394-46D5-8079-7BA98592C969";
paths = (
{
closed = 1;
nodes = (
"744 718 LINE"
);
},
{
closed = 1;
nodes = (
"268 668 OFFCURVE",
"260 660 QCURVE",
"235 631 OFFCURVE",
"166 527 OFFCURVE",
"166 517 OFFCURVE",
"176 506 OFFCURVE",
"181 506 QCURVE SMOOTH",
"194 506 OFFCURVE",
"336 617 OFFCURVE",
"336 642 QCURVE SMOOTH",
"336 646 OFFCURVE",
"330 657 OFFCURVE",
"310 668 OFFCURVE",
"294 668 QCURVE SMOOTH"
);
},
{
closed = 1;
nodes = (
"167 58 OFFCURVE",
"135 88 OFFCURVE",
"135 120 QCURVE SMOOTH",
"135 135 OFFCURVE",
"150 161 OFFCURVE",
"182 179 OFFCURVE",
"206 189 OFFCURVE",
"251 203 OFFCURVE",
"258 206 QCURVE",
"258 104 LINE SMOOTH",
"258 86 OFFCURVE",
"219 58 OFFCURVE",
"192 58 QCURVE SMOOTH"
);
},
{
closed = 1;
nodes = (
"165 442 OFFCURVE",
"34 358 OFFCURVE",
"34 310 QCURVE",
"49 286 OFFCURVE",
"86 286 QCURVE SMOOTH",
"105 286 OFFCURVE",
"135 305 OFFCURVE",
"135 325 QCURVE SMOOTH",
"135 359 OFFCURVE",
"169 396 OFFCURVE",
"199 396 QCURVE SMOOTH",
"226 396 OFFCURVE",
"258 356 OFFCURVE",
"258 321 QCURVE SMOOTH",
"258 266 LINE SMOOTH",
"258 254 OFFCURVE",
"249 250 QCURVE",
"237 246 OFFCURVE",
"176 228 OFFCURVE",
"137 215 OFFCURVE",
"83 189 OFFCURVE",
"51 162 OFFCURVE",
"28 120 OFFCURVE",
"28 96 QCURVE SMOOTH",
"28 48 OFFCURVE",
"91 -7 OFFCURVE",
"141 -7 QCURVE SMOOTH",
"161 -7 OFFCURVE",
"200 4 OFFCURVE",
"229 20 OFFCURVE",
"252 36 OFFCURVE",
"265 47 OFFCURVE",
"266 48 QCURVE",
"273 28 OFFCURVE",
"317 -6 OFFCURVE",
"340 -6 QCURVE SMOOTH",
"363 -6 OFFCURVE",
"413 20 OFFCURVE",
"428 32 QCURVE",
"434 42 OFFCURVE",
"434 62 QCURVE SMOOTH",
"434 71 OFFCURVE",
"428 73 QCURVE",
"409 60 OFFCURVE",
"394 60 QCURVE SMOOTH",
"379 60 OFFCURVE",
"361 81 OFFCURVE",
"361 101 QCURVE SMOOTH",
"361 298 LINE SMOOTH",
"361 377 OFFCURVE",
"299 442 OFFCURVE",
"237 442 QCURVE SMOOTH"
);
}
);
width = 452;
}
);
note = aacute;
unicode = 00E1;
},
{
glyphname = ae;
layers = (
{
layerId = "DDCC2651-E394-46D5-8079-7BA98592C969";
paths = (
{
closed = 1;
nodes = (
"377 211 OFFCURVE",
"384 211 QCURVE",
"461 218 OFFCURVE",
"608 235 QCURVE SMOOTH",
"630 238 OFFCURVE",
"646 247 OFFCURVE",
"646 262 QCURVE",
"645 290 OFFCURVE",
"627 348 OFFCURVE",
"590 406 OFFCURVE",
"520 442 OFFCURVE",
"474 442 QCURVE SMOOTH",
"406 442 OFFCURVE",
"348 395 QCURVE",
"317 443 OFFCURVE",
"231 443 QCURVE SMOOTH",
"162 443 OFFCURVE",
"42 362 OFFCURVE",
"42 320 QCURVE SMOOTH",
"42 305 OFFCURVE",
"67 286 OFFCURVE",
"86 286 QCURVE SMOOTH",
"107 286 OFFCURVE",
"140 299 OFFCURVE",
"140 313 QCURVE SMOOTH",
"140 348 OFFCURVE",
"180 396 OFFCURVE",
"208 396 QCURVE SMOOTH",
"232 396 OFFCURVE",
"265 357 OFFCURVE",
"265 326 QCURVE SMOOTH",
"265 259 LINE SMOOTH",
"265 247 OFFCURVE",
"256 244 QCURVE SMOOTH",
"250 242 OFFCURVE",
"199 230 OFFCURVE",
"175 224 OFFCURVE",
"127 208 OFFCURVE",
"101 195 OFFCURVE",
"65 173 OFFCURVE",
"46 149 OFFCURVE",
"32 116 OFFCURVE",
"32 97 QCURVE SMOOTH",
"32 54 OFFCURVE",
"93 -7 OFFCURVE",
"146 -7 QCURVE SMOOTH",
"254 -7 OFFCURVE",
"319 67 QCURVE",
"377 -7 OFFCURVE",
"475 -7 QCURVE SMOOTH",
"522 -7 OFFCURVE",
"614 45 OFFCURVE",
"634 74 QCURVE",
"638 81 OFFCURVE",
"638 94 QCURVE SMOOTH",
"638 97 OFFCURVE",
"633 104 OFFCURVE",
"629 108 OFFCURVE",
"627 108 OFFCURVE",
"595 86 OFFCURVE",
"537 63 OFFCURVE",
"504 63 QCURVE SMOOTH",
"441 63 OFFCURVE",
"377 142 OFFCURVE",
"377 204 QCURVE SMOOTH"
);
},
{
closed = 1;
nodes = (
"266 86 OFFCURVE",
"226 57 OFFCURVE",
"199 57 QCURVE SMOOTH",
"175 57 OFFCURVE",
"142 87 OFFCURVE",
"142 115 QCURVE SMOOTH",
"142 140 OFFCURVE",
"163 157 QCURVE",
"187 178 OFFCURVE",
"266 195 QCURVE",
"266 104 LINE SMOOTH"
);
},
{
closed = 1;
nodes = (
"540 282 OFFCURVE",
"534 280 QCURVE",
"512 274 OFFCURVE",
"384 262 QCURVE",
"377 262 OFFCURVE",
"377 268 QCURVE SMOOTH",
"377 307 OFFCURVE",
"428 396 OFFCURVE",
"471 396 QCURVE SMOOTH",
"504 396 OFFCURVE",
"540 325 OFFCURVE",
"540 290 QCURVE SMOOTH"
);
}
);
width = 662;
}
);
note = ae;
unicode = 00E6;
},
{
glyphname = eth;
layers = (
{
layerId = "DDCC2651-E394-46D5-8079-7BA98592C969";
paths = (
{
closed = 1;
nodes = (
"114 534 LINE",
"107 528 OFFCURVE",
"131 500 QCURVE",
"396 668 LINE",
"402 673 OFFCURVE",
"378 701 QCURVE"
);
},
{
closed = 1;
nodes = (
"185 442 OFFCURVE",
"83 374 OFFCURVE",
"28 270 OFFCURVE",
"28 216 QCURVE SMOOTH",
"28 125 OFFCURVE",
"163 -6 OFFCURVE",
"257 -6 QCURVE SMOOTH",
"347 -6 OFFCURVE",
"472 136 OFFCURVE",
"472 266 QCURVE SMOOTH",
"472 343 OFFCURVE",
"423 478 OFFCURVE",
"345 574 OFFCURVE",
"244 646 OFFCURVE",
"140 686 OFFCURVE",
"89 692 QCURVE",
"83 692 OFFCURVE",
"77 671 OFFCURVE",
"77 663 QCURVE",
"284 589 OFFCURVE",
"330 426 QCURVE",
"321 433 OFFCURVE",
"270 442 OFFCURVE",
"246 442 QCURVE SMOOTH"
);
},
{
closed = 1;
nodes = (
"272 395 OFFCURVE",
"328 360 OFFCURVE",
"343 328 QCURVE SMOOTH",
"356 299 OFFCURVE",
"357 210 QCURVE SMOOTH",
"357 133 OFFCURVE",
"307 40 OFFCURVE",
"258 40 QCURVE SMOOTH",
"204 40 OFFCURVE",
"142 155 OFFCURVE",
"142 234 QCURVE SMOOTH",
"142 303 OFFCURVE",
"193 395 OFFCURVE",
"241 395 QCURVE SMOOTH"
);
}
);
width = 517;
}
);
note = eth;
unicode = 00F0;
},
{
glyphname = divide;
layers = (
{
layerId = "DDCC2651-E394-46D5-8079-7BA98592C969";
paths = (
{
closed = 1;
nodes = (
"315 443 LINE",
"312 466 OFFCURVE",
"282 492 OFFCURVE",
"238 492 OFFCURVE",
"205 459 OFFCURVE",
"205 438 QCURVE SMOOTH",
"205 434 LINE",
"208 411 OFFCURVE",
"238 384 OFFCURVE",
"282 384 OFFCURVE",
"315 418 OFFCURVE",
"315 438 QCURVE SMOOTH"
);
},
{
closed = 1;
nodes = (
"281 0 OFFCURVE",
"315 35 OFFCURVE",
"315 56 QCURVE SMOOTH",
"315 58 LINE",
"312 81 OFFCURVE",
"282 112 OFFCURVE",
"238 112 OFFCURVE",
"205 77 OFFCURVE",
"205 56 QCURVE SMOOTH",
"205 52 LINE",
"208 29 OFFCURVE",
"238 0 OFFCURVE",
"260 0 QCURVE SMOOTH"
);
},
{
closed = 1;
nodes = (
"26 218 OFFCURVE",
"28 215 QCURVE",
"32 213 OFFCURVE",
"32 213 QCURVE",
"480 213 LINE",
"482 214 LINE",
"483 214 OFFCURVE",
"487 217 OFFCURVE",
"488 220 QCURVE",
"496 252 OFFCURVE",
"496 270 QCURVE SMOOTH",
"496 279 OFFCURVE",
"489 280 QCURVE",
"40 280 LINE SMOOTH",
"33 280 OFFCURVE",
"26 232 OFFCURVE",
"26 222 QCURVE SMOOTH"
);
}
);
width = 524;
}
);
note = divide;
unicode = 00F7;
},
{
glyphname = oslash;
layers = (
{
layerId = "DDCC2651-E394-46D5-8079-7BA98592C969";
paths = (
{
closed = 1;
nodes = (
"229 40 OFFCURVE",
"203 63 QCURVE",
"344 320 LINE",
"367 267 OFFCURVE",
"367 195 QCURVE SMOOTH",
"367 133 OFFCURVE",
"318 40 OFFCURVE",
"268 40 QCURVE SMOOTH"
);
},
{
closed = 1;
nodes = (
"284 399 OFFCURVE",
"312 373 QCURVE",
"170 112 LINE",
"144 167 OFFCURVE",
"144 242 QCURVE SMOOTH",
"144 304 OFFCURVE",
"195 399 OFFCURVE",
"246 399 QCURVE SMOOTH"
);
},
{
closed = 1;
nodes = (
"161 445 OFFCURVE",
"30 312 OFFCURVE",
"30 218 QCURVE SMOOTH",
"30 162 OFFCURVE",
"82 64 OFFCURVE",
"126 33 QCURVE",
"108 0 LINE",
"113 -11 LINE",
"121 -21 OFFCURVE",
"142 -28 QCURVE SMOOTH",
"151 -31 OFFCURVE",
"153 -27 QCURVE",
"173 8 LINE",
"212 -7 OFFCURVE",
"256 -7 QCURVE SMOOTH",
"351 -7 OFFCURVE",
"482 125 OFFCURVE",
"482 218 QCURVE SMOOTH",
"482 273 OFFCURVE",
"433 370 OFFCURVE",
"390 402 QCURVE",
"406 432 LINE",
"406 438 OFFCURVE",
"402 442 QCURVE SMOOTH",
"382 462 OFFCURVE",
"370 462 QCURVE",
"364 463 OFFCURVE",
"360 459 QCURVE",
"342 428 LINE",
"302 445 OFFCURVE",
"256 445 QCURVE SMOOTH"
);
}
);
width = 511;
}
);
note = oslash;
unicode = 00F8;
},
{
glyphname = thorn;
layers = (
{
layerId = "DDCC2651-E394-46D5-8079-7BA98592C969";
paths = (
{
closed = 1;
nodes = (
"280 441 OFFCURVE",
"225 419 OFFCURVE",
"210 407 QCURVE",
"207 407 OFFCURVE",
"207 412 QCURVE SMOOTH",
"207 584 LINE SMOOTH",
"207 639 OFFCURVE",
"218 678 QCURVE",
"218 683 OFFCURVE",
"210 694 OFFCURVE",
"206 694 QCURVE SMOOTH",
"204 694 LINE SMOOTH",
"203 694 OFFCURVE",
"189 689 OFFCURVE",
"162 679 OFFCURVE",
"125 669 OFFCURVE",
"68 659 OFFCURVE",
"38 656 QCURVE",
"32 656 OFFCURVE",
"32 640 QCURVE SMOOTH",
"32 624 OFFCURVE",
"38 624 QCURVE SMOOTH",
"46 624 LINE SMOOTH",
"93 624 OFFCURVE",
"98 608 QCURVE",
"104 580 OFFCURVE",
"104 538 QCURVE SMOOTH",
"104 -94 LINE SMOOTH",
"104 -137 OFFCURVE",
"96 -166 QCURVE SMOOTH",
"94 -174 OFFCURVE",
"45 -189 OFFCURVE",
"34 -189 QCURVE SMOOTH",
"30 -189 OFFCURVE",
"30 -218 OFFCURVE",
"34 -222 QCURVE",
"41 -222 OFFCURVE",
"132 -216 OFFCURVE",
"156 -216 QCURVE SMOOTH",
"179 -216 OFFCURVE",
"272 -222 OFFCURVE",
"278 -222 QCURVE",
"280 -218 OFFCURVE",
"279 -189 OFFCURVE",
"276 -189 QCURVE SMOOTH",
"267 -189 OFFCURVE",
"216 -174 OFFCURVE",
"214 -166 QCURVE SMOOTH",
"207 -138 OFFCURVE",
"207 -76 QCURVE SMOOTH",
"207 -8 LINE SMOOTH",
"207 6 OFFCURVE",
"211 6 QCURVE",
"253 -8 OFFCURVE",
"282 -8 QCURVE SMOOTH",
"378 -8 OFFCURVE",
"516 127 OFFCURVE",
"516 230 QCURVE SMOOTH",
"516 281 OFFCURVE",
"469 375 OFFCURVE",
"369 441 OFFCURVE",
"304 441 QCURVE SMOOTH"
);
},
{
closed = 1;
nodes = (
"337 388 OFFCURVE",
"402 281 OFFCURVE",
"402 200 QCURVE SMOOTH",
"402 124 OFFCURVE",
"338 40 OFFCURVE",
"292 40 QCURVE SMOOTH",
"261 40 OFFCURVE",
"207 79 OFFCURVE",
"207 112 QCURVE SMOOTH",
"207 318 LINE SMOOTH",
"207 350 OFFCURVE",
"248 388 OFFCURVE",
"281 388 QCURVE SMOOTH"
);
}
);
width = 540;
}
);
note = thorn;
unicode = 00FE;
},
{
glyphname = Aogonek;
layers = (
{
layerId = "DDCC2651-E394-46D5-8079-7BA98592C969";
paths = (
{
closed = 1;
nodes = (
"250 288 OFFCURVE",
"250 292 QCURVE",
"332 492 LINE",
"408 292 LINE",
"406 288 OFFCURVE",
"406 288 QCURVE",
"360 285 OFFCURVE",
"324 285 QCURVE SMOOTH",
"286 285 OFFCURVE",
"252 288 QCURVE"
);
},
{
closed = 1;
nodes = (
"686 0 OFFCURVE",
"686 12 QCURVE SMOOTH",
"686 30 OFFCURVE",
"682 30 QCURVE SMOOTH",
"670 30 OFFCURVE",
"618 48 OFFCURVE",
"612 63 QCURVE",
"597 96 OFFCURVE",
"582 136 QCURVE SMOOTH",
"372 660 LINE",
"367 665 OFFCURVE",
"360 665 QCURVE SMOOTH",
"351 665 OFFCURVE",
"343 658 QCURVE SMOOTH",
"329 646 OFFCURVE",
"306 586 QCURVE SMOOTH",
"120 136 LINE SMOOTH",
"101 88 OFFCURVE",
"82 58 QCURVE SMOOTH",
"75 47 OFFCURVE",
"22 30 OFFCURVE",
"10 30 QCURVE SMOOTH",
"8 30 OFFCURVE",
"8 12 QCURVE SMOOTH",
"8 1 OFFCURVE",
"12 -3 QCURVE",
"27 -2 OFFCURVE",
"98 3 OFFCURVE",
"150 3 OFFCURVE",
"234 -3 OFFCURVE",
"239 -3 QCURVE",
"241 3 OFFCURVE",
"241 29 OFFCURVE",
"238 30 QCURVE",
"230 30 OFFCURVE",
"185 40 OFFCURVE",
"176 46 QCURVE SMOOTH",
"165 53 OFFCURVE",
"165 79 OFFCURVE",
"184 131 QCURVE",
"222 224 LINE",
"222 228 OFFCURVE",
"228 228 QCURVE",
"288 231 OFFCURVE",
"396 231 OFFCURVE",
"428 229 QCURVE",
"431 229 OFFCURVE",
"435 225 QCURVE",
"470 132 LINE SMOOTH",
"489 83 OFFCURVE",
"489 63 QCURVE SMOOTH",
"489 56 OFFCURVE",
"486 50 QCURVE SMOOTH",
"482 42 OFFCURVE",
"440 30 OFFCURVE",
"428 30 QCURVE SMOOTH",
"424 30 OFFCURVE",
"424 1 OFFCURVE",
"428 -3 QCURVE",
"551 3 OFFCURVE",
"558 3 QCURVE SMOOTH",
"570 3 LINE",
"524 -19 OFFCURVE",
"445 -106 OFFCURVE",
"445 -144 QCURVE SMOOTH",
"445 -175 OFFCURVE",
"489 -221 OFFCURVE",
"521 -221 QCURVE SMOOTH",
"554 -221 OFFCURVE",
"617 -177 OFFCURVE",
"635 -153 QCURVE SMOOTH",
"640 -146 OFFCURVE",
"640 -134 QCURVE SMOOTH",
"640 -118 OFFCURVE",
"636 -118 QCURVE",
"635 -119 OFFCURVE",
"615 -133 OFFCURVE",
"598 -143 OFFCURVE",
"569 -153 OFFCURVE",
"555 -153 QCURVE SMOOTH",
"535 -153 OFFCURVE",
"514 -131 OFFCURVE",
"514 -116 QCURVE SMOOTH",
"514 -87 OFFCURVE",
"575 -22 OFFCURVE",
"614 1 QCURVE",
"615 1 OFFCURVE",
"640 -1 OFFCURVE",
"675 -3 OFFCURVE",
"684 -3 QCURVE"
);
}
);
width = 692;
}
);
note = Aogonek;
unicode = 0104;
},
{
glyphname = aogonek;
layers = (
{
layerId = "DDCC2651-E394-46D5-8079-7BA98592C969";
paths = (
{
closed = 1;
nodes = (
"148 442 OFFCURVE",
"24 365 OFFCURVE",
"24 324 QCURVE SMOOTH",
"24 309 OFFCURVE",
"49 290 OFFCURVE",
"89 290 OFFCURVE",
"122 306 OFFCURVE",
"122 320 QCURVE SMOOTH",
"122 355 OFFCURVE",
"163 396 OFFCURVE",
"191 396 QCURVE SMOOTH",
"215 396 OFFCURVE",
"248 357 OFFCURVE",
"248 326 QCURVE SMOOTH",
"248 266 LINE SMOOTH",
"248 253 OFFCURVE",
"238 250 QCURVE SMOOTH",
"226 246 OFFCURVE",
"165 227 OFFCURVE",
"125 214 OFFCURVE",
"72 190 OFFCURVE",
"39 164 OFFCURVE",
"16 125 OFFCURVE",
"16 102 QCURVE SMOOTH",
"16 53 OFFCURVE",
"76 -7 OFFCURVE",
"130 -7 QCURVE SMOOTH",
"150 -7 OFFCURVE",
"190 4 OFFCURVE",
"219 20 OFFCURVE",
"241 36 OFFCURVE",
"255 48 OFFCURVE",
"256 48 QCURVE",
"270 11 OFFCURVE",
"302 -1 QCURVE",
"263 -26 OFFCURVE",
"194 -110 OFFCURVE",
"194 -143 QCURVE SMOOTH",
"194 -174 OFFCURVE",
"238 -220 OFFCURVE",
"270 -220 QCURVE SMOOTH",
"303 -220 OFFCURVE",
"366 -177 OFFCURVE",
"384 -153 QCURVE SMOOTH",
"390 -145 OFFCURVE",
"390 -133 QCURVE SMOOTH",
"390 -118 OFFCURVE",
"385 -118 QCURVE",
"384 -119 OFFCURVE",
"364 -133 OFFCURVE",
"347 -143 OFFCURVE",
"318 -153 OFFCURVE",
"304 -153 QCURVE SMOOTH",
"284 -153 OFFCURVE",
"264 -131 OFFCURVE",
"264 -116 QCURVE SMOOTH",
"264 -66 OFFCURVE",
"378 6 QCURVE SMOOTH",
"417 31 LINE",
"424 45 OFFCURVE",
"424 64 QCURVE SMOOTH",
"424 65 OFFCURVE",
"418 71 OFFCURVE",
"416 71 QCURVE",
"411 68 LINE",
"406 64 OFFCURVE",
"391 58 OFFCURVE",
"383 58 QCURVE SMOOTH",
"350 58 OFFCURVE",
"350 101 QCURVE SMOOTH",
"350 302 LINE SMOOTH",
"350 379 OFFCURVE",
"284 442 OFFCURVE",
"218 442 QCURVE SMOOTH"
);
},
{
closed = 1;
nodes = (
"248 86 OFFCURVE",
"207 58 OFFCURVE",
"180 58 QCURVE SMOOTH",
"155 58 OFFCURVE",
"123 89 OFFCURVE",
"123 120 QCURVE SMOOTH",
"123 136 OFFCURVE",
"139 161 OFFCURVE",
"171 179 OFFCURVE",
"196 189 OFFCURVE",
"240 203 OFFCURVE",
"248 206 QCURVE",
"248 104 LINE SMOOTH"
);
}
);
width = 444;
}
);
note = aogonek;
unicode = 0105;
},
{
glyphname = dcroat;
layers = (
{
layerId = "DDCC2651-E394-46D5-8079-7BA98592C969";
paths = (
{
closed = 1;
nodes = (
"348 94 OFFCURVE",
"308 58 OFFCURVE",
"273 58 QCURVE SMOOTH",
"219 58 OFFCURVE",
"155 160 OFFCURVE",
"155 236 QCURVE SMOOTH",
"155 304 OFFCURVE",
"216 398 OFFCURVE",
"258 398 QCURVE SMOOTH",
"312 398 OFFCURVE",
"336 367 QCURVE",
"348 353 OFFCURVE",
"348 320 QCURVE SMOOTH",
"348 127 LINE SMOOTH"
);
},
{
closed = 1;
nodes = (
"452 511 LINE SMOOTH",
"452 516 OFFCURVE",
"459 516 QCURVE SMOOTH",
"505 516 LINE",
"506 516 LINE SMOOTH",
"508 516 OFFCURVE",
"511 519 OFFCURVE",
"512 522 QCURVE SMOOTH",
"519 541 OFFCURVE",
"521 564 QCURVE",
"521 566 OFFCURVE",
"521 567 QCURVE SMOOTH",
"521 573 OFFCURVE",
"513 573 QCURVE SMOOTH",
"459 573 LINE SMOOTH",
"452 573 OFFCURVE",
"452 578 QCURVE SMOOTH",
"452 596 LINE SMOOTH",
"453 648 OFFCURVE",
"464 678 QCURVE",
"463 682 OFFCURVE",
"454 694 OFFCURVE",
"450 694 QCURVE SMOOTH",
"448 694 LINE",
"440 691 LINE",
"433 688 OFFCURVE",
"406 679 OFFCURVE",
"369 669 OFFCURVE",
"313 659 OFFCURVE",
"282 656 QCURVE",
"276 656 OFFCURVE",
"276 628 OFFCURVE",
"282 628 QCURVE SMOOTH",
"291 628 LINE SMOOTH",
"338 628 OFFCURVE",
"343 612 QCURVE",
"346 600 OFFCURVE",
"346 578 QCURVE SMOOTH",
"346 573 OFFCURVE",
"343 573 QCURVE SMOOTH",
"218 573 LINE",
"212 568 LINE",
"204 544 OFFCURVE",
"204 526 QCURVE SMOOTH",
"204 516 OFFCURVE",
"210 516 QCURVE SMOOTH",
"342 516 LINE SMOOTH",
"348 516 OFFCURVE",
"348 512 QCURVE SMOOTH",
"348 446 LINE SMOOTH",
"348 428 OFFCURVE",
"344 428 QCURVE",
"310 446 OFFCURVE",
"267 446 QCURVE SMOOTH",
"175 445 OFFCURVE",
"42 300 OFFCURVE",
"42 201 QCURVE SMOOTH",
"42 111 OFFCURVE",
"156 -6 OFFCURVE",
"236 -6 QCURVE SMOOTH",
"290 -6 OFFCURVE",
"344 40 QCURVE",
"346 42 OFFCURVE",
"348 40 OFFCURVE",
"348 36 QCURVE SMOOTH",
"348 11 LINE SMOOTH",
"348 -6 OFFCURVE",
"354 -6 QCURVE",
"366 -4 LINE",
"378 -1 OFFCURVE",
"416 6 OFFCURVE",
"458 13 OFFCURVE",
"501 19 OFFCURVE",
"516 20 QCURVE",
"522 20 OFFCURVE",
"522 44 QCURVE SMOOTH",
"522 50 OFFCURVE",
"518 52 QCURVE",
"508 52 LINE",
"499 53 OFFCURVE",
"479 55 OFFCURVE",
"460 63 OFFCURVE",
"458 70 QCURVE",
"452 98 OFFCURVE",
"452 144 QCURVE SMOOTH"
);
}
);
width = 535;
}
);
note = dcroat;
unicode = 0111;
},
{
glyphname = Eogonek;
layers = (
{
layerId = "DDCC2651-E394-46D5-8079-7BA98592C969";
paths = (
{
closed = 1;
nodes = (
"86 658 OFFCURVE",
"20 661 QCURVE",
"16 657 OFFCURVE",
"16 643 QCURVE SMOOTH",
"16 628 OFFCURVE",
"20 628 QCURVE SMOOTH",
"32 628 OFFCURVE",
"85 611 OFFCURVE",
"88 603 QCURVE",
"95 576 OFFCURVE",
"95 521 QCURVE SMOOTH",
"95 143 LINE SMOOTH",
"95 73 OFFCURVE",
"88 52 QCURVE",
"84 43 OFFCURVE",
"34 30 OFFCURVE",
"21 30 QCURVE SMOOTH",
"18 30 OFFCURVE",
"18 13 QCURVE SMOOTH",
"18 -1 OFFCURVE",
"21 -4 QCURVE",
"154 1 LINE",
"242 1 OFFCURVE",
"412 -3 QCURVE",
"367 -24 OFFCURVE",
"296 -106 OFFCURVE",
"296 -144 QCURVE SMOOTH",
"296 -175 OFFCURVE",
"340 -221 OFFCURVE",
"372 -221 QCURVE SMOOTH",
"405 -221 OFFCURVE",
"468 -178 OFFCURVE",
"486 -154 QCURVE SMOOTH",
"490 -149 OFFCURVE",
"490 -134 QCURVE SMOOTH",
"490 -118 OFFCURVE",
"486 -118 QCURVE",
"485 -119 OFFCURVE",
"466 -133 OFFCURVE",
"448 -144 OFFCURVE",
"420 -154 OFFCURVE",
"406 -154 QCURVE SMOOTH",
"386 -154 OFFCURVE",
"364 -131 OFFCURVE",
"364 -116 QCURVE SMOOTH",
"364 -83 OFFCURVE",
"457 -7 OFFCURVE",
"496 -4 QCURVE",
"500 23 OFFCURVE",
"550 164 QCURVE",
"544 170 OFFCURVE",
"522 170 QCURVE SMOOTH",
"510 170 OFFCURVE",
"508 164 QCURVE SMOOTH",
"497 130 OFFCURVE",
"457 76 OFFCURVE",
"441 68 QCURVE SMOOTH",
"400 47 OFFCURVE",
"322 47 QCURVE SMOOTH",
"285 47 LINE SMOOTH",
"222 47 OFFCURVE",
"217 60 QCURVE SMOOTH",
"208 86 OFFCURVE",
"208 141 QCURVE SMOOTH",
"208 296 LINE SMOOTH",
"208 304 OFFCURVE",
"280 304 QCURVE SMOOTH",
"359 304 OFFCURVE",
"372 296 QCURVE",
"379 291 OFFCURVE",
"382 289 OFFCURVE",
"393 263 OFFCURVE",
"400 236 QCURVE",
"403 228 OFFCURVE",
"416 228 QCURVE SMOOTH",
"431 228 OFFCURVE",
"435 232 QCURVE",
"435 421 LINE",
"430 426 OFFCURVE",
"416 426 QCURVE SMOOTH",
"401 426 OFFCURVE",
"400 419 QCURVE",
"397 409 OFFCURVE",
"394 394 QCURVE SMOOTH",
"388 364 OFFCURVE",
"366 354 OFFCURVE",
"308 354 QCURVE SMOOTH",
"305 354 OFFCURVE",
"304 354 QCURVE SMOOTH",
"252 354 LINE SMOOTH",
"208 354 OFFCURVE",
"208 360 QCURVE SMOOTH",
"208 517 LINE SMOOTH",
"208 570 OFFCURVE",
"214 598 QCURVE",
"216 611 OFFCURVE",
"290 611 QCURVE SMOOTH",
"342 611 LINE SMOOTH",
"437 611 OFFCURVE",
"470 522 QCURVE",
"473 515 OFFCURVE",
"484 515 QCURVE SMOOTH",
"500 515 OFFCURVE",
"505 520 QCURVE",
"504 525 OFFCURVE",
"480 632 OFFCURVE",
"476 662 QCURVE",
"420 662 OFFCURVE",
"198 658 OFFCURVE",
"153 658 QCURVE SMOOTH"
);
}
);
width = 578;
}
);
note = Eogonek;
unicode = 0118;
},
{
glyphname = eogonek;
layers = (
{
layerId = "DDCC2651-E394-46D5-8079-7BA98592C969";
paths = (
{
closed = 1;
nodes = (
"257 396 OFFCURVE",
"299 324 OFFCURVE",
"299 289 QCURVE SMOOTH",
"299 275 OFFCURVE",
"290 274 QCURVE",
"143 274 LINE SMOOTH",
"136 274 OFFCURVE",
"136 281 QCURVE SMOOTH",
"136 300 OFFCURVE",
"149 348 OFFCURVE",
"191 396 OFFCURVE",
"222 396 QCURVE SMOOTH"
);
},
{
closed = 1;
nodes = (
"144 442 OFFCURVE",
"24 310 OFFCURVE",
"24 209 QCURVE SMOOTH",
"24 116 OFFCURVE",
"142 -8 OFFCURVE",
"232 -8 QCURVE SMOOTH",
"254 -8 OFFCURVE",
"262 -6 QCURVE",
"229 -33 OFFCURVE",
"172 -113 OFFCURVE",
"172 -175 OFFCURVE",
"216 -221 OFFCURVE",
"248 -221 QCURVE SMOOTH",
"281 -221 OFFCURVE",
"344 -178 OFFCURVE",
"362 -154 QCURVE SMOOTH",
"368 -146 OFFCURVE",
"368 -134 QCURVE SMOOTH",
"368 -118 OFFCURVE",
"363 -118 QCURVE",
"362 -119 OFFCURVE",
"342 -133 OFFCURVE",
"325 -144 OFFCURVE",
"296 -154 OFFCURVE",
"282 -154 QCURVE SMOOTH",
"262 -154 OFFCURVE",
"242 -131 OFFCURVE",
"242 -116 QCURVE SMOOTH",
"242 -80 OFFCURVE",
"295 -11 OFFCURVE",
"350 33 QCURVE SMOOTH",
"382 59 OFFCURVE",
"395 75 QCURVE",
"400 82 OFFCURVE",
"400 94 QCURVE SMOOTH",
"400 107 OFFCURVE",
"392 110 QCURVE",
"376 99 LINE SMOOTH",
"361 88 OFFCURVE",
"339 75 OFFCURVE",
"292 62 OFFCURVE",
"266 62 QCURVE SMOOTH",
"203 62 OFFCURVE",
"139 147 OFFCURVE",
"136 198 QCURVE",
"136 218 LINE SMOOTH",
"136 226 OFFCURVE",
"142 226 QCURVE SMOOTH",
"286 226 OFFCURVE",
"364 228 QCURVE SMOOTH",
"388 228 OFFCURVE",
"405 238 OFFCURVE",
"405 259 QCURVE SMOOTH",
"405 282 OFFCURVE",
"395 329 OFFCURVE",
"370 379 OFFCURVE",
"332 417 OFFCURVE",
"272 442 OFFCURVE",
"234 442 QCURVE SMOOTH"
);
}
);
width = 430;
}
);
note = eogonek;
unicode = 0119;
},
{
glyphname = Hbar;
layers = (
{
layerId = "DDCC2651-E394-46D5-8079-7BA98592C969";
paths = (
{
closed = 1;
nodes = (
"144 656 OFFCURVE",
"50 662 OFFCURVE",
"42 662 QCURVE",
"39 659 OFFCURVE",
"39 646 QCURVE SMOOTH",
"39 629 OFFCURVE",
"43 629 QCURVE SMOOTH",
"56 629 OFFCURVE",
"104 614 OFFCURVE",
"108 605 QCURVE",
"114 585 OFFCURVE",
"115 522 QCURVE",
"69 522 LINE",
"63 512 OFFCURVE",
"63 494 QCURVE SMOOTH",
"63 480 OFFCURVE",
"68 480 QCURVE SMOOTH",
"115 480 LINE",
"115 136 LINE SMOOTH",
"115 78 OFFCURVE",
"108 52 QCURVE",
"105 44 OFFCURVE",
"53 30 OFFCURVE",
"41 30 QCURVE SMOOTH",
"38 30 OFFCURVE",
"38 12 QCURVE SMOOTH",
"38 0 OFFCURVE",
"42 -4 QCURVE",
"54 -3 OFFCURVE",
"145 3 OFFCURVE",
"172 3 QCURVE SMOOTH",
"192 3 OFFCURVE",
"236 1 OFFCURVE",
"289 -3 OFFCURVE",
"302 -4 QCURVE",
"304 2 OFFCURVE",
"304 30 OFFCURVE",
"300 30 QCURVE SMOOTH",
"291 30 OFFCURVE",
"239 45 OFFCURVE",
"237 52 QCURVE SMOOTH",
"228 85 OFFCURVE",
"228 140 QCURVE SMOOTH",
"228 300 LINE",
"229 303 OFFCURVE",
"366 305 QCURVE SMOOTH",
"405 305 OFFCURVE",
"499 303 QCURVE",
"501 299 LINE",
"501 136 LINE SMOOTH",
"501 77 OFFCURVE",
"494 52 QCURVE",
"491 44 OFFCURVE",
"440 30 OFFCURVE",
"428 30 QCURVE SMOOTH",
"424 30 OFFCURVE",
"424 0 OFFCURVE",
"428 -4 QCURVE",
"437 -3 OFFCURVE",
"535 3 OFFCURVE",
"562 3 QCURVE SMOOTH",
"589 3 OFFCURVE",
"684 -3 OFFCURVE",
"687 -4 QCURVE",
"690 4 OFFCURVE",
"690 12 QCURVE SMOOTH",
"690 30 OFFCURVE",
"686 30 QCURVE SMOOTH",
"676 30 OFFCURVE",
"624 44 OFFCURVE",
"622 52 QCURVE SMOOTH",
"614 82 OFFCURVE",
"614 140 QCURVE SMOOTH",
"614 480 LINE",
"666 480 LINE",
"672 490 OFFCURVE",
"672 508 QCURVE SMOOTH",
"672 522 OFFCURVE",
"666 522 QCURVE SMOOTH",
"615 522 LINE",
"615 578 OFFCURVE",
"622 606 QCURVE SMOOTH",
"624 614 OFFCURVE",
"677 629 OFFCURVE",
"686 629 QCURVE SMOOTH",
"690 629 OFFCURVE",
"690 646 QCURVE SMOOTH",
"690 654 OFFCURVE",
"688 662 QCURVE",
"568 656 OFFCURVE",
"564 656 QCURVE SMOOTH",
"543 656 OFFCURVE",
"498 658 OFFCURVE",
"444 661 OFFCURVE",
"428 662 QCURVE",
"425 658 OFFCURVE",
"425 629 OFFCURVE",
"429 629 QCURVE SMOOTH",
"441 629 OFFCURVE",
"491 614 OFFCURVE",
"494 606 QCURVE",
"500 581 OFFCURVE",
"501 522 QCURVE",
"461 520 OFFCURVE",
"366 520 QCURVE SMOOTH",
"241 520 OFFCURVE",
"229 522 QCURVE",
"230 582 OFFCURVE",
"237 606 QCURVE",
"239 614 OFFCURVE",
"292 629 OFFCURVE",
"301 629 QCURVE SMOOTH",
"305 629 OFFCURVE",
"305 657 OFFCURVE",
"302 662 QCURVE",
"182 656 OFFCURVE",
"172 656 QCURVE SMOOTH"
);
},
{
closed = 1;
nodes = (
"460 480 OFFCURVE",
"501 480 QCURVE",
"501 364 LINE SMOOTH",
"501 362 OFFCURVE",
"499 360 QCURVE",
"409 358 OFFCURVE",
"366 358 QCURVE SMOOTH",
"328 358 OFFCURVE",
"230 360 QCURVE SMOOTH",
"228 360 OFFCURVE",
"228 363 QCURVE SMOOTH",
"228 480 LINE",
"274 480 OFFCURVE",
"366 480 QCURVE SMOOTH"
);
}
);
width = 732;
}
);
note = Hbar;
unicode = 0126;
},
